<?xml version="1.0" encoding="UTF-8" standalone="no"?>
<!-- Created with Inkscape (http://www.inkscape.org/) -->

<svg
   version="1.1"
   id="svg1"
   width="1556"
   height="1152"
   viewBox="0 0 1556 1152"
   xmlns="http://www.w3.org/2000/svg"
   xmlns:svg="http://www.w3.org/2000/svg">
  <defs
     id="defs1" />
  <g
     id="g1">
    <g
       id="g2"
       transform="translate(-3.52838,-13.263378)">
      <path
         style="fill:#cbd0dd"
         d="m 448.28017,1100.2637 c 2.6291,-0.2066 6.6791,-0.2042 9,0.01 2.32091,0.2097 0.16983,0.3788 -4.78017,0.3757 -4.95,0 -6.84892,-0.1746 -4.21983,-0.3813 z m 40.96983,-0.953 c 0.9625,-0.2516 2.5375,-0.2516 3.5,0 0.9625,0.2515 0.175,0.4573 -1.75,0.4573 -1.925,0 -2.7125,-0.2058 -1.75,-0.4573 z m 19.5,-0.973 c 0.6875,-0.2774 1.8125,-0.2774 2.5,0 0.6875,0.2774 0.125,0.5044 -1.25,0.5044 -1.375,0 -1.9375,-0.227 -1.25,-0.5044 z m 16.0625,-1.0208 c 0.72187,-0.2889 1.58438,-0.2534 1.91667,0.079 0.33229,0.3323 -0.25834,0.5687 -1.3125,0.5253 -1.16495,-0.048 -1.4019,-0.285 -0.60417,-0.6042 z m 12,-1 c 0.72187,-0.2889 1.58438,-0.2534 1.91667,0.079 0.33229,0.3323 -0.25834,0.5687 -1.3125,0.5253 -1.16495,-0.048 -1.4019,-0.285 -0.60417,-0.6042 z m 11,-1 c 0.72187,-0.2889 1.58438,-0.2534 1.91667,0.079 0.33229,0.3323 -0.25834,0.5687 -1.3125,0.5253 -1.16495,-0.048 -1.4019,-0.285 -0.60417,-0.6042 z M 448.25,985.26496 c 2.6125,-0.206 6.8875,-0.206 9.5,0 2.6125,0.206 0.475,0.37454 -4.75,0.37454 -5.225,0 -7.3625,-0.16854 -4.75,-0.37454 z m 40.01903,-0.95795 c 0.97297,-0.25354 2.32297,-0.23687 3,0.0371 0.67703,0.27393 -0.11903,0.48137 -1.76903,0.46099 -1.65,-0.0204 -2.20394,-0.2445 -1.23097,-0.49804 z M 505.75,983.33772 c 0.6875,-0.27741 1.8125,-0.27741 2.5,0 0.6875,0.27741 0.125,0.50439 -1.25,0.50439 -1.375,0 -1.9375,-0.22698 -1.25,-0.50439 z m 14.0625,-1.02083 c 0.72187,-0.28887 1.58438,-0.25335 1.91667,0.0789 0.33229,0.33229 -0.25834,0.56864 -1.3125,0.52522 -1.16495,-0.048 -1.4019,-0.28494 -0.60417,-0.60416 z m 12,-1 c 0.72187,-0.28887 1.58438,-0.25335 1.91667,0.0789 0.33229,0.33229 -0.25834,0.56864 -1.3125,0.52522 -1.16495,-0.048 -1.4019,-0.28494 -0.60417,-0.60416 z M 1162,822.62244 c 0,-0.20765 0.7875,-0.99515 1.75,-1.75 1.5861,-1.24387 1.6214,-1.2085 0.3776,0.37756 -1.3064,1.66575 -2.1276,2.19548 -2.1276,1.37244 z M 1176.5,809 c 0.9955,-1.1 2.035,-2 2.31,-2 0.275,0 -0.3145,0.9 -1.31,2 -0.9955,1.1 -2.035,2 -2.31,2 -0.275,0 0.3145,-0.9 1.31,-2 z m 44,-44 c 0.9955,-1.1 2.035,-2 2.31,-2 0.275,0 -0.3145,0.9 -1.31,2 -0.9955,1.1 -2.035,2 -2.31,2 -0.275,0 0.3145,-0.9 1.31,-2 z m 11.5,-12.37756 c 0,-0.20765 0.7875,-0.99515 1.75,-1.75 1.5861,-1.24387 1.6214,-1.2085 0.3776,0.37756 -1.3064,1.66575 -2.1276,2.19548 -2.1276,1.37244 z m -162,-2 c 0,-0.20765 0.7875,-0.99515 1.75,-1.75 1.5861,-1.24387 1.6214,-1.2085 0.3776,0.37756 -1.3064,1.66575 -2.1276,2.19548 -2.1276,1.37244 z m 9,-8 c 0,-0.20765 0.7875,-0.99515 1.75,-1.75 1.5861,-1.24387 1.6214,-1.2085 0.3776,0.37756 -1.3064,1.66575 -2.1276,2.19548 -2.1276,1.37244 z m 162,0 c 0,-0.20765 0.7875,-0.99515 1.75,-1.75 1.5861,-1.24387 1.6214,-1.2085 0.3776,0.37756 -1.3064,1.66575 -2.1276,2.19548 -2.1276,1.37244 z M 1091.5,731 c 0.9955,-1.1 2.035,-2 2.31,-2 0.275,0 -0.3145,0.9 -1.31,2 -0.9955,1.1 -2.035,2 -2.31,2 -0.275,0 0.3145,-0.9 1.31,-2 z m 26,-25 c 3.8205,-3.85 7.1714,-7 7.4464,-7 0.275,0 -2.6259,3.15 -6.4464,7 -3.8205,3.85 -7.1714,7 -7.4464,7 -0.275,0 2.6259,-3.15 6.4464,-7 z m 25,-26 c 0.9955,-1.1 2.035,-2 2.31,-2 0.275,0 -0.3145,0.9 -1.31,2 -0.9955,1.1 -2.035,2 -2.31,2 -0.275,0 0.3145,-0.9 1.31,-2 z m 9.5,-10.37756 c 0,-0.20765 0.7875,-0.99515 1.75,-1.75 1.5861,-1.24387 1.6214,-1.2085 0.3776,0.37756 -1.3064,1.66575 -2.1276,2.19548 -2.1276,1.37244 z M 83.75,582.26779 c 2.3375,-0.21053 6.1625,-0.21053 8.5,0 2.3375,0.21054 0.425,0.3828 -4.25,0.3828 -4.675,0 -6.5875,-0.17226 -4.25,-0.3828 z m -20.9375,-0.9509 c 0.721875,-0.28887 1.584375,-0.25335 1.916667,0.0789 0.332291,0.33229 -0.258334,0.56864 -1.3125,0.52522 -1.164943,-0.048 -1.4019,-0.28494 -0.604167,-0.60416 z M 281.40249,565 c 0,-8.525 0.15337,-12.0125 0.34082,-7.75 0.18745,4.2625 0.18745,11.2375 0,15.5 -0.18745,4.2625 -0.34082,0.775 -0.34082,-7.75 z m 275.08724,-54.5 0.0103,-69 h 19 19 l 0.0103,69.25007 0.0103,69.25007 L 594.2535,511.00007 593.98631,442 H 575.5 557.01369 l -0.26711,68.75 -0.26712,68.75 z M 95.25,554.31067 c 0.9625,-0.25152 2.5375,-0.25152 3.5,0 0.9625,0.25153 0.175,0.45733 -1.75,0.45733 -1.925,0 -2.7125,-0.2058 -1.75,-0.45733 z M 116,549.62244 c 0,-0.20765 0.7875,-0.99515 1.75,-1.75 1.58606,-1.24387 1.62143,-1.2085 0.37756,0.37756 C 116.82119,549.91575 116,550.44548 116,549.62244 Z M 161.25218,539.5 c 0.0111,-2.2 0.21589,-2.98225 0.45508,-1.73834 0.23919,1.24391 0.23011,3.04391 -0.0202,4 -0.25029,0.95609 -0.446,-0.0617 -0.4349,-2.26166 z M 275.40249,509 c 0,-8.525 0.15337,-12.0125 0.34082,-7.75 0.18745,4.2625 0.18745,11.2375 0,15.5 -0.18745,4.2625 -0.34082,0.775 -0.34082,-7.75 z m 437.67646,13.41667 c 0.048,-1.16495 0.28494,-1.4019 0.60416,-0.60417 0.28887,0.72187 0.25335,1.58438 -0.0789,1.91667 -0.33229,0.33229 -0.56864,-0.25834 -0.52522,-1.3125 z M 660.29966,508 c 0,-3.025 0.18747,-4.2625 0.41659,-2.75 0.22913,1.5125 0.22913,3.9875 0,5.5 -0.22912,1.5125 -0.41659,0.275 -0.41659,-2.75 z m 51.85823,0 c 0,-1.375 0.22698,-1.9375 0.50439,-1.25 0.27741,0.6875 0.27741,1.8125 0,2.5 -0.27741,0.6875 -0.50439,0.125 -0.50439,-1.25 z M 349.75,501.2766 c 1.7875,-0.22182 4.7125,-0.22182 6.5,0 1.7875,0.22183 0.325,0.40333 -3.25,0.40333 -3.575,0 -5.0375,-0.1815 -3.25,-0.40333 z M 372,496.62244 c 0,-0.20765 0.7875,-0.99515 1.75,-1.75 1.58606,-1.24387 1.62143,-1.2085 0.37756,0.37756 C 372.82119,496.91575 372,497.44548 372,496.62244 Z M 99.8125,494.31689 c 0.72187,-0.28887 1.58437,-0.25335 1.91667,0.0789 0.33229,0.33229 -0.25834,0.56864 -1.3125,0.52522 -1.164946,-0.048 -1.401903,-0.28494 -0.60417,-0.60416 z M 415.28601,481.5 c 0.008,-2.75 0.20172,-3.75631 0.43157,-2.23625 0.22986,1.52006 0.22371,3.77006 -0.0136,5 -0.23736,1.22994 -0.42542,-0.0138 -0.41792,-2.76375 z M 278.22026,457.26019 278,442.02038 l -45.25,-0.27064 -45.25,-0.27064 45.28138,-0.23955 c 36.33158,-0.1922 45.37968,0.0166 45.77871,1.05644 0.27352,0.71279 0.35851,7.80029 0.18887,15.75 L 278.44052,472.5 Z M 354.25,468.28375 c 1.5125,-0.22913 3.9875,-0.22913 5.5,0 1.5125,0.22912 0.275,0.41659 -2.75,0.41659 -3.025,0 -4.2625,-0.18747 -2.75,-0.41659 z M 404.92431,454.25 402.5,451.5 l 2.75,2.42431 c 2.57029,2.26589 3.20859,3.07569 2.42431,3.07569 -0.17912,0 -1.41662,-1.2375 -2.75,-2.75 z m -257.51932,-0.5 -1.90499,-2.25 2.25,1.90499 c 2.11444,1.79022 2.70524,2.59501 1.90499,2.59501 -0.18976,0 -1.20226,-1.0125 -2.25,-2.25 z M 66.8125,441.31689 c 0.721875,-0.28887 1.584375,-0.25335 1.916667,0.0789 0.332291,0.33229 -0.258334,0.56864 -1.3125,0.52522 -1.164943,-0.048 -1.4019,-0.28494 -0.604167,-0.60416 z m 257,0 c 0.72187,-0.28887 1.58438,-0.25335 1.91667,0.0789 0.33229,0.33229 -0.25834,0.56864 -1.3125,0.52522 -1.16495,-0.048 -1.4019,-0.28494 -0.60417,-0.60416 z m 129.48944,-0.063 c 5.39107,-0.18015 13.94107,-0.17936 19,0.002 5.05893,0.18111 0.64806,0.32851 -9.80194,0.32755 -10.45,-9.6e-4 -14.58913,-0.14915 -9.19806,-0.3293 z m 184.44806,-4e-4 c 6.1875,-0.17544 16.3125,-0.17544 22.5,0 6.1875,0.17545 1.125,0.319 -11.25,0.319 -12.375,0 -17.4375,-0.14355 -11.25,-0.319 z m 82.5,0.002 c 4.8125,-0.18331 12.6875,-0.18331 17.5,0 4.8125,0.18332 0.875,0.3333 -8.75,0.3333 -9.625,0 -13.5625,-0.14998 -8.75,-0.3333 z m -636,-0.97168 c 1.5125,-0.22913 3.9875,-0.22913 5.5,0 1.5125,0.22912 0.275,0.41659 -2.75,0.41659 -3.025,0 -4.2625,-0.18747 -2.75,-0.41659 z m 17,0 c 1.5125,-0.22913 3.9875,-0.22913 5.5,0 1.5125,0.22912 0.275,0.41659 -2.75,0.41659 -3.025,0 -4.2625,-0.18747 -2.75,-0.41659 z m 241.51791,-0.008 c 1.79735,-0.22256 4.49735,-0.21797 6,0.0102 1.50265,0.22818 0.0321,0.41027 -3.26791,0.40466 -3.3,-0.006 -4.52944,-0.1923 -2.73209,-0.41486 z m 15.98209,0.019 c 1.2375,-0.23836 3.2625,-0.23836 4.5,0 1.2375,0.23835 0.225,0.43337 -2.25,0.43337 -2.475,0 -3.4875,-0.19502 -2.25,-0.43337 z m -39.9375,-48.97738 c 0.72187,-0.28887 1.58438,-0.25335 1.91667,0.0789 0.33229,0.33229 -0.25834,0.56864 -1.3125,0.52522 -1.16495,-0.048 -1.4019,-0.28494 -0.60417,-0.60416 z M 419.46621,335.5 c 1.5e-4,-29.7 0.12761,-41.70574 0.28324,-26.67942 0.15562,15.02632 0.15549,39.32632 -2.9e-4,54 -0.15578,14.67368 -0.28311,2.37942 -0.28295,-27.32058 z m 38,0 c 1.5e-4,-29.7 0.12761,-41.70574 0.28324,-26.67942 0.15562,15.02632 0.15549,39.32632 -2.9e-4,54 C 457.59338,377.49426 457.46605,365.2 457.46621,335.5 Z M 514.47323,320 c 0,-38.225 0.12435,-53.8625 0.27634,-34.75 0.15199,19.1125 0.15199,50.3875 0,69.5 -0.15199,19.1125 -0.27634,3.475 -0.27634,-34.75 z m 38,0 c 0,-38.225 0.12435,-53.8625 0.27634,-34.75 0.15199,19.1125 0.15199,50.3875 0,69.5 -0.15199,19.1125 -0.27634,3.475 -0.27634,-34.75 z m 55.99298,15.5 c 1.5e-4,-29.7 0.12761,-41.70574 0.28324,-26.67942 0.15562,15.02632 0.15549,39.32632 -2.9e-4,54 -0.15578,14.67368 -0.28311,2.37942 -0.28295,-27.32058 z m 38,0 c 1.5e-4,-29.7 0.12761,-41.70574 0.28324,-26.67942 0.15562,15.02632 0.15549,39.32632 -2.9e-4,54 -0.15578,14.67368 -0.28311,2.37942 -0.28295,-27.32058 z m 232,0 c 1.5e-4,-29.7 0.12761,-41.70574 0.28324,-26.67942 0.15562,15.02632 0.15549,39.32632 -2.9e-4,54 -0.15578,14.67368 -0.28311,2.37942 -0.28295,-27.32058 z m 38,0 c 1.5e-4,-29.7 0.12761,-41.70574 0.28324,-26.67942 0.15562,15.02632 0.15549,39.32632 -2.9e-4,54 -0.15578,14.67368 -0.28311,2.37942 -0.28295,-27.32058 z m -197.5419,41.75 -2.42431,-2.75 2.75,2.42431 c 1.5125,1.33338 2.75,2.57088 2.75,2.75 0,0.78428 -0.8098,0.14598 -3.07569,-2.42431 z M 308.25,360.28375 c 1.5125,-0.22913 3.9875,-0.22913 5.5,0 1.5125,0.22912 0.275,0.41659 -2.75,0.41659 -3.025,0 -4.2625,-0.18747 -2.75,-0.41659 z m 716.5,-2.03147 c 7.8375,-0.16896 20.6625,-0.16896 28.5,0 7.8375,0.16896 1.425,0.3072 -14.25,0.3072 -15.675,0 -22.0875,-0.13824 -14.25,-0.3072 z M 775,357.62244 c 0,-0.20765 0.7875,-0.99515 1.75,-1.75 1.58606,-1.24387 1.62143,-1.2085 0.37756,0.37756 C 775.82119,357.91575 775,358.44548 775,357.62244 Z M 326.40499,342.75 324.5,340.5 l 2.25,1.90499 c 2.11444,1.79022 2.70524,2.59501 1.90499,2.59501 -0.18976,0 -1.20226,-1.0125 -2.25,-2.25 z m 414.67396,-6.33333 c 0.048,-1.16495 0.28494,-1.4019 0.60416,-0.60417 0.28887,0.72187 0.25335,1.58438 -0.0789,1.91667 -0.33229,0.33229 -0.56864,-0.25834 -0.52522,-1.3125 z M 703.15789,335 c 0,-1.375 0.22698,-1.9375 0.50439,-1.25 0.27741,0.6875 0.27741,1.8125 0,2.5 -0.27741,0.6875 -0.50439,0.125 -0.50439,-1.25 z M 155.33621,325 c 0,-4.125 0.17651,-5.8125 0.39226,-3.75 0.21574,2.0625 0.21574,5.4375 0,7.5 -0.21575,2.0625 -0.39226,0.375 -0.39226,-3.75 z m 51.82168,-5 c 0,-1.375 0.22698,-1.9375 0.50439,-1.25 0.27741,0.6875 0.27741,1.8125 0,2.5 -0.27741,0.6875 -0.50439,0.125 -0.50439,-1.25 z m -0.72664,-45.5 c 6.6e-4,-13.2 0.14295,-18.46169 0.31621,-11.69265 0.17326,6.76904 0.17273,17.56904 -10e-4,24 -0.17391,6.43096 -0.31567,0.89265 -0.31502,-12.30735 z m 62.85476,17 c 0.008,-2.75 0.20172,-3.75631 0.43157,-2.23625 0.22986,1.52006 0.22371,3.77006 -0.0136,5 -0.23736,1.22994 -0.42542,-0.0138 -0.41792,-2.76375 z m 224.11878,-25 c 0.001,-8.8 0.15425,-12.26613 0.33996,-7.70252 0.18572,4.56362 0.18468,11.76362 -0.002,16 -0.18698,4.23639 -0.33893,0.50252 -0.33766,-8.29748 z m 189,0 c 10e-4,-8.8 0.15425,-12.26613 0.33996,-7.70252 0.18572,4.56362 0.18468,11.76362 -0.002,16 -0.18698,4.23639 -0.33893,0.50252 -0.33766,-8.29748 z m 270,0 c 10e-4,-8.8 0.15425,-12.26613 0.33996,-7.70252 0.18572,4.56362 0.18468,11.76362 -0.002,16 -0.18698,4.23639 -0.33893,0.50252 -0.33766,-8.29748 z M 251.8125,200.31689 c 0.72187,-0.28887 1.58437,-0.25335 1.91667,0.0789 0.33229,0.33229 -0.25834,0.56864 -1.3125,0.52522 -1.16495,-0.048 -1.4019,-0.28494 -0.60417,-0.60416 z m 109,0 c 0.72187,-0.28887 1.58438,-0.25335 1.91667,0.0789 0.33229,0.33229 -0.25834,0.56864 -1.3125,0.52522 -1.16495,-0.048 -1.4019,-0.28494 -0.60417,-0.60416 z m 18,0 c 0.72187,-0.28887 1.58438,-0.25335 1.91667,0.0789 0.33229,0.33229 -0.25834,0.56864 -1.3125,0.52522 -1.16495,-0.048 -1.4019,-0.28494 -0.60417,-0.60416 z m -271.83861,-2.06253 54.97411,-0.27127 0.31641,-14.99267 0.31642,-14.99268 -0.0404,15.25113 L 162.5,198.5 l -55.25011,0.0128 -55.250111,0.0128 z m 372.34497,-0.004 c 13.10037,-0.15798 34.25037,-0.15782 47,3.7e-4 12.74963,0.15819 2.03114,0.28745 -23.81886,0.28724 -25.85,-2e-4 -36.28151,-0.12962 -23.18114,-0.28761 z M 415,187.68709 c 0,-0.1721 1.4625,-1.6346 3.25,-3.25 l 3.25,-2.93709 -2.93709,3.25 C 415.82513,187.77946 415,188.45965 415,187.68709 Z m -44.23834,-18.39435 c 1.24391,-0.23919 3.04391,-0.23011 4,0.0202 0.95609,0.25029 -0.0617,0.446 -2.26166,0.4349 -2.2,-0.0111 -2.98225,-0.21589 -1.73834,-0.45508 z M 506.75,167.25228 c 7.8375,-0.16896 20.6625,-0.16896 28.5,0 7.8375,0.16896 1.425,0.3072 -14.25,0.3072 -15.675,0 -22.0875,-0.13824 -14.25,-0.3072 z M 257,166.62244 c 0,-0.20765 0.7875,-0.99515 1.75,-1.75 1.58606,-1.24387 1.62143,-1.2085 0.37756,0.37756 C 257.82119,166.91575 257,167.44548 257,166.62244 Z M 387.40499,151.75 385.5,149.5 l 2.25,1.90499 c 2.11444,1.79022 2.70524,2.59501 1.90499,2.59501 -0.18976,0 -1.20226,-1.0125 -2.25,-2.25 z m -164.32604,-7.33333 c 0.048,-1.16495 0.28494,-1.4019 0.60416,-0.60417 0.28887,0.72187 0.25335,1.58437 -0.0789,1.91667 -0.3323,0.33229 -0.56864,-0.25834 -0.52522,-1.3125 z m -38,-1 c 0.048,-1.16495 0.28494,-1.4019 0.60416,-0.60417 0.28887,0.72187 0.25335,1.58437 -0.0789,1.91667 -0.3323,0.33229 -0.56864,-0.25834 -0.52522,-1.3125 z m 1322.99995,-19 c 0.048,-1.16495 0.285,-1.4019 0.6042,-0.60417 0.2889,0.72187 0.2534,1.58437 -0.079,1.91667 -0.3323,0.33229 -0.5687,-0.25834 -0.5253,-1.3125 z m -115,-5 c 0.048,-1.16495 0.285,-1.4019 0.6042,-0.60417 0.2889,0.72187 0.2534,1.58437 -0.079,1.91667 -0.3323,0.33229 -0.5687,-0.25834 -0.5253,-1.3125 z m 116,-8 c 0.048,-1.16495 0.285,-1.4019 0.6042,-0.60417 0.2889,0.72187 0.2534,1.58437 -0.079,1.91667 -0.3323,0.33229 -0.5687,-0.25834 -0.5253,-1.3125 z m -115,-4 c 0.048,-1.16495 0.285,-1.4019 0.6042,-0.60417 0.2889,0.72187 0.2534,1.58437 -0.079,1.91667 -0.3323,0.33229 -0.5687,-0.25834 -0.5253,-1.3125 z m -1063.99995,-3 c 0.048,-1.16495 0.28494,-1.4019 0.60416,-0.60417 0.28887,0.72187 0.25335,1.58437 -0.0789,1.91667 -0.33229,0.33229 -0.56864,-0.25834 -0.52522,-1.3125 z M 1510.1579,97 c 0,-1.375 0.227,-1.9375 0.5044,-1.25 0.2774,0.6875 0.2774,1.8125 0,2.5 -0.2774,0.6875 -0.5044,0.125 -0.5044,-1.25 z M 330.07895,96.416667 c 0.048,-1.164943 0.28494,-1.4019 0.60416,-0.604167 0.28887,0.721875 0.25335,1.584375 -0.0789,1.916667 -0.33229,0.332291 -0.56864,-0.258334 -0.52522,-1.3125 z M 1395.1579,94 c 0,-1.375 0.227,-1.9375 0.5044,-1.25 0.2774,0.6875 0.2774,1.8125 0,2.5 -0.2774,0.6875 -0.5044,0.125 -0.5044,-1.25 z M 70.75,90.252282 c 7.8375,-0.168958 20.6625,-0.168958 28.5,0 7.8375,0.168957 1.425,0.307194 -14.25,0.307194 -15.675,0 -22.0875,-0.138237 -14.25,-0.307194 z M 161.37407,70.5 c 0.002,-6.05 0.16696,-8.396069 0.36601,-5.213487 0.19905,3.182582 0.1972,8.132582 -0.004,11 C 161.53467,79.153931 161.37181,76.55 161.37407,70.5 Z M 1511.232,77 c 0,-1.925 0.2058,-2.7125 0.4573,-1.75 0.2516,0.9625 0.2516,2.5375 0,3.5 -0.2515,0.9625 -0.4573,0.175 -0.4573,-1.75 z m -115.0371,-1.5 c 0.02,-1.65 0.2445,-2.203936 0.4981,-1.230968 0.2535,0.972967 0.2369,2.322967 -0.037,3 -0.2739,0.677032 -0.4813,-0.119032 -0.461,-1.769032 z"
         id="path8" />
      <path
         style="fill:#abb3c9"
         d="m 1181,804.5 c 1.2917,-1.375 2.5736,-2.5 2.8486,-2.5 0.275,0 -0.5569,1.125 -1.8486,2.5 -1.2917,1.375 -2.5736,2.5 -2.8486,2.5 -0.275,0 0.5569,-1.125 1.8486,-2.5 z m 32,-31.81291 c 0,-0.1721 1.4625,-1.6346 3.25,-3.25 l 3.25,-2.93709 -2.9371,3.25 c -2.7378,3.02946 -3.5629,3.70965 -3.5629,2.93709 z M 1106.5,717 c 2.1482,-2.2 4.1309,-4 4.4059,-4 0.275,0 -1.2577,1.8 -3.4059,4 -2.1482,2.2 -4.1309,4 -4.4059,4 -0.275,0 1.2577,-1.8 3.4059,-4 z m 21.5,-21.5 c 1.8658,-1.925 3.6173,-3.5 3.8923,-3.5 0.275,0 -1.0265,1.575 -2.8923,3.5 -1.8658,1.925 -3.6173,3.5 -3.8923,3.5 -0.275,0 1.0265,-1.575 2.8923,-3.5 z M 147,497.62244 c 0,-0.20765 0.7875,-0.99515 1.75,-1.75 1.58606,-1.24387 1.62143,-1.2085 0.37756,0.37756 C 147.82119,497.91575 147,498.44548 147,497.62244 Z M 356.5,376 c 0.99549,-1.1 2.03498,-2 2.30998,-2 0.275,0 -0.31449,0.9 -1.30998,2 -0.99549,1.1 -2.03498,2 -2.30998,2 -0.275,0 0.31449,-0.9 1.30998,-2 z"
         id="path7" />
      <path
         style="fill:#949fba"
         d="m 483.25,1099.3107 c 0.9625,-0.2516 2.5375,-0.2516 3.5,0 0.9625,0.2515 0.175,0.4573 -1.75,0.4573 -1.925,0 -2.7125,-0.2058 -1.75,-0.4573 z m 21.5,-0.973 c 0.6875,-0.2774 1.8125,-0.2774 2.5,0 0.6875,0.2774 0.125,0.5044 -1.25,0.5044 -1.375,0 -1.9375,-0.227 -1.25,-0.5044 z m 16.0625,-1.0208 c 0.72187,-0.2889 1.58438,-0.2534 1.91667,0.079 0.33229,0.3323 -0.25834,0.5687 -1.3125,0.5253 -1.16495,-0.048 -1.4019,-0.285 -0.60417,-0.6042 z m 13,-1 c 0.72187,-0.2889 1.58438,-0.2534 1.91667,0.079 0.33229,0.3323 -0.25834,0.5687 -1.3125,0.5253 -1.16495,-0.048 -1.4019,-0.285 -0.60417,-0.6042 z M 465.25,985.28375 c 1.5125,-0.22913 3.9875,-0.22913 5.5,0 1.5125,0.22912 0.275,0.41659 -2.75,0.41659 -3.025,0 -4.2625,-0.18747 -2.75,-0.41659 z m 28.01903,-0.97674 c 0.97297,-0.25354 2.32297,-0.23687 3,0.0371 0.67703,0.27393 -0.11903,0.48137 -1.76903,0.46099 -1.65,-0.0204 -2.20394,-0.2445 -1.23097,-0.49804 z m 16.54347,-0.99012 c 0.72187,-0.28887 1.58438,-0.25335 1.91667,0.0789 0.33229,0.33229 -0.25834,0.56864 -1.3125,0.52522 -1.16495,-0.048 -1.4019,-0.28494 -0.60417,-0.60416 z M 211.31886,580.25072 c 13.10037,-0.15798 34.25037,-0.15782 47,3.7e-4 12.74963,0.15819 2.03114,0.28745 -23.81886,0.28724 -25.85,-2e-4 -36.28151,-0.12962 -23.18114,-0.28761 z m 98.14949,-0.47807 C 309.20091,579.07269 309.10185,548.125 309.24821,511 l 0.2661,-67.5 0.24285,68.25 L 310,580 h 17.98312 17.98312 l 0.26688,-25.75 0.26688,-25.75 4.25742,-0.0981 4.25743,-0.0981 -3.99066,0.40477 -3.99065,0.40477 -0.26677,25.69332 L 346.5,580.5 l -18.27269,0.27265 c -14.07169,0.20996 -18.38449,-0.0199 -18.75896,-1 z m 82.83359,0.48122 c 5.39107,-0.18015 13.94107,-0.17936 19,0.002 5.05893,0.18111 0.64806,0.32851 -9.80194,0.32755 -10.45,-9.6e-4 -14.58913,-0.14915 -9.19806,-0.3293 z m 74.51664,-0.003 c 12.82521,-0.15837 33.52521,-0.1582 46,3.8e-4 12.47478,0.15859 1.98142,0.28816 -23.31858,0.28795 -25.3,-2.1e-4 -35.50664,-0.12996 -22.68142,-0.28833 z m 99.48336,0.003 c 5.39107,-0.18015 13.94107,-0.17936 19,0.002 5.05893,0.18111 0.64806,0.32851 -9.80194,0.32755 -10.45,-9.6e-4 -14.58913,-0.14915 -9.19806,-0.3293 z M 626.45972,579.75 c -0.26263,-0.6875 -0.35784,-32.075 -0.21156,-69.75 l 0.26595,-68.5 0.24295,69.22582 0.24294,69.22582 16.75,0.30006 16.75,0.30005 -16.78138,0.22413 c -12.67281,0.16925 -16.8983,-0.0819 -17.2589,-1.02588 z m 90.34347,0.50353 c 5.66676,-0.17857 14.66676,-0.17784 20,0.002 5.33325,0.17945 0.69681,0.32556 -10.30319,0.32467 -11,-8.8e-4 -15.36356,-0.14771 -9.69681,-0.32628 z M 51.472677,511.5 c 1.02e-4,-37.4 0.124738,-52.55464 0.276968,-33.67697 0.15223,18.87767 0.152146,49.47767 -1.87e-4,68 C 51.597126,564.34536 51.472574,548.9 51.472677,511.5 Z M 90.75,554.33772 c 0.6875,-0.27741 1.8125,-0.27741 2.5,0 0.6875,0.27741 0.125,0.50439 -1.25,0.50439 -1.375,0 -1.9375,-0.22698 -1.25,-0.50439 z m 11.0625,-0.0208 c 0.72187,-0.28887 1.58437,-0.25335 1.91667,0.0789 0.33229,0.33229 -0.25834,0.56864 -1.3125,0.52522 -1.16495,-0.048 -1.4019,-0.28494 -0.60417,-0.60416 z M 88.462849,537.5 88.5,521.5 l 5.755007,-0.0822 5.755003,-0.0822 -5.480468,0.38138 -5.480471,0.38137 -0.311686,15.70083 L 88.425698,553.5 Z M 225.45332,537.25152 225.5,524.5 l 24.5,-0.0262 24.5,-0.0262 -24.22025,0.29361 -24.22026,0.29361 -0.32642,12.48411 -0.32643,12.48412 z M 481.46621,495.5 c 1.5e-4,-29.7 0.12761,-41.70574 0.28324,-26.67942 0.15562,15.02632 0.15549,39.32632 -2.9e-4,54 C 481.59338,537.49426 481.46605,525.2 481.46621,495.5 Z M 713.5,530 c 0.33992,-0.55 0.81648,-1 1.05902,-1 0.24254,0 0.44098,0.45 0.44098,1 0,0.55 -0.47656,1 -1.05902,1 -0.58246,0 -0.7809,-0.45 -0.44098,-1 z m -53.15059,-8 c 0,-4.675 0.17226,-6.5875 0.3828,-4.25 0.21053,2.3375 0.21053,6.1625 0,8.5 -0.21054,2.3375 -0.3828,0.425 -0.3828,-4.25 z m 52.72954,-2.58333 c 0.048,-1.16495 0.28494,-1.4019 0.60416,-0.60417 0.28887,0.72187 0.25335,1.58438 -0.0789,1.91667 -0.33229,0.33229 -0.56864,-0.25834 -0.52522,-1.3125 z M 712.19495,502.5 c 0.0204,-1.65 0.2445,-2.20394 0.49804,-1.23097 0.25354,0.97297 0.23687,2.32297 -0.0371,3 -0.27393,0.67703 -0.48137,-0.11903 -0.46099,-1.76903 z M 346.40709,485 c 0,-9.075 0.1516,-12.7875 0.3369,-8.25 0.18529,4.5375 0.18529,11.9625 0,16.5 -0.1853,4.5375 -0.3369,0.825 -0.3369,-8.25 z M 88.391721,482 c 0,-7.425 0.157423,-10.4625 0.349829,-6.75 0.192407,3.7125 0.192407,9.7875 0,13.5 -0.192406,3.7125 -0.349829,0.675 -0.349829,-6.75 z m 136.986449,1 c 0,-6.325 0.16237,-8.9125 0.36082,-5.75 0.19845,3.1625 0.19845,8.3375 0,11.5 -0.19845,3.1625 -0.36082,0.575 -0.36082,-5.75 z m 433.70078,3.41667 c 0.048,-1.16495 0.28494,-1.4019 0.60416,-0.60417 0.28887,0.72187 0.25335,1.58438 -0.0789,1.91667 -0.33229,0.33229 -0.56864,-0.25834 -0.52522,-1.3125 z M 349.8125,468.31689 c 0.72187,-0.28887 1.58438,-0.25335 1.91667,0.0789 0.33229,0.33229 -0.25834,0.56864 -1.3125,0.52522 -1.16495,-0.048 -1.4019,-0.28494 -0.60417,-0.60416 z M 96.767909,467.27527 c 1.79735,-0.22256 4.497351,-0.21797 6.000001,0.0102 1.50265,0.22818 0.0321,0.41027 -3.26791,0.40466 -3.3,-0.006 -4.529441,-0.1923 -2.732091,-0.41486 z M 69.8125,441.31689 c 0.721875,-0.28887 1.584375,-0.25335 1.916667,0.0789 0.332291,0.33229 -0.258334,0.56864 -1.3125,0.52522 -1.164943,-0.048 -1.4019,-0.28494 -0.604167,-0.60416 z m 258,0 c 0.72187,-0.28887 1.58438,-0.25335 1.91667,0.0789 0.33229,0.33229 -0.25834,0.56864 -1.3125,0.52522 -1.16495,-0.048 -1.4019,-0.28494 -0.60417,-0.60416 z M 94.25,440.31067 c 0.9625,-0.25152 2.5375,-0.25152 3.5,0 0.9625,0.25153 0.175,0.45733 -1.75,0.45733 -1.925,0 -2.7125,-0.2058 -1.75,-0.45733 z m 258,0 c 0.9625,-0.25152 2.5375,-0.25152 3.5,0 0.9625,0.25153 0.175,0.45733 -1.75,0.45733 -1.925,0 -2.7125,-0.2058 -1.75,-0.45733 z m -50.5,-48.97295 c 0.6875,-0.27741 1.8125,-0.27741 2.5,0 0.6875,0.27741 0.125,0.50439 -1.25,0.50439 -1.375,0 -1.9375,-0.22698 -1.25,-0.50439 z m 13,0 c 0.6875,-0.27741 1.8125,-0.27741 2.5,0 0.6875,0.27741 0.125,0.50439 -1.25,0.50439 -1.375,0 -1.9375,-0.22698 -1.25,-0.50439 z m 440.0625,-0.0208 c 0.72187,-0.28887 1.58438,-0.25335 1.91667,0.0789 0.33229,0.33229 -0.25834,0.56864 -1.3125,0.52522 -1.16495,-0.048 -1.4019,-0.28494 -0.60417,-0.60416 z m 11.9375,0.0208 c 0.6875,-0.27741 1.8125,-0.27741 2.5,0 0.6875,0.27741 0.125,0.50439 -1.25,0.50439 -1.375,0 -1.9375,-0.22698 -1.25,-0.50439 z M 51.459718,388.75 C 51.197086,388.0625 51.098709,356.675 51.241102,319 L 51.5,250.5 l 19,-0.0349 19,-0.0349 -18.75,0.307 -18.75,0.307 V 320 388.95587 l 18.75,0.29551 18.75,0.2955 -18.781385,0.22656 C 56.444398,389.94563 51.822637,389.70002 51.459718,388.75 Z m 87.023782,0.51329 16.48544,-0.31151 0.28889,-27.72589 0.28889,-27.72589 -0.0234,28 -0.0234,28 -16.75096,0.0374 -16.75097,0.0374 z m 73.31969,-0.01 c 5.66676,-0.17857 14.66676,-0.17784 20,0.002 5.33325,0.17945 0.69681,0.32556 -10.30319,0.32467 -11,-8.8e-4 -15.36356,-0.14771 -9.69681,-0.32628 z m 217.49875,3.4e-4 c 5.39107,-0.18015 13.94107,-0.17936 19,0.002 5.05893,0.18111 0.64806,0.32851 -9.80194,0.32755 -10.45,-9.6e-4 -14.58913,-0.14915 -9.19806,-0.3293 z m 95,0 c 5.39107,-0.18015 13.94107,-0.17936 19,0.002 5.05893,0.18111 0.64806,0.32851 -9.80194,0.32755 -10.45,-9.6e-4 -14.58913,-0.14915 -9.19806,-0.3293 z m 94,0 c 5.39107,-0.18015 13.94107,-0.17936 19,0.002 5.05893,0.18111 0.64806,0.32851 -9.80194,0.32755 -10.45,-9.6e-4 -14.58913,-0.14915 -9.19806,-0.3293 z m 270,0 c 5.39107,-0.18015 13.94107,-0.17936 19,0.002 5.05893,0.18111 0.64806,0.32851 -9.80194,0.32755 -10.45,-9.6e-4 -14.58913,-0.14915 -9.19806,-0.3293 z M 973.45972,388.75 c -0.26263,-0.6875 -0.36101,-32.075 -0.21862,-69.75 l 0.2589,-68.5 45,-0.0153 45,-0.0153 -44.75,0.27547 -44.75,0.27548 V 320.00017 388.98 l 46.25,0.27022 46.25,0.27022 -46.2814,0.23976 c -36.28195,0.18797 -46.38454,-0.0303 -46.75888,-1.01023 z m -188.97658,-96.25 0.0169,-42 18.5,-0.0331 18.5,-0.0331 -18.23905,0.30512 -18.23904,0.30512 -0.27781,41.72798 L 784.46628,334.5 Z M 1023.25,333.25279 c 7.0125,-0.1719 18.4875,-0.1719 25.5,0 7.0125,0.1719 1.275,0.31255 -12.75,0.31255 -14.025,0 -19.7625,-0.14065 -12.75,-0.31255 z M 703.48315,291.75019 703.5,250.5 l 18.5,-0.0331 18.5,-0.0331 -18.23892,0.30512 -18.23893,0.30512 -0.27792,40.97817 -0.27792,40.97816 z M 207.15789,315 c 0,-1.375 0.22698,-1.9375 0.50439,-1.25 0.27741,0.6875 0.27741,1.8125 0,2.5 -0.27741,0.6875 -0.50439,0.125 -0.50439,-1.25 z M 154.232,298 c 0,-1.925 0.2058,-2.7125 0.45733,-1.75 0.25152,0.9625 0.25152,2.5375 0,3.5 -0.25153,0.9625 -0.45733,0.175 -0.45733,-1.75 z M 384.45959,265.75113 384.5,250.5 l 54.25011,-0.013 54.25012,-0.013 -53.97412,0.27164 -53.97411,0.27164 -0.31641,14.99253 -0.31642,14.99253 z M 132.19458,250.25435 c 5.88201,-0.17649 15.78201,-0.17711 22,-10e-4 6.21798,0.17574 1.40542,0.32014 -10.69458,0.32089 -12.1,7.6e-4 -17.18744,-0.14302 -11.30542,-0.31951 z m 83.05542,0.001 c 4.8125,-0.18331 12.6875,-0.18331 17.5,0 4.8125,0.18332 0.875,0.3333 -8.75,0.3333 -9.625,0 -13.5625,-0.14998 -8.75,-0.3333 z m 309.05194,-0.002 c 5.39107,-0.18015 13.94107,-0.17936 19,0.002 5.05893,0.18111 0.64806,0.32851 -9.80194,0.32755 -10.45,-9.6e-4 -14.58913,-0.14915 -9.19806,-0.3293 z m 76.44806,-0.003 c 14.9875,-0.15555 39.5125,-0.15555 54.5,0 14.9875,0.15556 2.725,0.28283 -27.25,0.28283 -29.975,0 -42.2375,-0.12727 -27.25,-0.28283 z m 270,0 c 14.9875,-0.15555 39.5125,-0.15555 54.5,0 14.9875,0.15556 2.725,0.28283 -27.25,0.28283 -29.975,0 -42.2375,-0.12727 -27.25,-0.28283 z m -551.9375,-1.93379 c 0.72187,-0.28887 1.58438,-0.25335 1.91667,0.0789 0.33229,0.33229 -0.25834,0.56864 -1.3125,0.52522 -1.16495,-0.048 -1.4019,-0.28494 -0.60417,-0.60416 z m 13,0 c 0.72187,-0.28887 1.58438,-0.25335 1.91667,0.0789 0.33229,0.33229 -0.25834,0.56864 -1.3125,0.52522 -1.16495,-0.048 -1.4019,-0.28494 -0.60417,-0.60416 z m -93.54347,-48.00988 c 0.97297,-0.25354 2.32297,-0.23687 3,0.0371 0.67703,0.27393 -0.11903,0.48137 -1.76903,0.46099 -1.65,-0.0204 -2.20394,-0.2445 -1.23097,-0.49804 z m 7.98097,0.004 c 0.9625,-0.25152 2.5375,-0.25152 3.5,0 0.9625,0.25153 0.175,0.45733 -1.75,0.45733 -1.925,0 -2.7125,-0.2058 -1.75,-0.45733 z m 118,0 c 0.9625,-0.25152 2.5375,-0.25152 3.5,0 0.9625,0.25153 0.175,0.45733 -1.75,0.45733 -1.925,0 -2.7125,-0.2058 -1.75,-0.45733 z m 9,0 c 0.9625,-0.25152 2.5375,-0.25152 3.5,0 0.9625,0.25153 0.175,0.45733 -1.75,0.45733 -1.925,0 -2.7125,-0.2058 -1.75,-0.45733 z M 51.365231,188.5 c 0.0026,-5.5 0.170532,-7.62242 0.373173,-4.71648 0.202642,2.90594 0.200512,7.40594 -0.0047,10 C 51.528425,196.37758 51.362627,194 51.365231,188.5 Z m 404.124499,-60 0.0103,-69 45,-0.01528 45,-0.01529 -44.74316,0.275471 -44.74316,0.275471 L 455.7466,128.76019 455.47946,197.5 Z M 116.75,167.25202 c 8.3875,-0.16726 22.1125,-0.16726 30.5,0 8.3875,0.16726 1.525,0.3041 -15.25,0.3041 -16.775,0 -23.6375,-0.13684 -15.25,-0.3041 z M 429.27236,156 c 0,-2.475 0.19502,-3.4875 0.43337,-2.25 0.23836,1.2375 0.23836,3.2625 0,4.5 -0.23835,1.2375 -0.43337,0.225 -0.43337,-2.25 z M 266.48352,101.75018 266.5,59.5 l 19,-0.03493 19,-0.03493 -18.73916,0.306959 -18.73917,0.306958 -0.27731,41.978163 -0.27731,41.97816 z M 505.25,142.25279 c 7.0125,-0.1719 18.4875,-0.1719 25.5,0 7.0125,0.1719 1.275,0.31255 -12.75,0.31255 -14.025,0 -19.7625,-0.14065 -12.75,-0.31255 z M 185.48317,100 185.5,59.5 l 18.75079,-0.03402 18.7508,-0.03402 -18.4896,0.306041 -18.48959,0.30604 -0.27803,40.227969 -0.27802,40.22798 z m 1321.59573,32.41667 c 0.048,-1.16495 0.285,-1.4019 0.6042,-0.60417 0.2889,0.72187 0.2534,1.58437 -0.079,1.91667 -0.3323,0.33229 -0.5687,-0.25834 -0.5253,-1.3125 z m 2,-24 c 0.048,-1.16495 0.285,-1.4019 0.6042,-0.60417 0.2889,0.72187 0.2534,1.58437 -0.079,1.91667 -0.3323,0.33229 -0.5687,-0.25834 -0.5253,-1.3125 z M 330.19495,100.5 c 0.0204,-1.65 0.2445,-2.203936 0.49804,-1.230968 0.25354,0.972968 0.23687,2.322968 -0.0371,2.999998 -0.27393,0.67703 -0.48137,-0.11903 -0.46099,-1.76903 z M 1395.0789,97.416667 c 0.048,-1.164943 0.285,-1.4019 0.6042,-0.604167 0.2889,0.721875 0.2534,1.584375 -0.079,1.916667 -0.3323,0.332291 -0.5687,-0.258334 -0.5253,-1.3125 z M 1510.1579,92 c 0,-1.375 0.227,-1.9375 0.5044,-1.25 0.2774,0.6875 0.2774,1.8125 0,2.5 -0.2774,0.6875 -0.5044,0.125 -0.5044,-1.25 z m -113.963,-11.5 c 0.02,-1.65 0.2445,-2.203936 0.4981,-1.230968 0.2535,0.972967 0.2369,2.322967 -0.037,3 -0.2739,0.677032 -0.4813,-0.119032 -0.461,-1.769032 z m 115.0573,-10 c 0.011,-2.2 0.2159,-2.982253 0.4551,-1.738341 0.2392,1.243913 0.2301,3.043913 -0.02,4 -0.2503,0.956088 -0.446,-0.06166 -0.4349,-2.261659 z M 83.820132,59.250595 C 98.296205,59.094353 121.69621,59.094491 135.82013,59.250901 149.94406,59.407311 138.1,59.535145 109.5,59.534977 80.9,59.534808 69.34406,59.406837 83.820132,59.250595 Z M 393.8125,57.316886 c 0.72187,-0.288871 1.58438,-0.253344 1.91667,0.07895 0.33229,0.332292 -0.25834,0.568641 -1.3125,0.52522 -1.16495,-0.04798 -1.4019,-0.284941 -0.60417,-0.604167 z"
         id="path6" />
      <path
         style="fill:#7886aa"
         d="m 1188.9582,796.75 c 4.144,-4.41519 5.0418,-5.20909 5.0418,-4.45821 0,0.16049 -2.1375,2.29799 -4.75,4.75 L 1184.5,801.5 Z M 1207.5,778 c 2.7086,-2.75 5.1498,-5 5.4248,-5 0.275,0 -1.7162,2.25 -4.4248,5 -2.7086,2.75 -5.1498,5 -5.4248,5 -0.275,0 1.7162,-2.25 4.4248,-5 z m 18.5,-19.37756 c 0,-0.20765 0.7875,-0.99515 1.75,-1.75 1.5861,-1.24387 1.6214,-1.2085 0.3776,0.37756 -1.3064,1.66575 -2.1276,2.19548 -2.1276,1.37244 z M 1100,723.5 c 1.2917,-1.375 2.5736,-2.5 2.8486,-2.5 0.275,0 -0.5569,1.125 -1.8486,2.5 -1.2917,1.375 -2.5736,2.5 -2.8486,2.5 -0.275,0 0.5569,-1.125 1.8486,-2.5 z m 34.5,-34.5 c 0.9955,-1.1 2.035,-2 2.31,-2 0.275,0 -0.3145,0.9 -1.31,2 -0.9955,1.1 -2.035,2 -2.31,2 -0.275,0 0.3145,-0.9 1.31,-2 z M 149,566.62244 c 0,-0.20765 0.7875,-0.99515 1.75,-1.75 1.58606,-1.24387 1.62143,-1.2085 0.37756,0.37756 C 149.82119,566.91575 149,567.44548 149,566.62244 Z M 280.40499,317.75 278.5,315.5 l 2.25,1.90499 c 2.11444,1.79022 2.70524,2.59501 1.90499,2.59501 -0.18976,0 -1.20226,-1.0125 -2.25,-2.25 z M 280.5,264 c 0.99549,-1.1 2.03498,-2 2.30998,-2 0.275,0 -0.31449,0.9 -1.30998,2 -0.99549,1.1 -2.03498,2 -2.30998,2 -0.275,0 0.31449,-0.9 1.30998,-2 z m 60.37244,-137.75 c -1.24387,-1.58606 -1.2085,-1.62143 0.37756,-0.37756 1.66575,1.30637 2.19548,2.12756 1.37244,2.12756 -0.20765,0 -0.99515,-0.7875 -1.75,-1.75 z"
         id="path5" />
      <path
         style="fill:#536694"
         d="m 444.4681,1043 c 0,-31.625 0.12658,-44.5625 0.28128,-28.75 0.15471,15.8125 0.15471,41.6875 0,57.5 -0.1547,15.8125 -0.28128,2.875 -0.28128,-28.75 z m 30.2819,56.2943 c 1.2375,-0.2384 3.2625,-0.2384 4.5,0 1.2375,0.2383 0.225,0.4333 -2.25,0.4333 -2.475,0 -3.4875,-0.195 -2.25,-0.4333 z m 25.51903,-0.9873 c 0.97297,-0.2535 2.32297,-0.2369 3,0.037 0.67703,0.2739 -0.11903,0.4813 -1.76903,0.461 -1.65,-0.02 -2.20394,-0.2445 -1.23097,-0.4981 z m 16.48097,-0.9693 c 0.6875,-0.2774 1.8125,-0.2774 2.5,0 0.6875,0.2774 0.125,0.5044 -1.25,0.5044 -1.375,0 -1.9375,-0.227 -1.25,-0.5044 z m 14.0625,-1.0208 c 0.72187,-0.2889 1.58438,-0.2534 1.91667,0.079 0.33229,0.3323 -0.25834,0.5687 -1.3125,0.5253 -1.16495,-0.048 -1.4019,-0.285 -0.60417,-0.6042 z M 474.76166,985.29274 c 1.24391,-0.23919 3.04391,-0.23011 4,0.0202 0.95609,0.25029 -0.0617,0.446 -2.26166,0.4349 -2.2,-0.0111 -2.98225,-0.21589 -1.73834,-0.45508 z M 497.75,984.33772 c 0.6875,-0.27741 1.8125,-0.27741 2.5,0 0.6875,0.27741 0.125,0.50439 -1.25,0.50439 -1.375,0 -1.9375,-0.22698 -1.25,-0.50439 z m 16.0625,-1.02083 c 0.72187,-0.28887 1.58438,-0.25335 1.91667,0.0789 0.33229,0.33229 -0.25834,0.56864 -1.3125,0.52522 -1.16495,-0.048 -1.4019,-0.28494 -0.60417,-0.60416 z M 1171.5,813 c 0.9955,-1.1 2.035,-2 2.31,-2 0.275,0 -0.3145,0.9 -1.31,2 -0.9955,1.1 -2.035,2 -2.31,2 -0.275,0 0.3145,-0.9 1.31,-2 z m 26.4582,-25.25 c 4.144,-4.41519 5.0418,-5.20909 5.0418,-4.45821 0,0.16049 -2.1375,2.29799 -4.75,4.75 L 1193.5,792.5 Z M 1223,761.62244 c 0,-0.20765 0.7875,-0.99515 1.75,-1.75 1.5861,-1.24387 1.6214,-1.2085 0.3776,0.37756 -1.3064,1.66575 -2.1276,2.19548 -2.1276,1.37244 z m -141,-21 c 0,-0.20765 0.7875,-0.99515 1.75,-1.75 1.5861,-1.24387 1.6214,-1.2085 0.3776,0.37756 -1.3064,1.66575 -2.1276,2.19548 -2.1276,1.37244 z M 1095.5,728 c 0.9955,-1.1 2.035,-2 2.31,-2 0.275,0 -0.3145,0.9 -1.31,2 -0.9955,1.1 -2.035,2 -2.31,2 -0.275,0 0.3145,-0.9 1.31,-2 z m 43,-43 c 0.9955,-1.1 2.035,-2 2.31,-2 0.275,0 -0.3145,0.9 -1.31,2 -0.9955,1.1 -2.035,2 -2.31,2 -0.275,0 0.3145,-0.9 1.31,-2 z M 69.75,581.33772 c 0.6875,-0.27741 1.8125,-0.27741 2.5,0 0.6875,0.27741 0.125,0.50439 -1.25,0.50439 -1.375,0 -1.9375,-0.22698 -1.25,-0.50439 z m 33.0625,-0.0208 c 0.72187,-0.28887 1.58437,-0.25335 1.91667,0.0789 0.33229,0.33229 -0.25834,0.56864 -1.3125,0.52522 -1.16495,-0.048 -1.4019,-0.28494 -0.60417,-0.60416 z M 660.43355,555.5 c -6.1e-4,-13.75 0.14023,-19.5137 0.31298,-12.80822 0.17275,6.70549 0.17325,17.95549 10e-4,25 -0.17214,7.04452 -0.31348,1.55822 -0.31409,-12.19178 z m -165.12376,-6.24795 c 7.59538,-0.1701 19.74538,-0.16966 27,9.7e-4 7.25461,0.17063 1.04021,0.3098 -13.80979,0.30926 -14.85,-5.3e-4 -20.7856,-0.14014 -13.19021,-0.31023 z M 150.92431,515.25 148.5,512.5 l 2.75,2.42431 c 2.57029,2.26589 3.20859,3.07569 2.42431,3.07569 -0.17912,0 -1.41662,-1.2375 -2.75,-2.75 z m 562.15464,0.16667 c 0.048,-1.16495 0.28494,-1.4019 0.60416,-0.60417 0.28887,0.72187 0.25335,1.58438 -0.0789,1.91667 -0.33229,0.33229 -0.56864,-0.25834 -0.52522,-1.3125 z M 404,506.5 c 1.29175,-1.375 2.57363,-2.5 2.84863,-2.5 0.275,0 -0.55688,1.125 -1.84863,2.5 -1.29175,1.375 -2.57363,2.5 -2.84863,2.5 -0.275,0 0.55688,-1.125 1.84863,-2.5 z M 712.27236,495 c 0,-2.475 0.19502,-3.4875 0.43337,-2.25 0.23836,1.2375 0.23836,3.2625 0,4.5 -0.23835,1.2375 -0.43337,0.225 -0.43337,-2.25 z m -473.96414,-0.74764 c 7.04451,-0.17214 18.29451,-0.17164 25,10e-4 6.70548,0.17275 0.94178,0.31359 -12.80822,0.31298 -13.75,-6.1e-4 -19.2363,-0.14195 -12.19178,-0.31409 z M 659.232,492 c 0,-1.925 0.2058,-2.7125 0.45733,-1.75 0.25152,0.9625 0.25152,2.5375 0,3.5 -0.25153,0.9625 -0.45733,0.175 -0.45733,-1.75 z M 119.07895,480.41667 c 0.048,-1.16495 0.28494,-1.4019 0.60416,-0.60417 0.28887,0.72187 0.25335,1.58438 -0.0789,1.91667 -0.3323,0.33229 -0.56864,-0.25834 -0.52522,-1.3125 z M 156.232,476 c 0,-1.925 0.2058,-2.7125 0.45733,-1.75 0.25152,0.9625 0.25152,2.5375 0,3.5 -0.25153,0.9625 -0.45733,0.175 -0.45733,-1.75 z M 73.75,441.33772 c 0.6875,-0.27741 1.8125,-0.27741 2.5,0 0.6875,0.27741 0.125,0.50439 -1.25,0.50439 -1.375,0 -1.9375,-0.22698 -1.25,-0.50439 z m 257,0 c 0.6875,-0.27741 1.8125,-0.27741 2.5,0 0.6875,0.27741 0.125,0.50439 -1.25,0.50439 -1.375,0 -1.9375,-0.22698 -1.25,-0.50439 z m -23.48625,-50.0553 c 1.52006,-0.22986 3.77006,-0.22371 5,0.0136 1.22994,0.23736 -0.0138,0.42542 -2.76375,0.41792 -2.75,-0.008 -3.75631,-0.20172 -2.23625,-0.43157 z m 452.48625,0.0118 c 1.2375,-0.23836 3.2625,-0.23836 4.5,0 1.2375,0.23835 0.225,0.43337 -2.25,0.43337 -2.475,0 -3.4875,-0.19502 -2.25,-0.43337 z M 121.47323,320 c 0,-38.225 0.12435,-53.8625 0.27634,-34.75 0.15199,19.1125 0.15199,50.3875 0,69.5 -0.15199,19.1125 -0.27634,3.475 -0.27634,-34.75 z m 944.92927,54 c 0,-8.525 0.1534,-12.0125 0.3408,-7.75 0.1875,4.2625 0.1875,11.2375 0,15.5 -0.1874,4.2625 -0.3408,0.775 -0.3408,-7.75 z M 368.19495,347.5 c 0.0204,-1.65 0.2445,-2.20394 0.49804,-1.23097 0.25354,0.97297 0.23687,2.32297 -0.0371,3 -0.27393,0.67703 -0.48137,-0.11903 -0.46099,-1.76903 z m 452.884,-12.08333 c 0.048,-1.16495 0.28494,-1.4019 0.60416,-0.60417 0.28887,0.72187 0.25335,1.58438 -0.0789,1.91667 -0.33229,0.33229 -0.56864,-0.25834 -0.52522,-1.3125 z M 207.19495,309.5 c 0.0204,-1.65 0.2445,-2.20394 0.49804,-1.23097 0.25354,0.97297 0.23687,2.32297 -0.0371,3 -0.27393,0.67703 -0.48137,-0.11903 -0.46099,-1.76903 z m -52.94277,-5 c 0.0111,-2.2 0.21589,-2.98225 0.45508,-1.73834 0.23919,1.24391 0.23011,3.04391 -0.0202,4 -0.25029,0.95609 -0.446,-0.0617 -0.4349,-2.26166 z M 1023.25,303.25279 c 7.0125,-0.1719 18.4875,-0.1719 25.5,0 7.0125,0.1719 1.275,0.31255 -12.75,0.31255 -14.025,0 -19.7625,-0.14065 -12.75,-0.31255 z M 393.19942,281.25617 c 4.78468,-0.18291 12.88468,-0.18377 18,-0.002 5.11532,0.18186 1.20058,0.33151 -8.69942,0.33256 -9.9,0.001 -14.08526,-0.14774 -9.30058,-0.33065 z m 72.55058,-10e-4 c 5.0875,-0.18149 13.4125,-0.18149 18.5,0 5.0875,0.18149 0.925,0.32999 -9.25,0.32999 -10.175,0 -14.3375,-0.1485 -9.25,-0.32999 z m 107.68991,-0.55092 c -0.27352,-0.71279 -0.35851,-7.80029 -0.18887,-15.75 l 0.30844,-14.45401 0.22026,15.22693 0.22026,15.22692 17.75,0.29767 17.75,0.29768 -17.78138,0.2254 c -13.80325,0.17497 -17.89265,-0.0645 -18.27871,-1.07059 z m 81.31009,0.55092 c 5.0875,-0.18149 13.4125,-0.18149 18.5,0 5.0875,0.18149 0.925,0.32999 -9.25,0.32999 -10.175,0 -14.3375,-0.1485 -9.25,-0.32999 z m 188.68991,-0.55092 c -0.27352,-0.71279 -0.35851,-7.80029 -0.18887,-15.75 l 0.30844,-14.45401 0.22026,15.22693 0.22026,15.22692 17.75,0.29767 17.75,0.29768 -17.78138,0.2254 c -13.80325,0.17497 -17.89265,-0.0645 -18.27871,-1.07059 z m 81.31009,0.55092 c 5.0875,-0.18149 13.4125,-0.18149 18.5,0 5.0875,0.18149 0.925,0.32999 -9.25,0.32999 -10.175,0 -14.3375,-0.1485 -9.25,-0.32999 z m -600.98834,-2.96219 c 1.24391,-0.23919 3.04391,-0.23011 4,0.0202 0.95609,0.25029 -0.0617,0.446 -2.26166,0.4349 -2.2,-0.0111 -2.98225,-0.21589 -1.73834,-0.45508 z m -0.49791,-30.01032 c 1.52006,-0.22986 3.77006,-0.22371 5,0.0136 1.22994,0.23736 -0.0138,0.42542 -2.76375,0.41792 -2.75,-0.008 -3.75631,-0.20172 -2.23625,-0.43157 z M 201.43709,185.75 198.5,182.5 l 3.25,2.93709 c 3.02946,2.73778 3.70965,3.56291 2.93709,3.56291 -0.1721,0 -1.6346,-1.4625 -3.25,-3.25 z m 189.64186,-27.33333 c 0.048,-1.16495 0.28494,-1.4019 0.60416,-0.60417 0.28887,0.72187 0.25335,1.58437 -0.0789,1.91667 -0.33229,0.33229 -0.56864,-0.25834 -0.52522,-1.3125 z m -88,-14 c 0.048,-1.16495 0.28494,-1.4019 0.60416,-0.60417 0.28887,0.72187 0.25335,1.58437 -0.0789,1.91667 -0.33229,0.33229 -0.56864,-0.25834 -0.52522,-1.3125 z M 505.25,112.25279 c 7.0125,-0.1719 18.4875,-0.1719 25.5,0 7.0125,0.1719 1.275,0.31255 -12.75,0.31255 -14.025,0 -19.7625,-0.14065 -12.75,-0.31255 z m 1003.8289,-7.83612 c 0.048,-1.16495 0.285,-1.4019 0.6042,-0.60417 0.2889,0.72187 0.2534,1.58437 -0.079,1.91667 -0.3323,0.33229 -0.5687,-0.25834 -0.5253,-1.3125 z m -114,-3 c 0.048,-1.16495 0.285,-1.4019 0.6042,-0.60417 0.2889,0.72187 0.2534,1.58437 -0.079,1.91667 -0.3323,0.33229 -0.5687,-0.25834 -0.5253,-1.3125 z M 57.402488,75 c 0,-8.525 0.153369,-12.0125 0.34082,-7.75 0.187451,4.2625 0.187451,11.2375 0,15.5 -0.187451,4.2625 -0.34082,0.775 -0.34082,-7.75 z M 1510.1579,88 c 0,-1.375 0.227,-1.9375 0.5044,-1.25 0.2774,0.6875 0.2774,1.8125 0,2.5 -0.2774,0.6875 -0.5044,0.125 -0.5044,-1.25 z M 384.26375,87.282419 c 1.52006,-0.229855 3.77006,-0.223712 5,0.01365 1.22994,0.237362 -0.0138,0.425424 -2.76375,0.417917 -2.75,-0.0075 -3.75631,-0.201713 -2.23625,-0.431567 z M 1396.1579,85 c 0,-1.375 0.227,-1.9375 0.5044,-1.25 0.2774,0.6875 0.2774,1.8125 0,2.5 -0.2774,0.6875 -0.5044,0.125 -0.5044,-1.25 z M 341.5,73 c 0.99549,-1.1 2.03498,-2 2.30998,-2 0.275,0 -0.31449,0.9 -1.30998,2 -0.99549,1.1 -2.03498,2 -2.30998,2 -0.275,0 0.31449,-0.9 1.30998,-2 z m 1169.7522,-9.5 c 0.011,-2.2 0.2159,-2.982253 0.4551,-1.738341 0.2392,1.243913 0.2301,3.043913 -0.02,4 -0.2503,0.956088 -0.446,-0.06166 -0.4349,-2.261659 z M 1397.232,63 c 0,-1.925 0.2058,-2.7125 0.4573,-1.75 0.2516,0.9625 0.2516,2.5375 0,3.5 -0.2515,0.9625 -0.4573,0.175 -0.4573,-1.75 z M 383.75,57.276604 c 1.7875,-0.221826 4.7125,-0.221826 6.5,0 1.7875,0.221827 0.325,0.403322 -3.25,0.403322 -3.575,0 -5.0375,-0.181495 -3.25,-0.403322 z"
         id="path4" />
      <path
         style="fill:#25407c"
         d="m 1151,831.62244 c 0,-0.20765 0.7875,-0.99515 1.75,-1.75 1.5861,-1.24387 1.6214,-1.2085 0.3776,0.37756 -1.3064,1.66575 -2.1276,2.19548 -2.1276,1.37244 z m 10,-9 c 0,-0.20765 0.7875,-0.99515 1.75,-1.75 1.5861,-1.24387 1.6214,-1.2085 0.3776,0.37756 -1.3064,1.66575 -2.1276,2.19548 -2.1276,1.37244 z M 1175.5,809 c 0.9955,-1.1 2.035,-2 2.31,-2 0.275,0 -0.3145,0.9 -1.31,2 -0.9955,1.1 -2.035,2 -2.31,2 -0.275,0 0.3145,-0.9 1.31,-2 z m 44.5,-44.5 c 1.2917,-1.375 2.5736,-2.5 2.8486,-2.5 0.275,0 -0.5569,1.125 -1.8486,2.5 -1.2917,1.375 -2.5736,2.5 -2.8486,2.5 -0.275,0 0.5569,-1.125 1.8486,-2.5 z m 12,-12.87756 c 0,-0.20765 0.7875,-0.99515 1.75,-1.75 1.5861,-1.24387 1.6214,-1.2085 0.3776,0.37756 -1.3064,1.66575 -2.1276,2.19548 -2.1276,1.37244 z m -141,-19 c 0,-0.20765 0.7875,-0.99515 1.75,-1.75 1.5861,-1.24387 1.6214,-1.2085 0.3776,0.37756 -1.3064,1.66575 -2.1276,2.19548 -2.1276,1.37244 z M 1118,706.5 c 3.5432,-3.575 6.6672,-6.5 6.9422,-6.5 0.275,0 -2.399,2.925 -5.9422,6.5 -3.5432,3.575 -6.6672,6.5 -6.9422,6.5 -0.275,0 2.399,-2.925 5.9422,-6.5 z m 24.5,-25.5 c 0.9955,-1.1 2.035,-2 2.31,-2 0.275,0 -0.3145,0.9 -1.31,2 -0.9955,1.1 -2.035,2 -2.31,2 -0.275,0 0.3145,-0.9 1.31,-2 z m 9.5,-10.37756 c 0,-0.20765 0.7875,-0.99515 1.75,-1.75 1.5861,-1.24387 1.6214,-1.2085 0.3776,0.37756 -1.3064,1.66575 -2.1276,2.19548 -2.1276,1.37244 z m 8,-9 c 0,-0.20765 0.7875,-0.99515 1.75,-1.75 1.5861,-1.24387 1.6214,-1.2085 0.3776,0.37756 -1.3064,1.66575 -2.1276,2.19548 -2.1276,1.37244 z m -788,-164 c 0,-0.20765 0.7875,-0.99515 1.75,-1.75 1.58606,-1.24387 1.62143,-1.2085 0.37756,0.37756 C 372.82119,497.91575 372,498.44548 372,497.62244 Z M 146.92431,454.25 144.5,451.5 l 2.75,2.42431 c 2.57029,2.26589 3.20859,3.07569 2.42431,3.07569 -0.17912,0 -1.41662,-1.2375 -2.75,-2.75 z m 257,0 -2.42431,-2.75 2.75,2.42431 c 2.57029,2.26589 3.20859,3.07569 2.42431,3.07569 -0.17912,0 -1.41662,-1.2375 -2.75,-2.75 z m 315.48068,-77.5 -1.90499,-2.25 2.25,1.90499 c 1.2375,1.04774 2.25,2.06024 2.25,2.25 0,0.80025 -0.80479,0.20945 -2.59501,-1.90499 z M 776.5,357 c 0.99549,-1.1 2.03498,-2 2.30998,-2 0.275,0 -0.31449,0.9 -1.30998,2 -0.99549,1.1 -2.03498,2 -2.30998,2 -0.275,0 0.31449,-0.9 1.30998,-2 z M 326.87244,342.25 c -1.24387,-1.58606 -1.2085,-1.62143 0.37756,-0.37756 1.66575,1.30637 2.19548,2.12756 1.37244,2.12756 -0.20765,0 -0.99515,-0.7875 -1.75,-1.75 z M 258.5,166 c 0.99549,-1.1 2.03498,-2 2.30998,-2 0.275,0 -0.31449,0.9 -1.30998,2 -0.99549,1.1 -2.03498,2 -2.30998,2 -0.275,0 0.31449,-0.9 1.30998,-2 z m 129.37244,-14.75 c -1.24387,-1.58606 -1.2085,-1.62143 0.37756,-0.37756 1.66575,1.30637 2.19548,2.12756 1.37244,2.12756 -0.20765,0 -0.99515,-0.7875 -1.75,-1.75 z"
         id="path3" />
      <path
         style="fill:#113173"
         d="m 445,1043.3102 v -56.99267 l 25.25,-0.63468 C 666.78876,980.74266 856.71973,914.73137 1014.5,796.52652 1220.1994,642.42191 1354.7408,414.53251 1389.4071,161.5 c 2.745,-20.03625 5.4929,-48.72816 6.6082,-69 0.6052,-11 1.3352,-22.8125 1.6221,-26.25 L 1398.1592,60 H 1454.5796 1511 v 9.267066 c 0,18.805305 -3.4798,62.998214 -7.5776,96.232934 -20.186,163.71941 -81.0322,325.4376 -174.2029,463 -56.6382,83.62379 -124.947,159.25052 -201.7638,223.37867 C 991.83999,965.09329 830.81003,1042.899 659.5,1077.9832 c -62.69968,12.8409 -123.04392,19.6854 -190.75,21.6356 L 445,1100.3029 Z M 71.5,581.48824 c -1.1,-0.21177 -5.9375,-0.67366 -10.75,-1.02641 L 52,579.82046 v -67.80324 c 0,-57.16941 0.219396,-67.88743 1.39891,-68.34005 3.646866,-1.39944 35.540389,-2.90259 50.07395,-2.36001 23.25816,0.86831 34.03608,4.10838 43.35966,13.03485 6.29088,6.02293 8.41488,10.74226 8.96256,19.91397 0.42877,7.18036 0.22512,8.25068 -2.70057,14.19361 -3.32636,6.75679 -7.32227,10.61576 -15.04614,14.53053 l -4.45164,2.25626 6.11383,2.77528 c 16.94444,7.69167 24.7417,24.37631 19.44545,41.60948 -4.91811,16.00273 -17.47482,25.35068 -40.15601,29.89448 -6.97514,1.39736 -42.756743,2.87579 -47.5,1.96262 z m 41.94429,-29.50655 c 5.94181,-3.05945 8.55829,-7.48683 8.54912,-14.46609 -0.007,-5.26387 -1.99104,-9.42478 -5.74952,-12.05733 C 112.86354,523.09059 103.03774,521 95.289901,521 H 88 v 17.11342 17.11342 l 10.312279,-0.38173 c 8.541051,-0.31617 11.140111,-0.80799 15.132011,-2.86342 z m -4.13616,-58.57101 c 11.77333,-4.01158 14.01377,-17.92805 3.83004,-23.79021 -3.69919,-2.1294 -15.511965,-3.33573 -21.557876,-2.20151 L 88,468.09063 V 481.54531 495 h 8.321861 c 4.981849,0 10.193939,-0.63788 12.986269,-1.58932 z M 188,511 v -69 h 45 45 v 15 15 H 251.5 225 v 11.5 11.5 h 25 25 v 14.5 14.5 h -25 -25 v 13 13 h 28 28 v 15 15 H 234.5 188 Z m 122,1.10699 c 0,-57.24632 0.21937,-67.97719 1.39891,-68.42982 3.53837,-1.3578 35.49339,-2.90616 49.09132,-2.37869 23.91938,0.92785 35.97112,4.95509 45.26734,15.12665 6.53934,7.15508 8.71981,13.29118 8.73271,24.57487 0.008,7.14255 -0.41829,9.41318 -2.67034,14.21807 -3.37499,7.20075 -10.30268,14.66966 -16.45802,17.74379 l -4.74677,2.37065 2.4011,1.58375 c 9.35864,6.17286 13.07033,13.58934 20.51199,40.98588 3.04798,11.22118 5.77759,20.78368 6.06579,21.25 C 419.88223,579.61846 411.62088,580 401.23546,580 H 382.3529 l -3.1391,-9.75 c -1.7265,-5.3625 -4.34277,-14.61276 -5.81393,-20.55614 -4.17943,-16.88452 -7.69692,-20.69242 -19.83383,-21.47132 L 346,527.73699 V 553.86849 580 h -18 -18 z m 59.64923,-12.88523 c 5.82338,-3.03095 8.35168,-7.5259 8.34703,-14.83979 -0.008,-12.02636 -6.37912,-16.66172 -22.22592,-16.16977 L 346.5,468.5 l -0.27471,16.8673 -0.27471,16.8673 9.77471,-0.42663 c 7.46973,-0.32602 10.75314,-0.93588 13.92394,-2.58621 z M 444,511 v -69 h 18.5 18.5 v 54 54 h 27 27 v 15 15 H 489.5 444 Z m 113,0 v -69 h 18.5 18.5 v 69 69 H 575.5 557 Z m 70,0 v -69 h 21.38499 c 21.22529,0 21.39627,0.0172 22.89542,2.30521 4.05453,6.18799 33.93351,66.55862 37.71077,76.19479 5.35237,13.65445 6.4659,14.99678 5.5775,6.72357 -1.24595,-11.603 -2.50268,-43.55551 -2.53581,-64.47357 L 712,442 h 17 17 v 69.02114 69.02114 l -19.57868,-0.27114 -19.57868,-0.27114 -16.8997,-33 c -9.29483,-18.15 -19.66927,-39.3 -23.05431,-47 -3.38503,-7.7 -6.43226,-14.3152 -6.77162,-14.70044 -0.33936,-0.38524 -0.46097,20.87726 -0.27026,47.25 L 660.1935,580 H 643.59675 627 Z M 294.5,390.28298 c -7.45424,-1.03703 -25.5,-6.41493 -25.5,-7.59937 0,-0.52671 6.07244,-27.16168 6.44442,-28.26656 0.23093,-0.68591 4.15747,0.18579 10.71009,2.37768 17.13792,5.73272 35.24215,5.69883 41.58018,-0.0778 4.94389,-4.506 3.50338,-12.556 -2.96045,-16.54386 -1.80083,-1.11102 -8.64709,-4.09527 -15.21391,-6.63167 -20.95644,-8.0943 -30.12269,-14.84194 -35.77976,-26.3389 -2.97623,-6.04867 -3.28057,-7.50858 -3.28057,-15.73704 0,-8.47746 0.2468,-9.56921 3.77871,-16.71521 6.15891,-12.46112 16.09256,-19.66449 33.02148,-23.94545 11.41378,-2.88631 33.23287,-2.19128 45.47319,1.4485 4.55036,1.35309 8.58955,2.77632 8.97596,3.16274 0.59661,0.59661 -1.98357,12.09998 -5.76572,25.70567 l -1.00677,3.62169 -6.45918,-2.34456 c -9.43782,-3.42575 -22.67418,-4.92331 -30.02577,-3.39713 -7.90163,1.64037 -11.99094,5.53567 -11.1636,10.63394 0.3162,1.94856 1.13093,4.21279 1.8105,5.03162 1.69414,2.04131 9.368,5.8284 20.13966,9.93903 26.94557,10.28281 37.54804,21.25724 38.52532,39.87685 1.2181,23.20782 -13.04897,39.3704 -39.80378,45.09209 -6.03776,1.29121 -26.23838,1.718 -33.5,0.70777 z m 447.6906,-1.24786 c -9.9088,-2.6773 -16.166,-6.28011 -22.5731,-12.99728 -6.32611,-6.63227 -9.93991,-13.33155 -12.88361,-23.88373 -2.01241,-7.2138 -2.15605,-10.34345 -2.49705,-54.40411 L 703.87502,251 h 18.52504 18.52504 l 0.28745,46.75 0.28745,46.75 2.62919,5.60696 c 1.5909,3.39273 4.12705,6.74945 6.42211,8.5 3.29116,2.51033 4.79537,2.93103 11.37081,3.18021 9.69764,0.36751 14.2946,-1.97251 18.26611,-9.29811 C 784.51224,344.51326 785,338.49997 785,293.16809 V 251 h 18.587 18.587 l -0.44881,45.25 c -0.38547,38.86285 -0.69731,46.23807 -2.20923,52.25 -5.17036,20.55911 -15.89369,32.9816 -33.90691,39.27956 -10.10859,3.53427 -32.57984,4.18409 -43.41845,1.25556 z M 52,320 V 251 H 70.5 89 v 69 69 H 70.5 52 Z m 70,-0.0195 V 250.961 l 21.62376,0.2695 21.62376,0.2695 14.83365,28.5 c 12.49583,24.00834 23.11214,46.61157 27.89375,59.38869 1.78489,4.76947 2.063,2.5039 0.97748,-7.96292 -0.56618,-5.45918 -1.30308,-25.78827 -1.63758,-45.17577 L 206.70665,251 H 223.85332 241 v 69.02114 69.02114 l -19.67827,-0.27114 -19.67827,-0.27114 -18.28089,-36 c -10.0545,-19.8 -20.37796,-40.95 -22.94103,-47 -2.56307,-6.05 -4.96435,-11.3354 -5.33617,-11.74534 -0.37183,-0.40993 -0.487,20.85257 -0.25594,47.25 L 155.24953,389 H 138.62477 122 Z M 420,335 V 281 H 402.5 385 v -15 -15 h 54 54 v 15 15 h -18 -18 v 54 54 H 438.5 420 Z m 95,-15 v -69 h 18.5 18.5 v 69 69 H 533.5 515 Z m 94,15 V 281 H 591.5 574 v -15 -15 h 54 54 v 15 15 h -18 -18 v 54 54 H 627.5 609 Z m 270,0 V 281 H 861.5 844 v -15 -15 h 54 54 v 15 15 h -18 -18 v 54 54 H 897.5 879 Z m 95,-15 v -69 h 45 45 v 15 15 h -26.5 -26.5 v 11.5 11.5 h 25 25 v 14.5 14.5 h -25 -25 v 13 13 h 27.5 27.5 v 15 15 h -46 -46 z M 226.37453,198.56996 c -19.32183,-4.39573 -32.4872,-17.78132 -38.02219,-38.65816 -1.45318,-5.48111 -1.75635,-13.19767 -2.08862,-53.1618 L 185.87502,60 H 204.43751 223 v 43.95078 c 0,27.22971 0.40395,45.83432 1.06176,48.90161 C 226.57838,164.58695 233.97758,171 245,171 c 11.32376,0 17.49417,-5.43263 20.44449,-18 1.24283,-5.29403 1.52869,-14.52432 1.54073,-49.75 L 267,60 h 18.5 18.5 v 39.776234 c 0,21.876926 -0.46337,43.589426 -1.02972,48.249996 -3.17132,26.09751 -14.33188,41.33774 -35.57889,48.58452 -6.71367,2.28985 -9.90615,2.74088 -21.39139,3.02215 -9.06465,0.22199 -15.51249,-0.12723 -19.62547,-1.06294 z m 122.69385,-0.69129 c -5.18739,-1.08863 -11.63136,-2.92564 -14.31995,-4.08224 -4.03208,-1.73455 -4.80289,-2.47017 -4.40056,-4.19967 0.26828,-1.15322 1.73439,-7.72176 3.25802,-14.59676 1.52364,-6.875 2.84148,-12.61836 2.92853,-12.76302 0.0871,-0.14466 3.26493,0.9088 7.06193,2.34102 17.98272,6.78302 38.48868,7.17996 45.45029,0.87979 2.7442,-2.48346 3.45525,-7.58657 1.56611,-11.23976 -2.09201,-4.04551 -6.3414,-6.51479 -20.35173,-11.82624 -20.07315,-7.60993 -29.90934,-14.86941 -35.48045,-26.18594 -2.98925,-6.07203 -3.27672,-7.46488 -3.23722,-15.68482 0.0596,-12.393107 2.67494,-18.915363 10.86914,-27.105575 C 353.3504,62.482874 366.38983,58.034727 387.5,58.034727 c 16.60899,0 35.55093,4.164651 35.45665,7.79564 -0.0556,2.139375 -6.47684,26.023156 -7.18755,26.733867 -0.29461,0.294613 -3.17568,-0.349551 -6.40238,-1.431475 -8.20354,-2.750683 -21.34728,-4.490576 -27.81693,-3.682247 -13.01519,1.62614 -17.96599,11.789029 -8.78773,18.039238 2.05587,1.4 8.46294,4.38456 14.23794,6.63234 22.76546,8.86093 33.09508,16.26326 38.74284,27.76361 2.47909,5.04807 2.75716,6.6754 2.75716,16.13533 0,9.81173 -0.21538,10.95853 -3.1948,17.01059 -1.75714,3.56926 -5.35714,8.65458 -8,11.30071 -6.04751,6.05499 -18.22008,12.08965 -28.51304,14.13558 -10.69674,2.12619 -28.00819,1.8694 -39.72378,-0.58924 z M 52,188.34988 v -9.65012 L 82.040083,135.82721 C 98.562129,112.24731 112.33527,92.289865 112.64707,91.477332 113.13869,90.196208 109.54743,90 85.606989,90 H 58 V 75 60 h 51.5 51.5 l -0.0133,10.25 -0.0133,10.25 -29.98666,43.26515 C 114.494,147.56098 101,167.24848 101,167.51515 101,167.78182 114.725,168 131.5,168 H 162 v 15 15 H 107 52 Z M 456,129 V 60 h 45 45 V 75 90 H 519.5 493 v 11.5 11.5 h 25 25 v 14.5 14.5 h -25 -25 v 13 13 h 28 28 v 15 15 H 502.5 456 Z"
         id="path2" />
    </g>
  </g>
</svg>
