<?xml version="1.0" encoding="utf-8"?>
<svg xmlns="http://www.w3.org/2000/svg" xmlns:xlink="http://www.w3.org/1999/xlink" width="250" height="250" viewBox="0 0 1000 1000">
<defs>
  <clipPath id="clip500">
    <rect x="0" y="0" width="1000" height="1000"/>
  </clipPath>
</defs>
<path clip-path="url(#clip500)" d="
M0 1000 L1000 1000 L1000 0 L0 0  Z
  " fill="#000000" fill-rule="evenodd" fill-opacity="0"/>
<defs>
  <clipPath id="clip501">
    <rect x="200" y="100" width="701" height="701"/>
  </clipPath>
</defs>
<defs>
  <clipPath id="clip502">
    <rect x="197" y="47" width="756" height="761"/>
  </clipPath>
</defs>
<path clip-path="url(#clip500)" d="
M197.554 807.58 L952.756 807.58 L952.756 47.2441 L197.554 47.2441  Z
  " fill="#e5e9f0" fill-rule="evenodd" fill-opacity="1"/>
<polyline clip-path="url(#clip502)" style="stroke:#ffffff; stroke-linecap:butt; stroke-linejoin:round; stroke-width:4; stroke-opacity:1; fill:none" points="
  298.089,807.58 298.089,47.2441 
  "/>
<polyline clip-path="url(#clip502)" style="stroke:#ffffff; stroke-linecap:butt; stroke-linejoin:round; stroke-width:4; stroke-opacity:1; fill:none" points="
  456.412,807.58 456.412,47.2441 
  "/>
<polyline clip-path="url(#clip502)" style="stroke:#ffffff; stroke-linecap:butt; stroke-linejoin:round; stroke-width:4; stroke-opacity:1; fill:none" points="
  614.736,807.58 614.736,47.2441 
  "/>
<polyline clip-path="url(#clip502)" style="stroke:#ffffff; stroke-linecap:butt; stroke-linejoin:round; stroke-width:4; stroke-opacity:1; fill:none" points="
  773.059,807.58 773.059,47.2441 
  "/>
<polyline clip-path="url(#clip502)" style="stroke:#ffffff; stroke-linecap:butt; stroke-linejoin:round; stroke-width:4; stroke-opacity:1; fill:none" points="
  931.382,807.58 931.382,47.2441 
  "/>
<polyline clip-path="url(#clip502)" style="stroke:#ffffff; stroke-linecap:butt; stroke-linejoin:round; stroke-width:2; stroke-opacity:1; fill:none" points="
  218.927,807.58 218.927,47.2441 
  "/>
<polyline clip-path="url(#clip502)" style="stroke:#ffffff; stroke-linecap:butt; stroke-linejoin:round; stroke-width:2; stroke-opacity:1; fill:none" points="
  377.251,807.58 377.251,47.2441 
  "/>
<polyline clip-path="url(#clip502)" style="stroke:#ffffff; stroke-linecap:butt; stroke-linejoin:round; stroke-width:2; stroke-opacity:1; fill:none" points="
  535.574,807.58 535.574,47.2441 
  "/>
<polyline clip-path="url(#clip502)" style="stroke:#ffffff; stroke-linecap:butt; stroke-linejoin:round; stroke-width:2; stroke-opacity:1; fill:none" points="
  693.897,807.58 693.897,47.2441 
  "/>
<polyline clip-path="url(#clip502)" style="stroke:#ffffff; stroke-linecap:butt; stroke-linejoin:round; stroke-width:2; stroke-opacity:1; fill:none" points="
  852.221,807.58 852.221,47.2441 
  "/>
<polyline clip-path="url(#clip500)" style="stroke:#ffffff; stroke-linecap:butt; stroke-linejoin:round; stroke-width:4; stroke-opacity:1; fill:none" points="
  197.554,807.58 952.756,807.58 
  "/>
<polyline clip-path="url(#clip500)" style="stroke:#333333; stroke-linecap:butt; stroke-linejoin:round; stroke-width:4; stroke-opacity:1; fill:none" points="
  298.089,807.58 298.089,826.477 
  "/>
<polyline clip-path="url(#clip500)" style="stroke:#333333; stroke-linecap:butt; stroke-linejoin:round; stroke-width:4; stroke-opacity:1; fill:none" points="
  456.412,807.58 456.412,826.477 
  "/>
<polyline clip-path="url(#clip500)" style="stroke:#333333; stroke-linecap:butt; stroke-linejoin:round; stroke-width:4; stroke-opacity:1; fill:none" points="
  614.736,807.58 614.736,826.477 
  "/>
<polyline clip-path="url(#clip500)" style="stroke:#333333; stroke-linecap:butt; stroke-linejoin:round; stroke-width:4; stroke-opacity:1; fill:none" points="
  773.059,807.58 773.059,826.477 
  "/>
<polyline clip-path="url(#clip500)" style="stroke:#333333; stroke-linecap:butt; stroke-linejoin:round; stroke-width:4; stroke-opacity:1; fill:none" points="
  931.382,807.58 931.382,826.477 
  "/>
<polyline clip-path="url(#clip500)" style="stroke:#333333; stroke-linecap:butt; stroke-linejoin:round; stroke-width:4; stroke-opacity:1; fill:none" points="
  218.927,807.58 218.927,817.029 
  "/>
<polyline clip-path="url(#clip500)" style="stroke:#333333; stroke-linecap:butt; stroke-linejoin:round; stroke-width:4; stroke-opacity:1; fill:none" points="
  377.251,807.58 377.251,817.029 
  "/>
<polyline clip-path="url(#clip500)" style="stroke:#333333; stroke-linecap:butt; stroke-linejoin:round; stroke-width:4; stroke-opacity:1; fill:none" points="
  535.574,807.58 535.574,817.029 
  "/>
<polyline clip-path="url(#clip500)" style="stroke:#333333; stroke-linecap:butt; stroke-linejoin:round; stroke-width:4; stroke-opacity:1; fill:none" points="
  693.897,807.58 693.897,817.029 
  "/>
<polyline clip-path="url(#clip500)" style="stroke:#333333; stroke-linecap:butt; stroke-linejoin:round; stroke-width:4; stroke-opacity:1; fill:none" points="
  852.221,807.58 852.221,817.029 
  "/>
<path clip-path="url(#clip500)" d="M289.248 857.38 Q289.248 856.58 289.313 856.342 Q289.4 856.105 289.746 855.737 L298.24 846.27 Q302.888 841.039 302.888 836.478 Q302.888 833.516 301.331 831.398 Q299.797 829.28 296.965 829.28 Q295.02 829.28 293.377 830.469 Q291.734 831.657 290.978 833.776 Q291.107 833.733 291.561 833.733 Q292.664 833.733 293.269 834.424 Q293.896 835.116 293.896 836.045 Q293.896 837.234 293.118 837.818 Q292.361 838.38 291.604 838.38 Q291.302 838.38 290.891 838.315 Q290.502 838.25 289.875 837.645 Q289.248 837.018 289.248 835.916 Q289.248 832.825 291.583 830.361 Q293.939 827.896 297.527 827.896 Q301.591 827.896 304.25 830.317 Q306.93 832.717 306.93 836.478 Q306.93 837.796 306.519 839.007 Q306.13 840.196 305.59 841.125 Q305.071 842.054 303.644 843.546 Q302.218 845.037 301.072 846.097 Q299.926 847.156 297.354 849.404 L292.664 853.965 L300.64 853.965 Q304.531 853.965 304.833 853.619 Q305.265 852.992 305.806 849.685 L306.93 849.685 L305.676 857.38 L289.248 857.38 Z" fill="#000000" fill-rule="evenodd" fill-opacity="1" /><path clip-path="url(#clip500)" d="M446.599 850.074 L446.599 848.712 L460.195 827.94 Q460.541 827.399 461.081 827.421 Q461.578 827.421 461.687 827.615 Q461.795 827.81 461.795 828.566 L461.795 848.712 L466.226 848.712 L466.226 850.074 L461.795 850.074 L461.795 853.921 Q461.795 855.197 462.313 855.607 Q462.854 856.018 465.145 856.018 L466.075 856.018 L466.075 857.38 Q464.259 857.25 460.065 857.25 Q455.894 857.25 454.078 857.38 L454.078 856.018 L455.007 856.018 Q457.299 856.018 457.839 855.629 Q458.379 855.218 458.379 853.921 L458.379 850.074 L446.599 850.074 M447.853 848.712 L458.639 848.712 L458.639 832.198 L447.853 848.712 Z" fill="#000000" fill-rule="evenodd" fill-opacity="1" /><path clip-path="url(#clip500)" d="M605.549 843.395 Q605.549 836.434 609.094 832.176 Q612.639 827.896 617.2 827.896 Q619.859 827.896 621.328 829.258 Q622.82 830.598 622.82 832.673 Q622.82 833.819 622.15 834.316 Q621.48 834.813 620.788 834.813 Q619.988 834.813 619.361 834.273 Q618.735 833.733 618.735 832.76 Q618.735 830.771 621.177 830.771 Q620.031 828.999 617.286 828.999 Q616.443 828.999 615.579 829.258 Q614.714 829.496 613.59 830.317 Q612.466 831.139 611.601 832.436 Q610.737 833.733 610.132 836.175 Q609.526 838.618 609.526 841.795 L609.526 842.854 Q611.342 838.466 615.06 838.488 Q618.778 838.488 621.35 841.32 Q623.922 844.151 623.922 848.345 Q623.922 852.646 621.242 855.499 Q618.562 858.353 614.801 858.353 Q613.115 858.353 611.58 857.639 Q610.067 856.948 608.64 855.348 Q607.235 853.748 606.392 850.679 Q605.549 847.61 605.549 843.395 M609.613 847.372 Q609.613 851.717 610.413 853.792 Q610.542 854.138 610.823 854.613 Q611.126 855.089 611.623 855.715 Q612.142 856.321 612.985 856.731 Q613.828 857.12 614.801 857.12 Q617.762 857.12 619.188 854.246 Q619.945 852.646 619.945 848.301 Q619.945 843.87 619.145 842.249 Q617.783 839.504 615.017 839.504 Q613.158 839.504 611.861 840.779 Q610.586 842.054 610.088 843.762 Q609.613 845.47 609.613 847.372 Z" fill="#000000" fill-rule="evenodd" fill-opacity="1" /><path clip-path="url(#clip500)" d="M763.872 850.701 Q763.872 845.751 770.249 842.552 Q767.504 840.693 767.007 840.152 Q765.061 837.991 765.061 835.289 Q765.061 832.198 767.396 830.058 Q769.752 827.896 773.081 827.896 Q776.258 827.896 778.657 829.734 Q781.057 831.571 781.057 834.489 Q781.057 838.596 775.696 841.363 Q779.241 843.568 780.084 844.497 Q782.246 846.896 782.246 849.944 Q782.246 853.489 779.522 855.932 Q776.798 858.353 773.037 858.353 Q769.363 858.353 766.618 856.213 Q763.872 854.073 763.872 850.701 M766.077 850.701 Q766.077 853.446 768.131 855.283 Q770.206 857.12 773.081 857.12 Q775.869 857.12 777.944 855.521 Q780.041 853.921 780.041 851.544 Q780.041 850.614 779.717 849.814 Q779.414 849.015 778.787 848.388 Q778.182 847.739 777.793 847.458 Q777.425 847.156 776.712 846.659 L771.265 843.222 Q766.077 846.097 766.077 850.701 M767.007 833.56 Q767.007 835.678 769.233 837.148 L774.723 840.693 Q779.111 838.12 779.111 834.489 Q779.111 832.133 777.317 830.577 Q775.523 828.999 773.037 828.999 Q770.595 828.999 768.801 830.296 Q767.007 831.571 767.007 833.56 Z" fill="#000000" fill-rule="evenodd" fill-opacity="1" /><path clip-path="url(#clip500)" d="M912.101 832.111 L912.101 830.728 Q917.419 830.728 920.164 827.896 Q920.92 827.896 921.05 828.069 Q921.18 828.242 921.18 829.042 L921.18 853.878 Q921.18 855.197 921.828 855.607 Q922.477 856.018 925.308 856.018 L926.713 856.018 L926.713 857.38 Q925.157 857.25 919.537 857.25 Q913.917 857.25 912.382 857.38 L912.382 856.018 L913.787 856.018 Q916.576 856.018 917.246 855.629 Q917.916 855.218 917.916 853.878 L917.916 830.944 Q915.603 832.111 912.101 832.111 Z" fill="#000000" fill-rule="evenodd" fill-opacity="1" /><path clip-path="url(#clip500)" d="M932.031 843.222 Q932.031 836.715 933.673 833.171 Q935.965 827.896 941.369 827.896 Q942.514 827.896 943.703 828.221 Q944.914 828.523 946.427 829.712 Q947.961 830.901 948.891 832.846 Q950.663 836.607 950.663 843.222 Q950.663 849.685 949.02 853.208 Q946.621 858.353 941.325 858.353 Q939.337 858.353 937.305 857.337 Q935.295 856.321 934.019 853.878 Q932.031 850.225 932.031 843.222 M935.705 842.681 Q935.705 849.361 936.181 852.019 Q936.721 854.894 938.191 856.148 Q939.683 857.38 941.325 857.38 Q943.098 857.38 944.568 856.061 Q946.059 854.721 946.513 851.846 Q947.01 849.015 946.989 842.681 Q946.989 836.521 946.556 834.057 Q945.973 831.182 944.416 830.036 Q942.882 828.869 941.325 828.869 Q940.742 828.869 940.115 829.042 Q939.51 829.215 938.623 829.712 Q937.737 830.209 937.046 831.441 Q936.375 832.673 936.051 834.532 Q935.705 836.932 935.705 842.681 Z" fill="#000000" fill-rule="evenodd" fill-opacity="1" /><path clip-path="url(#clip500)" d="M292.199 892.046 Q292.199 883.459 298.063 877.428 Q303.927 871.369 311.987 871.369 Q314.488 871.369 316.711 872.287 Q318.934 873.204 319.963 874.01 Q320.991 874.788 322.464 876.261 L325.326 872.064 Q325.771 871.369 326.216 871.369 Q326.688 871.369 326.772 871.647 Q326.855 871.897 326.855 872.731 L326.855 886.238 Q326.855 887.155 326.744 887.377 Q326.633 887.6 325.938 887.6 Q325.382 887.6 325.243 887.433 Q325.132 887.266 325.021 886.627 Q324.159 880.485 320.741 876.816 Q317.35 873.148 312.626 873.148 Q311.264 873.148 309.736 873.454 Q308.235 873.759 306.039 874.927 Q303.872 876.094 302.176 878.039 Q300.509 879.957 299.286 883.625 Q298.063 887.266 298.063 892.102 Q298.063 896.882 299.286 900.55 Q300.509 904.219 302.176 906.136 Q303.872 908.026 306.039 909.193 Q308.235 910.361 309.763 910.694 Q311.32 911 312.681 911 Q317.573 911 321.325 907.526 Q325.076 904.052 325.438 898.188 Q325.493 897.91 325.493 897.799 Q325.493 897.66 325.549 897.521 Q325.604 897.382 325.743 897.326 Q325.882 897.271 326.105 897.271 Q326.855 897.271 326.855 898.244 Q326.855 903.663 322.686 908.221 Q318.545 912.751 311.987 912.751 Q303.899 912.751 298.035 906.748 Q292.199 900.745 292.199 892.046 Z" fill="#000000" fill-rule="evenodd" fill-opacity="1" /><path clip-path="url(#clip500)" d="M332.469 906.081 Q332.469 901.245 338.166 898.688 Q341.584 897.049 348.643 896.632 L348.643 894.547 Q348.643 891.018 346.781 889.156 Q344.947 887.266 342.613 887.266 Q338.444 887.266 336.443 889.878 Q338.138 889.934 338.75 890.796 Q339.361 891.629 339.361 892.491 Q339.361 893.63 338.639 894.381 Q337.944 895.103 336.749 895.103 Q335.609 895.103 334.859 894.408 Q334.109 893.686 334.109 892.435 Q334.109 889.656 336.61 887.822 Q339.139 885.988 342.724 885.988 Q347.393 885.988 350.505 889.128 Q351.478 890.101 351.951 891.351 Q352.451 892.602 352.506 893.436 Q352.562 894.242 352.562 895.854 L352.562 907.22 Q352.562 907.554 352.673 908.109 Q352.784 908.665 353.285 909.388 Q353.813 910.083 354.674 910.083 Q356.731 910.083 356.703 906.442 L356.703 903.246 L358.148 903.246 L358.148 906.442 Q358.148 909.471 356.536 910.666 Q354.952 911.833 353.479 911.833 Q351.589 911.833 350.394 910.444 Q349.199 909.054 349.032 907.165 Q348.171 909.332 346.198 910.75 Q344.252 912.139 341.584 912.139 Q339.528 912.139 337.582 911.611 Q335.665 911.111 334.053 909.694 Q332.469 908.248 332.469 906.081 M336.86 906.025 Q336.86 908.137 338.361 909.499 Q339.861 910.861 341.973 910.861 Q344.364 910.861 346.503 909.027 Q348.643 907.165 348.643 903.524 L348.643 897.827 Q342.335 898.049 339.583 900.578 Q336.86 903.079 336.86 906.025 Z" fill="#000000" fill-rule="evenodd" fill-opacity="1" /><path clip-path="url(#clip500)" d="M360.121 911.5 L360.121 909.749 Q363.15 909.749 363.845 909.388 Q364.568 908.999 364.568 907.165 L364.568 891.907 Q364.568 889.795 363.817 889.267 Q363.095 888.739 360.121 888.739 L360.121 886.96 L368.042 886.349 L368.042 892.602 Q368.848 890.156 370.543 888.266 Q372.266 886.349 375.045 886.349 Q376.879 886.349 378.047 887.377 Q379.242 888.405 379.242 889.823 Q379.242 891.073 378.463 891.713 Q377.713 892.324 376.796 892.324 Q375.768 892.324 375.045 891.685 Q374.35 891.018 374.35 889.878 Q374.35 889.184 374.656 888.656 Q374.99 888.1 375.24 887.905 Q375.49 887.711 375.656 887.655 Q375.545 887.6 375.045 887.6 Q371.905 887.6 370.098 890.74 Q368.32 893.853 368.32 898.299 L368.32 907.053 Q368.32 908.693 368.987 909.221 Q369.681 909.749 372.655 909.749 L373.85 909.749 L373.85 911.5 Q371.571 911.333 366.624 911.333 Q365.93 911.333 364.846 911.361 Q363.762 911.389 362.344 911.444 Q360.927 911.5 360.121 911.5 Z" fill="#000000" fill-rule="evenodd" fill-opacity="1" /><path clip-path="url(#clip500)" d="M382.715 899.272 Q382.715 893.853 386.495 890.101 Q390.275 886.349 395.388 886.349 Q399.724 886.349 402.558 889.878 L402.558 877.567 Q402.558 875.455 401.808 874.927 Q401.086 874.399 398.14 874.399 L398.14 872.62 L406.338 872.009 L406.338 906.553 Q406.338 908.665 407.061 909.221 Q407.811 909.749 410.757 909.749 L410.757 911.5 L402.392 912.139 L402.392 908.36 Q399.446 912.111 394.777 912.139 Q389.886 912.139 386.301 908.387 Q382.715 904.636 382.715 899.272 M387.44 899.327 Q387.44 904.608 389.08 907.22 Q391.359 910.861 395.055 910.861 Q399.279 910.861 401.78 906.887 Q402.419 905.914 402.392 904.775 L402.392 893.102 Q402.392 891.963 401.78 891.018 Q399.446 887.6 395.638 887.6 Q391.664 887.6 389.191 891.24 Q387.44 893.964 387.44 899.327 Z" fill="#000000" fill-rule="evenodd" fill-opacity="1" /><path clip-path="url(#clip500)" d="M413.925 874.399 L413.925 872.62 L422.124 872.009 L422.124 890.045 Q425.431 886.349 429.933 886.349 Q434.824 886.349 438.409 890.101 Q441.994 893.853 441.994 899.216 Q441.994 904.636 438.242 908.387 Q434.491 912.139 429.294 912.139 Q424.569 912.139 421.846 907.971 Q419.845 911.444 419.789 911.5 L418.372 911.5 L418.372 877.567 Q418.372 875.455 417.621 874.927 Q416.871 874.399 413.925 874.399 M422.29 905.025 Q422.29 906.22 423.096 907.415 Q425.347 910.861 429.016 910.861 Q429.044 910.861 429.071 910.861 Q433.045 910.861 435.519 907.22 Q437.27 904.497 437.27 899.161 Q437.27 893.88 435.63 891.24 Q433.351 887.6 429.655 887.6 Q425.486 887.6 422.929 891.24 Q422.29 892.157 422.29 893.297 L422.29 905.025 Z" fill="#000000" fill-rule="evenodd" fill-opacity="1" /><path clip-path="url(#clip500)" d="M450.832 908.443 Q447.08 904.719 447.08 899.327 Q447.08 893.908 450.749 889.962 Q454.445 885.988 459.725 885.988 Q464.894 885.988 468.591 889.934 Q472.315 893.853 472.315 899.327 Q472.315 904.691 468.563 908.415 Q464.839 912.139 459.67 912.139 Q454.612 912.139 450.832 908.443 M451.805 898.855 Q451.805 904.385 453.25 906.887 Q455.473 910.694 459.725 910.694 Q461.837 910.694 463.588 909.555 Q465.367 908.415 466.339 906.498 Q467.59 903.996 467.59 898.855 Q467.59 893.38 466.089 890.962 Q463.866 887.266 459.67 887.266 Q457.835 887.266 456.029 888.239 Q454.25 889.184 453.166 891.073 Q451.805 893.575 451.805 898.855 Z" fill="#000000" fill-rule="evenodd" fill-opacity="1" /><path clip-path="url(#clip500)" d="M476.344 906.081 Q476.344 901.245 482.042 898.688 Q485.46 897.049 492.519 896.632 L492.519 894.547 Q492.519 891.018 490.657 889.156 Q488.823 887.266 486.488 887.266 Q482.319 887.266 480.318 889.878 Q482.014 889.934 482.625 890.796 Q483.237 891.629 483.237 892.491 Q483.237 893.63 482.514 894.381 Q481.819 895.103 480.624 895.103 Q479.485 895.103 478.734 894.408 Q477.984 893.686 477.984 892.435 Q477.984 889.656 480.485 887.822 Q483.014 885.988 486.599 885.988 Q491.268 885.988 494.381 889.128 Q495.354 890.101 495.826 891.351 Q496.326 892.602 496.382 893.436 Q496.437 894.242 496.437 895.854 L496.437 907.22 Q496.437 907.554 496.549 908.109 Q496.66 908.665 497.16 909.388 Q497.688 910.083 498.55 910.083 Q500.606 910.083 500.578 906.442 L500.578 903.246 L502.023 903.246 L502.023 906.442 Q502.023 909.471 500.412 910.666 Q498.827 911.833 497.355 911.833 Q495.465 911.833 494.27 910.444 Q493.075 909.054 492.908 907.165 Q492.046 909.332 490.073 910.75 Q488.128 912.139 485.46 912.139 Q483.403 912.139 481.458 911.611 Q479.54 911.111 477.928 909.694 Q476.344 908.248 476.344 906.081 M480.735 906.025 Q480.735 908.137 482.236 909.499 Q483.737 910.861 485.849 910.861 Q488.239 910.861 490.379 909.027 Q492.519 907.165 492.519 903.524 L492.519 897.827 Q486.21 898.049 483.459 900.578 Q480.735 903.079 480.735 906.025 Z" fill="#000000" fill-rule="evenodd" fill-opacity="1" /><path clip-path="url(#clip500)" d="M503.997 911.5 L503.997 909.749 Q507.026 909.749 507.721 909.388 Q508.443 908.999 508.443 907.165 L508.443 891.907 Q508.443 889.795 507.693 889.267 Q506.97 888.739 503.997 888.739 L503.997 886.96 L511.917 886.349 L511.917 892.602 Q512.723 890.156 514.418 888.266 Q516.141 886.349 518.921 886.349 Q520.755 886.349 521.922 887.377 Q523.117 888.405 523.117 889.823 Q523.117 891.073 522.339 891.713 Q521.589 892.324 520.671 892.324 Q519.643 892.324 518.921 891.685 Q518.226 891.018 518.226 889.878 Q518.226 889.184 518.531 888.656 Q518.865 888.1 519.115 887.905 Q519.365 887.711 519.532 887.655 Q519.421 887.6 518.921 887.6 Q515.78 887.6 513.974 890.74 Q512.195 893.853 512.195 898.299 L512.195 907.053 Q512.195 908.693 512.862 909.221 Q513.557 909.749 516.53 909.749 L517.726 909.749 L517.726 911.5 Q515.447 911.333 510.5 911.333 Q509.805 911.333 508.721 911.361 Q507.637 911.389 506.22 911.444 Q504.803 911.5 503.997 911.5 Z" fill="#000000" fill-rule="evenodd" fill-opacity="1" /><path clip-path="url(#clip500)" d="M526.591 899.272 Q526.591 893.853 530.371 890.101 Q534.15 886.349 539.264 886.349 Q543.599 886.349 546.434 889.878 L546.434 877.567 Q546.434 875.455 545.684 874.927 Q544.961 874.399 542.015 874.399 L542.015 872.62 L550.214 872.009 L550.214 906.553 Q550.214 908.665 550.936 909.221 Q551.686 909.749 554.632 909.749 L554.632 911.5 L546.267 912.139 L546.267 908.36 Q543.321 912.111 538.652 912.139 Q533.761 912.139 530.176 908.387 Q526.591 904.636 526.591 899.272 M531.315 899.327 Q531.315 904.608 532.955 907.22 Q535.234 910.861 538.93 910.861 Q543.155 910.861 545.656 906.887 Q546.295 905.914 546.267 904.775 L546.267 893.102 Q546.267 891.963 545.656 891.018 Q543.321 887.6 539.514 887.6 Q535.54 887.6 533.066 891.24 Q531.315 893.964 531.315 899.327 Z" fill="#000000" fill-rule="evenodd" fill-opacity="1" /><path clip-path="url(#clip500)" d="M577.532 906.081 Q577.532 901.245 583.23 898.688 Q586.648 897.049 593.707 896.632 L593.707 894.547 Q593.707 891.018 591.845 889.156 Q590.011 887.266 587.676 887.266 Q583.507 887.266 581.507 889.878 Q583.202 889.934 583.813 890.796 Q584.425 891.629 584.425 892.491 Q584.425 893.63 583.702 894.381 Q583.007 895.103 581.812 895.103 Q580.673 895.103 579.922 894.408 Q579.172 893.686 579.172 892.435 Q579.172 889.656 581.673 887.822 Q584.202 885.988 587.787 885.988 Q592.456 885.988 595.569 889.128 Q596.542 890.101 597.014 891.351 Q597.514 892.602 597.57 893.436 Q597.625 894.242 597.625 895.854 L597.625 907.22 Q597.625 907.554 597.737 908.109 Q597.848 908.665 598.348 909.388 Q598.876 910.083 599.738 910.083 Q601.794 910.083 601.766 906.442 L601.766 903.246 L603.211 903.246 L603.211 906.442 Q603.211 909.471 601.6 910.666 Q600.015 911.833 598.543 911.833 Q596.653 911.833 595.458 910.444 Q594.263 909.054 594.096 907.165 Q593.234 909.332 591.261 910.75 Q589.316 912.139 586.648 912.139 Q584.591 912.139 582.646 911.611 Q580.728 911.111 579.116 909.694 Q577.532 908.248 577.532 906.081 M581.923 906.025 Q581.923 908.137 583.424 909.499 Q584.925 910.861 587.037 910.861 Q589.427 910.861 591.567 909.027 Q593.707 907.165 593.707 903.524 L593.707 897.827 Q587.398 898.049 584.647 900.578 Q581.923 903.079 581.923 906.025 Z" fill="#000000" fill-rule="evenodd" fill-opacity="1" /><path clip-path="url(#clip500)" d="M605.185 911.5 L605.185 909.749 Q608.214 909.749 608.909 909.388 Q609.631 908.999 609.631 907.165 L609.631 891.907 Q609.631 889.795 608.881 889.267 Q608.158 888.739 605.185 888.739 L605.185 886.96 L613.105 886.349 L613.105 892.602 Q613.911 890.156 615.606 888.266 Q617.329 886.349 620.109 886.349 Q621.943 886.349 623.11 887.377 Q624.305 888.405 624.305 889.823 Q624.305 891.073 623.527 891.713 Q622.777 892.324 621.859 892.324 Q620.831 892.324 620.109 891.685 Q619.414 891.018 619.414 889.878 Q619.414 889.184 619.72 888.656 Q620.053 888.1 620.303 887.905 Q620.553 887.711 620.72 887.655 Q620.609 887.6 620.109 887.6 Q616.968 887.6 615.162 890.74 Q613.383 893.853 613.383 898.299 L613.383 907.053 Q613.383 908.693 614.05 909.221 Q614.745 909.749 617.719 909.749 L618.914 909.749 L618.914 911.5 Q616.635 911.333 611.688 911.333 Q610.993 911.333 609.909 911.361 Q608.825 911.389 607.408 911.444 Q605.991 911.5 605.185 911.5 Z" fill="#000000" fill-rule="evenodd" fill-opacity="1" /><path clip-path="url(#clip500)" d="M627.418 898.966 Q627.418 893.602 630.864 889.795 Q634.31 885.988 639.257 885.988 Q644.259 885.988 646.844 889.239 Q649.456 892.491 649.456 897.16 Q649.456 898.021 649.234 898.188 Q649.012 898.355 648.039 898.355 L632.142 898.355 Q632.142 904.163 633.865 906.887 Q636.255 910.694 640.285 910.694 Q640.841 910.694 641.508 910.583 Q642.175 910.472 643.537 909.999 Q644.898 909.499 646.093 908.193 Q647.288 906.887 647.983 904.83 Q648.15 904.024 648.706 904.052 Q649.456 904.052 649.456 904.719 Q649.456 905.219 648.9 906.359 Q648.372 907.47 647.344 908.804 Q646.316 910.138 644.315 911.139 Q642.342 912.139 639.952 912.139 Q634.949 912.139 631.17 908.36 Q627.418 904.552 627.418 898.966 M632.198 897.16 L645.704 897.16 Q645.704 895.965 645.482 894.631 Q645.287 893.297 644.676 891.462 Q644.092 889.6 642.703 888.433 Q641.313 887.266 639.257 887.266 Q638.34 887.266 637.339 887.655 Q636.366 888.044 635.171 888.989 Q633.976 889.934 633.143 892.074 Q632.309 894.214 632.198 897.16 Z" fill="#000000" fill-rule="evenodd" fill-opacity="1" /><path clip-path="url(#clip500)" d="M653.486 906.081 Q653.486 901.245 659.183 898.688 Q662.601 897.049 669.66 896.632 L669.66 894.547 Q669.66 891.018 667.798 889.156 Q665.964 887.266 663.63 887.266 Q659.461 887.266 657.46 889.878 Q659.155 889.934 659.767 890.796 Q660.378 891.629 660.378 892.491 Q660.378 893.63 659.656 894.381 Q658.961 895.103 657.766 895.103 Q656.626 895.103 655.876 894.408 Q655.126 893.686 655.126 892.435 Q655.126 889.656 657.627 887.822 Q660.156 885.988 663.741 885.988 Q668.41 885.988 671.522 889.128 Q672.495 890.101 672.968 891.351 Q673.468 892.602 673.523 893.436 Q673.579 894.242 673.579 895.854 L673.579 907.22 Q673.579 907.554 673.69 908.109 Q673.801 908.665 674.302 909.388 Q674.83 910.083 675.691 910.083 Q677.748 910.083 677.72 906.442 L677.72 903.246 L679.165 903.246 L679.165 906.442 Q679.165 909.471 677.553 910.666 Q675.969 911.833 674.496 911.833 Q672.606 911.833 671.411 910.444 Q670.216 909.054 670.05 907.165 Q669.188 909.332 667.215 910.75 Q665.269 912.139 662.601 912.139 Q660.545 912.139 658.6 911.611 Q656.682 911.111 655.07 909.694 Q653.486 908.248 653.486 906.081 M657.877 906.025 Q657.877 908.137 659.378 909.499 Q660.878 910.861 662.991 910.861 Q665.381 910.861 667.521 909.027 Q669.66 907.165 669.66 903.524 L669.66 897.827 Q663.352 898.049 660.6 900.578 Q657.877 903.079 657.877 906.025 Z" fill="#000000" fill-rule="evenodd" fill-opacity="1" /><path clip-path="url(#clip500)" d="M700.37 911.5 L700.37 909.749 Q703.399 909.749 704.094 909.388 Q704.789 908.999 704.789 907.165 L704.789 891.852 Q704.789 889.739 704.066 889.239 Q703.371 888.739 700.592 888.739 L700.592 886.96 L708.54 886.349 L708.54 907.22 Q708.54 908.915 709.152 909.332 Q709.763 909.749 712.542 909.749 L712.542 911.5 Q706.734 911.333 706.623 911.333 Q705.845 911.333 700.37 911.5 M702.76 876.427 Q702.76 875.288 703.621 874.371 Q704.511 873.426 705.761 873.426 Q707.012 873.426 707.901 874.287 Q708.791 875.121 708.791 876.455 Q708.791 877.761 707.901 878.623 Q707.012 879.457 705.761 879.457 Q704.455 879.457 703.594 878.54 Q702.76 877.622 702.76 876.427 Z" fill="#000000" fill-rule="evenodd" fill-opacity="1" /><path clip-path="url(#clip500)" d="M716.072 911.5 L716.072 909.749 Q719.101 909.749 719.796 909.388 Q720.491 908.999 720.491 907.165 L720.491 891.907 Q720.491 889.795 719.74 889.267 Q719.018 888.739 716.072 888.739 L716.072 886.96 L724.076 886.349 L724.076 892.324 Q726.744 886.349 732.497 886.349 Q736.776 886.349 738.472 888.461 Q739.722 889.878 739.972 891.462 Q740.25 893.047 740.25 897.16 L740.25 908.026 Q740.306 909.221 741.223 909.499 Q742.14 909.749 744.697 909.749 L744.697 911.5 Q738.889 911.333 738.305 911.333 Q737.86 911.333 731.885 911.5 L731.885 909.749 Q734.914 909.749 735.609 909.388 Q736.332 908.999 736.332 907.165 L736.332 893.908 Q736.332 891.018 735.442 889.323 Q734.553 887.6 732.107 887.6 Q729.162 887.6 726.799 890.073 Q724.437 892.546 724.437 896.715 L724.437 907.165 Q724.437 908.999 725.132 909.388 Q725.854 909.749 728.856 909.749 L728.856 911.5 Q723.047 911.333 722.492 911.333 Q722.047 911.333 716.072 911.5 Z" fill="#000000" fill-rule="evenodd" fill-opacity="1" /><path clip-path="url(#clip500)" d="M785.525 905.255 Q785.736 905.492 785.736 905.729 Q785.736 905.966 785.209 906.652 Q784.708 907.337 783.628 908.259 Q782.547 909.181 781.151 910.051 Q779.754 910.92 777.699 911.5 Q775.643 912.106 773.483 912.106 Q769.451 912.106 767.08 909.445 Q764.734 906.783 764.734 902.963 Q764.734 899.247 766.816 895.69 Q768.898 892.106 772.271 889.893 Q775.643 887.653 779.201 887.653 Q782.02 887.653 783.786 888.971 Q785.551 890.288 785.551 892.291 Q785.551 893.845 784.655 894.794 Q783.759 895.743 782.547 895.743 Q781.704 895.743 781.124 895.268 Q780.545 894.768 780.545 893.845 Q780.545 892.66 781.52 891.737 Q781.888 891.368 782.31 891.21 Q782.758 891.026 783.021 891.026 Q783.285 891 783.891 891 Q783.338 889.972 782.02 889.418 Q780.729 888.839 779.253 888.839 Q777.066 888.839 774.985 890.367 Q772.903 891.869 771.638 894.241 Q770.373 896.559 769.557 899.853 Q768.74 903.121 768.74 905.018 Q768.74 907.627 769.952 909.26 Q771.164 910.894 773.588 910.894 Q774.062 910.894 774.563 910.868 Q775.09 910.841 776.408 910.551 Q777.751 910.262 778.937 909.761 Q780.123 909.26 781.625 908.18 Q783.153 907.073 784.365 905.571 Q784.787 905.018 785.077 905.018 Q785.314 905.018 785.525 905.255 Z" fill="#000000" fill-rule="evenodd" fill-opacity="1" /><path clip-path="url(#clip500)" d="M832.074 903.779 Q832.074 903.99 831.837 904.807 Q831.599 905.624 831.02 906.889 Q830.466 908.154 829.676 909.313 Q828.912 910.446 827.647 911.289 Q826.408 912.106 824.986 912.106 Q823.088 912.106 821.823 910.841 Q820.559 909.576 820.559 907.679 Q820.559 906.652 821.27 904.702 Q824.617 895.795 824.617 892.607 Q824.617 888.839 821.692 888.839 Q820.032 888.839 818.53 889.524 Q817.028 890.209 816.053 891.158 Q815.078 892.106 814.314 893.187 Q813.55 894.267 813.207 894.978 Q812.891 895.69 812.812 896.006 L809.571 909.023 Q809.307 910.13 809.123 910.657 Q808.938 911.184 808.438 911.632 Q807.937 912.106 807.146 912.106 Q806.488 912.106 806.013 911.711 Q805.565 911.316 805.565 910.63 Q805.565 910.525 805.697 909.972 Q805.829 909.418 806.013 908.654 Q806.198 907.89 806.277 907.442 Q807.225 903.858 807.357 903.358 L808.859 897.086 Q809.676 893.977 809.676 892.607 Q809.676 888.839 806.751 888.839 Q805.302 888.839 803.932 889.392 Q802.588 889.919 801.666 890.657 Q800.743 891.395 799.9 892.422 Q799.083 893.424 798.662 894.109 Q798.266 894.768 797.95 895.426 L797.265 898.114 Q797.107 898.852 796.343 901.724 L795.157 906.599 Q794.314 910.235 794.129 910.578 Q793.866 911.316 793.286 911.711 Q792.706 912.106 792.127 912.106 Q791.468 912.106 791.02 911.711 Q790.572 911.316 790.572 910.63 Q790.572 910.525 790.651 910.13 Q790.73 909.735 790.862 909.181 Q790.994 908.628 791.046 908.312 L794.182 895.848 Q794.762 893.582 794.894 892.87 Q795.052 892.133 795.052 891.316 Q795.052 888.839 793.365 888.839 Q791.995 888.839 791.099 890.473 Q790.203 892.106 789.439 895.268 Q789.202 896.138 789.044 896.322 Q788.912 896.507 788.517 896.507 Q787.858 896.48 787.858 895.953 Q787.858 895.822 788.069 894.978 Q788.28 894.135 788.675 892.87 Q789.096 891.579 789.544 890.736 Q789.808 890.183 790.045 889.814 Q790.282 889.445 790.757 888.865 Q791.231 888.285 791.942 887.969 Q792.654 887.653 793.523 887.653 Q795.447 887.653 796.87 888.891 Q798.319 890.13 798.504 892.343 Q802.008 887.653 806.909 887.653 Q809.676 887.653 811.336 889.05 Q812.891 890.393 813.075 892.87 Q816.712 887.653 821.876 887.653 Q824.854 887.653 826.461 889.208 Q828.069 890.736 828.069 893.424 Q828.069 894.82 827.357 897.482 Q826.646 900.117 826.171 901.434 Q825.697 902.752 824.775 905.281 Q823.8 907.706 823.8 909.128 Q823.8 910.051 824.116 910.472 Q824.432 910.894 825.117 910.894 Q826.171 910.894 827.094 910.288 Q828.016 909.655 828.675 908.628 Q829.36 907.574 829.808 906.52 Q830.256 905.439 830.598 904.227 Q830.809 903.569 830.914 903.41 Q831.046 903.252 831.415 903.252 Q832.074 903.252 832.074 903.779 Z" fill="#000000" fill-rule="evenodd" fill-opacity="1" /><path clip-path="url(#clip500)" d="M837.407 895.356 Q837.407 894.674 837.462 894.471 Q837.536 894.268 837.831 893.954 L845.08 885.875 Q849.046 881.411 849.046 877.52 Q849.046 874.993 847.718 873.185 Q846.408 871.377 843.992 871.377 Q842.332 871.377 840.93 872.392 Q839.528 873.406 838.883 875.214 Q838.993 875.177 839.381 875.177 Q840.321 875.177 840.838 875.767 Q841.373 876.357 841.373 877.151 Q841.373 878.165 840.709 878.663 Q840.063 879.143 839.418 879.143 Q839.159 879.143 838.809 879.087 Q838.477 879.032 837.942 878.516 Q837.407 877.981 837.407 877.04 Q837.407 874.402 839.399 872.3 Q841.41 870.197 844.472 870.197 Q847.939 870.197 850.208 872.263 Q852.495 874.31 852.495 877.52 Q852.495 878.645 852.145 879.678 Q851.813 880.692 851.352 881.485 Q850.909 882.278 849.692 883.551 Q848.474 884.824 847.497 885.728 Q846.519 886.631 844.324 888.55 L840.321 892.442 L847.128 892.442 Q850.448 892.442 850.706 892.147 Q851.075 891.612 851.536 888.79 L852.495 888.79 L851.425 895.356 L837.407 895.356 Z" fill="#000000" fill-rule="evenodd" fill-opacity="1" /><polyline clip-path="url(#clip502)" style="stroke:#ffffff; stroke-linecap:butt; stroke-linejoin:round; stroke-width:4; stroke-opacity:1; fill:none" points="
  197.554,716.462 952.756,716.462 
  "/>
<polyline clip-path="url(#clip502)" style="stroke:#ffffff; stroke-linecap:butt; stroke-linejoin:round; stroke-width:4; stroke-opacity:1; fill:none" points="
  197.554,568.857 952.756,568.857 
  "/>
<polyline clip-path="url(#clip502)" style="stroke:#ffffff; stroke-linecap:butt; stroke-linejoin:round; stroke-width:4; stroke-opacity:1; fill:none" points="
  197.554,421.251 952.756,421.251 
  "/>
<polyline clip-path="url(#clip502)" style="stroke:#ffffff; stroke-linecap:butt; stroke-linejoin:round; stroke-width:4; stroke-opacity:1; fill:none" points="
  197.554,273.646 952.756,273.646 
  "/>
<polyline clip-path="url(#clip502)" style="stroke:#ffffff; stroke-linecap:butt; stroke-linejoin:round; stroke-width:4; stroke-opacity:1; fill:none" points="
  197.554,126.041 952.756,126.041 
  "/>
<polyline clip-path="url(#clip502)" style="stroke:#ffffff; stroke-linecap:butt; stroke-linejoin:round; stroke-width:2; stroke-opacity:1; fill:none" points="
  197.554,790.265 952.756,790.265 
  "/>
<polyline clip-path="url(#clip502)" style="stroke:#ffffff; stroke-linecap:butt; stroke-linejoin:round; stroke-width:2; stroke-opacity:1; fill:none" points="
  197.554,642.66 952.756,642.66 
  "/>
<polyline clip-path="url(#clip502)" style="stroke:#ffffff; stroke-linecap:butt; stroke-linejoin:round; stroke-width:2; stroke-opacity:1; fill:none" points="
  197.554,495.054 952.756,495.054 
  "/>
<polyline clip-path="url(#clip502)" style="stroke:#ffffff; stroke-linecap:butt; stroke-linejoin:round; stroke-width:2; stroke-opacity:1; fill:none" points="
  197.554,347.449 952.756,347.449 
  "/>
<polyline clip-path="url(#clip502)" style="stroke:#ffffff; stroke-linecap:butt; stroke-linejoin:round; stroke-width:2; stroke-opacity:1; fill:none" points="
  197.554,199.843 952.756,199.843 
  "/>
<polyline clip-path="url(#clip502)" style="stroke:#ffffff; stroke-linecap:butt; stroke-linejoin:round; stroke-width:2; stroke-opacity:1; fill:none" points="
  197.554,52.2379 952.756,52.2379 
  "/>
<polyline clip-path="url(#clip500)" style="stroke:#ffffff; stroke-linecap:butt; stroke-linejoin:round; stroke-width:4; stroke-opacity:1; fill:none" points="
  197.554,807.58 197.554,47.2441 
  "/>
<polyline clip-path="url(#clip500)" style="stroke:#333333; stroke-linecap:butt; stroke-linejoin:round; stroke-width:4; stroke-opacity:1; fill:none" points="
  197.554,716.462 178.656,716.462 
  "/>
<polyline clip-path="url(#clip500)" style="stroke:#333333; stroke-linecap:butt; stroke-linejoin:round; stroke-width:4; stroke-opacity:1; fill:none" points="
  197.554,568.857 178.656,568.857 
  "/>
<polyline clip-path="url(#clip500)" style="stroke:#333333; stroke-linecap:butt; stroke-linejoin:round; stroke-width:4; stroke-opacity:1; fill:none" points="
  197.554,421.251 178.656,421.251 
  "/>
<polyline clip-path="url(#clip500)" style="stroke:#333333; stroke-linecap:butt; stroke-linejoin:round; stroke-width:4; stroke-opacity:1; fill:none" points="
  197.554,273.646 178.656,273.646 
  "/>
<polyline clip-path="url(#clip500)" style="stroke:#333333; stroke-linecap:butt; stroke-linejoin:round; stroke-width:4; stroke-opacity:1; fill:none" points="
  197.554,126.041 178.656,126.041 
  "/>
<polyline clip-path="url(#clip500)" style="stroke:#333333; stroke-linecap:butt; stroke-linejoin:round; stroke-width:4; stroke-opacity:1; fill:none" points="
  197.554,790.265 188.105,790.265 
  "/>
<polyline clip-path="url(#clip500)" style="stroke:#333333; stroke-linecap:butt; stroke-linejoin:round; stroke-width:4; stroke-opacity:1; fill:none" points="
  197.554,642.66 188.105,642.66 
  "/>
<polyline clip-path="url(#clip500)" style="stroke:#333333; stroke-linecap:butt; stroke-linejoin:round; stroke-width:4; stroke-opacity:1; fill:none" points="
  197.554,495.054 188.105,495.054 
  "/>
<polyline clip-path="url(#clip500)" style="stroke:#333333; stroke-linecap:butt; stroke-linejoin:round; stroke-width:4; stroke-opacity:1; fill:none" points="
  197.554,347.449 188.105,347.449 
  "/>
<polyline clip-path="url(#clip500)" style="stroke:#333333; stroke-linecap:butt; stroke-linejoin:round; stroke-width:4; stroke-opacity:1; fill:none" points="
  197.554,199.843 188.105,199.843 
  "/>
<polyline clip-path="url(#clip500)" style="stroke:#333333; stroke-linecap:butt; stroke-linejoin:round; stroke-width:4; stroke-opacity:1; fill:none" points="
  197.554,52.2379 188.105,52.2379 
  "/>
<path clip-path="url(#clip500)" d="M153.784 719.888 Q154.044 720.148 154.044 720.515 Q154.044 720.883 153.784 721.142 Q153.525 721.401 153.157 721.401 L125.446 721.401 Q125.079 721.401 124.82 721.142 Q124.56 720.883 124.56 720.515 Q124.56 720.148 124.82 719.888 Q125.079 719.629 125.446 719.629 L153.157 719.629 Q153.525 719.629 153.784 719.888 Z" fill="#000000" fill-rule="evenodd" fill-opacity="1" /><path clip-path="url(#clip500)" d="M160.442 706.314 L160.442 704.93 Q165.759 704.93 168.504 702.099 Q169.261 702.099 169.391 702.272 Q169.52 702.445 169.52 703.244 L169.52 728.081 Q169.52 729.399 170.169 729.81 Q170.817 730.221 173.649 730.221 L175.054 730.221 L175.054 731.582 Q173.498 731.453 167.877 731.453 Q162.257 731.453 160.723 731.582 L160.723 730.221 L162.128 730.221 Q164.916 730.221 165.586 729.831 Q166.256 729.421 166.256 728.081 L166.256 705.147 Q163.943 706.314 160.442 706.314 Z" fill="#000000" fill-rule="evenodd" fill-opacity="1" /><path clip-path="url(#clip500)" d="M156.421 569.819 Q156.421 563.313 158.064 559.768 Q160.355 554.493 165.759 554.493 Q166.905 554.493 168.094 554.818 Q169.304 555.12 170.817 556.309 Q172.352 557.498 173.281 559.443 Q175.054 563.204 175.054 569.819 Q175.054 576.282 173.411 579.805 Q171.012 584.95 165.716 584.95 Q163.727 584.95 161.695 583.934 Q159.685 582.918 158.41 580.475 Q156.421 576.822 156.421 569.819 M160.096 569.278 Q160.096 575.958 160.571 578.616 Q161.112 581.491 162.582 582.745 Q164.073 583.977 165.716 583.977 Q167.488 583.977 168.958 582.658 Q170.45 581.318 170.904 578.443 Q171.401 575.612 171.379 569.278 Q171.379 563.118 170.947 560.654 Q170.363 557.779 168.807 556.633 Q167.272 555.466 165.716 555.466 Q165.132 555.466 164.505 555.639 Q163.9 555.812 163.014 556.309 Q162.128 556.806 161.436 558.038 Q160.766 559.27 160.442 561.129 Q160.096 563.529 160.096 569.278 Z" fill="#000000" fill-rule="evenodd" fill-opacity="1" /><path clip-path="url(#clip500)" d="M160.442 411.103 L160.442 409.72 Q165.759 409.72 168.504 406.888 Q169.261 406.888 169.391 407.061 Q169.52 407.234 169.52 408.034 L169.52 432.87 Q169.52 434.188 170.169 434.599 Q170.817 435.01 173.649 435.01 L175.054 435.01 L175.054 436.371 Q173.498 436.242 167.877 436.242 Q162.257 436.242 160.723 436.371 L160.723 435.01 L162.128 435.01 Q164.916 435.01 165.586 434.621 Q166.256 434.21 166.256 432.87 L166.256 409.936 Q163.943 411.103 160.442 411.103 Z" fill="#000000" fill-rule="evenodd" fill-opacity="1" /><path clip-path="url(#clip500)" d="M157.372 288.766 Q157.372 287.966 157.437 287.728 Q157.524 287.491 157.87 287.123 L166.364 277.656 Q171.012 272.425 171.012 267.864 Q171.012 264.903 169.455 262.784 Q167.921 260.666 165.089 260.666 Q163.144 260.666 161.501 261.855 Q159.858 263.044 159.102 265.162 Q159.231 265.119 159.685 265.119 Q160.788 265.119 161.393 265.81 Q162.02 266.502 162.02 267.432 Q162.02 268.62 161.242 269.204 Q160.485 269.766 159.728 269.766 Q159.426 269.766 159.015 269.701 Q158.626 269.636 157.999 269.031 Q157.372 268.404 157.372 267.302 Q157.372 264.211 159.707 261.747 Q162.063 259.283 165.651 259.283 Q169.715 259.283 172.374 261.704 Q175.054 264.103 175.054 267.864 Q175.054 269.182 174.643 270.393 Q174.254 271.582 173.714 272.511 Q173.195 273.441 171.768 274.932 Q170.342 276.424 169.196 277.483 Q168.05 278.542 165.478 280.79 L160.788 285.351 L168.764 285.351 Q172.655 285.351 172.957 285.005 Q173.389 284.378 173.93 281.071 L175.054 281.071 L173.8 288.766 L157.372 288.766 Z" fill="#000000" fill-rule="evenodd" fill-opacity="1" /><path clip-path="url(#clip500)" d="M156.681 135.195 Q156.681 133.876 157.437 133.249 Q158.194 132.623 159.166 132.623 Q160.182 132.623 160.896 133.293 Q161.631 133.941 161.631 135.087 Q161.631 136.319 160.766 137.01 Q159.923 137.702 158.713 137.529 Q159.772 139.302 161.717 140.101 Q163.684 140.901 165.5 140.901 Q167.402 140.901 168.937 139.258 Q170.493 137.616 170.493 133.595 Q170.493 130.18 169.153 128.213 Q167.834 126.246 165.219 126.246 L163.273 126.246 Q162.603 126.246 162.409 126.181 Q162.214 126.116 162.214 125.749 Q162.214 125.316 162.884 125.23 Q163.554 125.23 164.614 125.1 Q167.186 125.014 168.548 122.787 Q169.78 120.712 169.78 117.751 Q169.78 115.049 168.483 113.925 Q167.207 112.78 165.543 112.78 Q163.987 112.78 162.279 113.428 Q160.571 114.076 159.642 115.525 Q162.387 115.525 162.387 117.751 Q162.387 118.724 161.76 119.372 Q161.155 119.999 160.139 119.999 Q159.166 119.999 158.518 119.394 Q157.87 118.767 157.87 117.708 Q157.87 115.179 160.118 113.428 Q162.387 111.677 165.716 111.677 Q169.002 111.677 171.422 113.406 Q173.865 115.136 173.865 117.794 Q173.865 120.41 172.136 122.55 Q170.407 124.69 167.661 125.576 Q171.033 126.246 173.044 128.537 Q175.054 130.807 175.054 133.595 Q175.054 137.054 172.33 139.604 Q169.607 142.133 165.629 142.133 Q161.955 142.133 159.318 140.145 Q156.681 138.156 156.681 135.195 Z" fill="#000000" fill-rule="evenodd" fill-opacity="1" /><path clip-path="url(#clip500)" d="M105.396 497.099 L103.645 497.099 L103.645 495.737 Q103.645 492.652 103.145 491.957 Q102.617 491.235 100.95 491.235 L70.9628 491.235 Q69.3231 491.235 68.8228 491.957 Q68.2948 492.68 68.2948 495.737 L68.2948 497.099 L66.5162 497.099 L66.5162 477.006 Q66.5162 471.253 69.6844 467.418 Q72.8526 463.582 77.1046 463.582 Q81.3289 463.582 84.386 467.501 Q87.4152 471.392 87.4152 476.561 L87.4152 486.177 L100.95 486.177 Q102.589 486.177 103.117 485.482 Q103.645 484.759 103.645 481.674 L103.645 480.313 L105.396 480.313 Q105.229 482.314 105.229 488.733 Q105.229 495.098 105.396 497.099 M85.9423 486.343 L85.9423 478.506 Q85.9423 475.949 85.2197 474.087 Q84.4971 472.225 83.6356 471.392 Q82.7463 470.53 81.3289 470.058 Q79.8838 469.557 79.1056 469.502 Q78.2997 469.446 77.1046 469.446 Q75.854 469.446 75.0759 469.502 Q74.2699 469.557 72.8526 470.058 Q71.4074 470.53 70.5459 471.392 Q69.6566 472.225 68.9896 474.087 Q68.2948 475.922 68.2948 478.506 L68.2948 483.564 Q68.2948 485.51 68.6839 485.927 Q69.073 486.343 70.5737 486.343 L85.9423 486.343 Z" fill="#000000" fill-rule="evenodd" fill-opacity="1" /><path clip-path="url(#clip500)" d="M105.396 458.83 L103.645 458.83 Q103.645 455.801 103.284 455.106 Q102.895 454.383 101.061 454.383 L85.8033 454.383 Q83.6912 454.383 83.1631 455.134 Q82.6351 455.856 82.6351 458.83 L80.8565 458.83 L80.245 450.909 L86.4981 450.909 Q84.0525 450.104 82.1626 448.408 Q80.245 446.685 80.245 443.906 Q80.245 442.072 81.2733 440.905 Q82.3016 439.71 83.719 439.71 Q84.9696 439.71 85.6088 440.488 Q86.2202 441.238 86.2202 442.155 Q86.2202 443.184 85.581 443.906 Q84.914 444.601 83.7745 444.601 Q83.0798 444.601 82.5517 444.295 Q81.9959 443.962 81.8014 443.712 Q81.6068 443.461 81.5512 443.295 Q81.4957 443.406 81.4957 443.906 Q81.4957 447.047 84.6361 448.853 Q87.7487 450.632 92.1953 450.632 L100.95 450.632 Q102.589 450.632 103.117 449.965 Q103.645 449.27 103.645 446.296 L103.645 445.101 L105.396 445.101 Q105.229 447.38 105.229 452.327 Q105.229 453.022 105.257 454.105 Q105.285 455.189 105.341 456.607 Q105.396 458.024 105.396 458.83 Z" fill="#000000" fill-rule="evenodd" fill-opacity="1" /><path clip-path="url(#clip500)" d="M102.339 432.845 Q98.6151 436.597 93.2236 436.597 Q87.8043 436.597 83.8579 432.929 Q79.8838 429.232 79.8838 423.952 Q79.8838 418.783 83.8301 415.087 Q87.7487 411.363 93.2236 411.363 Q98.5873 411.363 102.311 415.114 Q106.035 418.838 106.035 424.008 Q106.035 429.066 102.339 432.845 M92.7511 431.872 Q98.2816 431.872 100.783 430.427 Q104.59 428.204 104.59 423.952 Q104.59 421.84 103.451 420.089 Q102.311 418.31 100.394 417.338 Q97.8925 416.087 92.7511 416.087 Q87.2762 416.087 84.8584 417.588 Q81.1622 419.811 81.1622 424.008 Q81.1622 425.842 82.1349 427.648 Q83.0798 429.427 84.9696 430.511 Q87.4708 431.872 92.7511 431.872 Z" fill="#000000" fill-rule="evenodd" fill-opacity="1" /><path clip-path="url(#clip500)" d="M82.6351 407.833 L80.8565 407.833 L80.8565 403.359 L74.3255 403.359 Q70.1012 403.359 67.6834 400.635 Q65.2655 397.884 65.2655 394.521 Q65.2655 392.298 66.4606 390.853 Q67.6556 389.407 69.2675 389.407 Q70.3514 389.407 71.0739 390.074 Q71.7687 390.714 71.7687 391.909 Q71.7687 393.048 71.0461 393.715 Q70.3236 394.354 69.3231 394.354 Q67.4889 394.354 66.933 392.659 Q66.5439 393.521 66.5162 394.521 Q66.5162 396.578 68.6283 398.189 Q70.7404 399.774 74.2699 399.774 L80.8565 399.774 L80.8565 393.104 L82.6351 393.104 L82.6351 399.579 L100.95 399.579 Q102.589 399.579 103.117 398.912 Q103.645 398.217 103.645 395.271 L103.645 394.076 L105.396 394.076 Q105.229 396.355 105.229 401.302 Q105.229 401.997 105.257 403.081 Q105.285 404.137 105.341 405.582 Q105.396 406.999 105.396 407.777 L103.645 407.777 Q103.645 404.748 103.284 404.053 Q102.895 403.359 101.061 403.359 L82.6351 403.359 L82.6351 407.833 Z" fill="#000000" fill-rule="evenodd" fill-opacity="1" /><path clip-path="url(#clip500)" d="M105.396 390.491 L103.645 390.491 Q103.645 387.462 103.284 386.767 Q102.895 386.072 101.061 386.072 L85.7477 386.072 Q83.6356 386.072 83.1353 386.795 Q82.6351 387.49 82.6351 390.269 L80.8565 390.269 L80.245 382.321 L101.116 382.321 Q102.812 382.321 103.228 381.709 Q103.645 381.098 103.645 378.319 L105.396 378.319 Q105.229 384.127 105.229 384.238 Q105.229 385.016 105.396 390.491 M70.3236 388.101 Q69.1841 388.101 68.267 387.24 Q67.3221 386.35 67.3221 385.1 Q67.3221 383.849 68.1836 382.96 Q69.0174 382.07 70.3514 382.07 Q71.6575 382.07 72.5191 382.96 Q73.3528 383.849 73.3528 385.1 Q73.3528 386.406 72.4357 387.267 Q71.5186 388.101 70.3236 388.101 Z" fill="#000000" fill-rule="evenodd" fill-opacity="1" /><path clip-path="url(#clip500)" d="M82.6351 375.54 L81.3845 375.54 Q81.2733 372.927 79.4391 371.204 Q77.5771 369.453 75.2982 368.87 Q73.0193 368.258 70.3791 368.203 L70.3791 366.785 L80.8565 366.785 L80.8565 358.642 L82.6351 358.642 L82.6351 366.785 L98.4483 366.785 Q104.59 366.785 104.59 362.95 Q104.59 361.31 102.923 360.227 Q101.227 359.143 98.226 359.143 L95.0856 359.143 L95.0856 357.725 L98.3372 357.725 Q101.422 357.725 103.729 359.143 Q106.035 360.56 106.035 363.367 Q106.035 364.395 105.757 365.424 Q105.507 366.424 104.84 367.758 Q104.146 369.064 102.478 369.898 Q100.783 370.704 98.3372 370.704 L82.6351 370.704 L82.6351 375.54 Z" fill="#000000" fill-rule="evenodd" fill-opacity="1" /><polyline clip-path="url(#clip502)" style="stroke:#5e81ac; stroke-linecap:butt; stroke-linejoin:round; stroke-width:4; stroke-opacity:1; fill:none" points="
  218.927,786.061 220.087,778.027 221.247,769.841 222.406,761.515 223.566,753.058 228.927,712.56 234.288,670.422 239.649,627.435 245.011,584.268 250.372,541.481 
  255.733,499.538 261.094,458.819 266.455,419.631 269.677,396.921 272.899,374.895 276.121,353.589 279.343,333.033 282.564,313.252 285.786,294.264 289.008,276.083 
  292.23,258.721 294.954,244.684 297.678,231.239 300.402,218.384 303.126,206.12 305.85,194.443 308.574,183.35 311.298,172.835 314.022,162.892 316.981,152.731 
  319.94,143.227 322.899,134.368 325.858,126.143 328.817,118.539 331.777,111.541 334.736,105.135 337.695,99.3082 340.423,94.4349 343.151,90.0277 345.879,86.0743 
  348.607,82.5622 354.063,76.8114 359.519,72.6734 365.368,69.9124 371.217,68.763 377.067,69.1022 382.916,70.8095 389.693,74.3451 396.47,79.3858 403.247,85.7648 
  410.024,93.3241 416.047,100.912 422.07,109.215 428.092,118.142 434.115,127.606 444.678,145.258 455.24,163.92 478.273,206.515 501.442,249.769 514.25,273.107 
  527.058,295.723 539.245,316.411 551.432,336.177 564.103,355.671 576.774,374.035 587.441,388.598 598.108,402.339 611.13,418.012 624.153,432.498 636.083,444.76 
  648.012,456.096 659.03,465.78 670.048,474.745 681.209,483.132 692.37,490.858 704.878,498.782 717.386,505.98 728.72,511.922 740.055,517.351 753.032,522.986 
  766.009,528.051 778.025,532.275 790.04,536.092 813.732,542.555 836.735,547.67 860.316,551.93 886.152,555.66 923.683,559.711 931.382,560.38 
  "/>
</svg>
