<?xml version="1.0" encoding="utf-8"?>
<svg xmlns="http://www.w3.org/2000/svg" xmlns:xlink="http://www.w3.org/1999/xlink" width="600" height="400" viewBox="0 0 2400 1600">
<defs>
  <clipPath id="clip460">
    <rect x="0" y="0" width="2400" height="1600"/>
  </clipPath>
</defs>
<path clip-path="url(#clip460)" d="M0 1600 L2400 1600 L2400 8.88178e-14 L0 8.88178e-14  Z" fill="#ffffff" fill-rule="evenodd" fill-opacity="1"/>
<defs>
  <clipPath id="clip461">
    <rect x="480" y="0" width="1681" height="1600"/>
  </clipPath>
</defs>
<path clip-path="url(#clip460)" d="M140.696 1486.45 L2352.76 1486.45 L2352.76 47.2441 L140.696 47.2441  Z" fill="#eaeaea" fill-rule="evenodd" fill-opacity="1"/>
<defs>
  <clipPath id="clip462">
    <rect x="140" y="47" width="2213" height="1440"/>
  </clipPath>
</defs>
<polyline clip-path="url(#clip462)" style="stroke:#ffffff; stroke-linecap:round; stroke-linejoin:round; stroke-width:2; stroke-opacity:1; fill:none" points="464.157,1486.45 464.157,47.2441 "/>
<polyline clip-path="url(#clip462)" style="stroke:#ffffff; stroke-linecap:round; stroke-linejoin:round; stroke-width:2; stroke-opacity:1; fill:none" points="985.87,1486.45 985.87,47.2441 "/>
<polyline clip-path="url(#clip462)" style="stroke:#ffffff; stroke-linecap:round; stroke-linejoin:round; stroke-width:2; stroke-opacity:1; fill:none" points="1507.58,1486.45 1507.58,47.2441 "/>
<polyline clip-path="url(#clip462)" style="stroke:#ffffff; stroke-linecap:round; stroke-linejoin:round; stroke-width:2; stroke-opacity:1; fill:none" points="2029.29,1486.45 2029.29,47.2441 "/>
<polyline clip-path="url(#clip462)" style="stroke:#ffffff; stroke-linecap:round; stroke-linejoin:round; stroke-width:2; stroke-opacity:1; fill:none" points="140.696,1276 2352.76,1276 "/>
<polyline clip-path="url(#clip462)" style="stroke:#ffffff; stroke-linecap:round; stroke-linejoin:round; stroke-width:2; stroke-opacity:1; fill:none" points="140.696,936.563 2352.76,936.563 "/>
<polyline clip-path="url(#clip462)" style="stroke:#ffffff; stroke-linecap:round; stroke-linejoin:round; stroke-width:2; stroke-opacity:1; fill:none" points="140.696,597.129 2352.76,597.129 "/>
<polyline clip-path="url(#clip462)" style="stroke:#ffffff; stroke-linecap:round; stroke-linejoin:round; stroke-width:2; stroke-opacity:1; fill:none" points="140.696,257.694 2352.76,257.694 "/>
<polyline clip-path="url(#clip462)" style="stroke:#ffffff; stroke-linecap:round; stroke-linejoin:round; stroke-width:4; stroke-opacity:1; fill:none" points="203.301,1486.45 203.301,47.2441 "/>
<polyline clip-path="url(#clip462)" style="stroke:#ffffff; stroke-linecap:round; stroke-linejoin:round; stroke-width:4; stroke-opacity:1; fill:none" points="725.013,1486.45 725.013,47.2441 "/>
<polyline clip-path="url(#clip462)" style="stroke:#ffffff; stroke-linecap:round; stroke-linejoin:round; stroke-width:4; stroke-opacity:1; fill:none" points="1246.73,1486.45 1246.73,47.2441 "/>
<polyline clip-path="url(#clip462)" style="stroke:#ffffff; stroke-linecap:round; stroke-linejoin:round; stroke-width:4; stroke-opacity:1; fill:none" points="1768.44,1486.45 1768.44,47.2441 "/>
<polyline clip-path="url(#clip462)" style="stroke:#ffffff; stroke-linecap:round; stroke-linejoin:round; stroke-width:4; stroke-opacity:1; fill:none" points="2290.15,1486.45 2290.15,47.2441 "/>
<polyline clip-path="url(#clip462)" style="stroke:#ffffff; stroke-linecap:round; stroke-linejoin:round; stroke-width:4; stroke-opacity:1; fill:none" points="140.696,1445.72 2352.76,1445.72 "/>
<polyline clip-path="url(#clip462)" style="stroke:#ffffff; stroke-linecap:round; stroke-linejoin:round; stroke-width:4; stroke-opacity:1; fill:none" points="140.696,1106.28 2352.76,1106.28 "/>
<polyline clip-path="url(#clip462)" style="stroke:#ffffff; stroke-linecap:round; stroke-linejoin:round; stroke-width:4; stroke-opacity:1; fill:none" points="140.696,766.846 2352.76,766.846 "/>
<polyline clip-path="url(#clip462)" style="stroke:#ffffff; stroke-linecap:round; stroke-linejoin:round; stroke-width:4; stroke-opacity:1; fill:none" points="140.696,427.411 2352.76,427.411 "/>
<polyline clip-path="url(#clip462)" style="stroke:#ffffff; stroke-linecap:round; stroke-linejoin:round; stroke-width:4; stroke-opacity:1; fill:none" points="140.696,87.9763 2352.76,87.9763 "/>
<polyline clip-path="url(#clip460)" style="stroke:#ffffff; stroke-linecap:round; stroke-linejoin:round; stroke-width:4; stroke-opacity:1; fill:none" points="140.696,1486.45 2352.76,1486.45 "/>
<polyline clip-path="url(#clip460)" style="stroke:#333333; stroke-linecap:round; stroke-linejoin:round; stroke-width:4; stroke-opacity:1; fill:none" points="203.301,1486.45 203.301,1505.35 "/>
<polyline clip-path="url(#clip460)" style="stroke:#333333; stroke-linecap:round; stroke-linejoin:round; stroke-width:4; stroke-opacity:1; fill:none" points="725.013,1486.45 725.013,1505.35 "/>
<polyline clip-path="url(#clip460)" style="stroke:#333333; stroke-linecap:round; stroke-linejoin:round; stroke-width:4; stroke-opacity:1; fill:none" points="1246.73,1486.45 1246.73,1505.35 "/>
<polyline clip-path="url(#clip460)" style="stroke:#333333; stroke-linecap:round; stroke-linejoin:round; stroke-width:4; stroke-opacity:1; fill:none" points="1768.44,1486.45 1768.44,1505.35 "/>
<polyline clip-path="url(#clip460)" style="stroke:#333333; stroke-linecap:round; stroke-linejoin:round; stroke-width:4; stroke-opacity:1; fill:none" points="2290.15,1486.45 2290.15,1505.35 "/>
<polyline clip-path="url(#clip460)" style="stroke:#333333; stroke-linecap:round; stroke-linejoin:round; stroke-width:4; stroke-opacity:1; fill:none" points="464.157,1486.45 464.157,1495.9 "/>
<polyline clip-path="url(#clip460)" style="stroke:#333333; stroke-linecap:round; stroke-linejoin:round; stroke-width:4; stroke-opacity:1; fill:none" points="985.87,1486.45 985.87,1495.9 "/>
<polyline clip-path="url(#clip460)" style="stroke:#333333; stroke-linecap:round; stroke-linejoin:round; stroke-width:4; stroke-opacity:1; fill:none" points="1507.58,1486.45 1507.58,1495.9 "/>
<polyline clip-path="url(#clip460)" style="stroke:#333333; stroke-linecap:round; stroke-linejoin:round; stroke-width:4; stroke-opacity:1; fill:none" points="2029.29,1486.45 2029.29,1495.9 "/>
<path clip-path="url(#clip460)" d="M173.243 1541.62 L202.919 1541.62 L202.919 1545.55 L173.243 1545.55 L173.243 1541.62 Z" fill="#4c4c4c" fill-rule="nonzero" fill-opacity="1" /><path clip-path="url(#clip460)" d="M217.039 1554.51 L233.359 1554.51 L233.359 1558.45 L211.414 1558.45 L211.414 1554.51 Q214.076 1551.76 218.66 1547.13 Q223.266 1542.48 224.447 1541.13 Q226.692 1538.61 227.572 1536.87 Q228.475 1535.11 228.475 1533.42 Q228.475 1530.67 226.53 1528.93 Q224.609 1527.2 221.507 1527.2 Q219.308 1527.2 216.854 1527.96 Q214.424 1528.73 211.646 1530.28 L211.646 1525.55 Q214.47 1524.42 216.924 1523.84 Q219.377 1523.26 221.414 1523.26 Q226.785 1523.26 229.979 1525.95 Q233.174 1528.63 233.174 1533.12 Q233.174 1535.25 232.363 1537.17 Q231.576 1539.07 229.47 1541.67 Q228.891 1542.34 225.789 1545.55 Q222.687 1548.75 217.039 1554.51 Z" fill="#4c4c4c" fill-rule="nonzero" fill-opacity="1" /><path clip-path="url(#clip460)" d="M694.77 1541.62 L724.446 1541.62 L724.446 1545.55 L694.77 1545.55 L694.77 1541.62 Z" fill="#4c4c4c" fill-rule="nonzero" fill-opacity="1" /><path clip-path="url(#clip460)" d="M735.349 1554.51 L742.988 1554.51 L742.988 1528.15 L734.678 1529.81 L734.678 1525.55 L742.942 1523.89 L747.617 1523.89 L747.617 1554.51 L755.256 1554.51 L755.256 1558.45 L735.349 1558.45 L735.349 1554.51 Z" fill="#4c4c4c" fill-rule="nonzero" fill-opacity="1" /><path clip-path="url(#clip460)" d="M1246.73 1526.97 Q1243.11 1526.97 1241.29 1530.53 Q1239.48 1534.07 1239.48 1541.2 Q1239.48 1548.31 1241.29 1551.87 Q1243.11 1555.42 1246.73 1555.42 Q1250.36 1555.42 1252.17 1551.87 Q1253.99 1548.31 1253.99 1541.2 Q1253.99 1534.07 1252.17 1530.53 Q1250.36 1526.97 1246.73 1526.97 M1246.73 1523.26 Q1252.54 1523.26 1255.59 1527.87 Q1258.67 1532.45 1258.67 1541.2 Q1258.67 1549.93 1255.59 1554.54 Q1252.54 1559.12 1246.73 1559.12 Q1240.92 1559.12 1237.84 1554.54 Q1234.78 1549.93 1234.78 1541.2 Q1234.78 1532.45 1237.84 1527.87 Q1240.92 1523.26 1246.73 1523.26 Z" fill="#4c4c4c" fill-rule="nonzero" fill-opacity="1" /><path clip-path="url(#clip460)" d="M1758.82 1554.51 L1766.46 1554.51 L1766.46 1528.15 L1758.15 1529.81 L1758.15 1525.55 L1766.41 1523.89 L1771.09 1523.89 L1771.09 1554.51 L1778.73 1554.51 L1778.73 1558.45 L1758.82 1558.45 L1758.82 1554.51 Z" fill="#4c4c4c" fill-rule="nonzero" fill-opacity="1" /><path clip-path="url(#clip460)" d="M2284.8 1554.51 L2301.12 1554.51 L2301.12 1558.45 L2279.18 1558.45 L2279.18 1554.51 Q2281.84 1551.76 2286.42 1547.13 Q2291.03 1542.48 2292.21 1541.13 Q2294.46 1538.61 2295.34 1536.87 Q2296.24 1535.11 2296.24 1533.42 Q2296.24 1530.67 2294.29 1528.93 Q2292.37 1527.2 2289.27 1527.2 Q2287.07 1527.2 2284.62 1527.96 Q2282.19 1528.73 2279.41 1530.28 L2279.41 1525.55 Q2282.23 1524.42 2284.69 1523.84 Q2287.14 1523.26 2289.18 1523.26 Q2294.55 1523.26 2297.74 1525.95 Q2300.94 1528.63 2300.94 1533.12 Q2300.94 1535.25 2300.13 1537.17 Q2299.34 1539.07 2297.23 1541.67 Q2296.66 1542.34 2293.55 1545.55 Q2290.45 1548.75 2284.8 1554.51 Z" fill="#4c4c4c" fill-rule="nonzero" fill-opacity="1" /><polyline clip-path="url(#clip460)" style="stroke:#ffffff; stroke-linecap:round; stroke-linejoin:round; stroke-width:4; stroke-opacity:1; fill:none" points="140.696,1486.45 140.696,47.2441 "/>
<polyline clip-path="url(#clip460)" style="stroke:#333333; stroke-linecap:round; stroke-linejoin:round; stroke-width:4; stroke-opacity:1; fill:none" points="140.696,1445.72 121.798,1445.72 "/>
<polyline clip-path="url(#clip460)" style="stroke:#333333; stroke-linecap:round; stroke-linejoin:round; stroke-width:4; stroke-opacity:1; fill:none" points="140.696,1106.28 121.798,1106.28 "/>
<polyline clip-path="url(#clip460)" style="stroke:#333333; stroke-linecap:round; stroke-linejoin:round; stroke-width:4; stroke-opacity:1; fill:none" points="140.696,766.846 121.798,766.846 "/>
<polyline clip-path="url(#clip460)" style="stroke:#333333; stroke-linecap:round; stroke-linejoin:round; stroke-width:4; stroke-opacity:1; fill:none" points="140.696,427.411 121.798,427.411 "/>
<polyline clip-path="url(#clip460)" style="stroke:#333333; stroke-linecap:round; stroke-linejoin:round; stroke-width:4; stroke-opacity:1; fill:none" points="140.696,87.9763 121.798,87.9763 "/>
<polyline clip-path="url(#clip460)" style="stroke:#333333; stroke-linecap:round; stroke-linejoin:round; stroke-width:4; stroke-opacity:1; fill:none" points="140.696,1276 131.247,1276 "/>
<polyline clip-path="url(#clip460)" style="stroke:#333333; stroke-linecap:round; stroke-linejoin:round; stroke-width:4; stroke-opacity:1; fill:none" points="140.696,936.563 131.247,936.563 "/>
<polyline clip-path="url(#clip460)" style="stroke:#333333; stroke-linecap:round; stroke-linejoin:round; stroke-width:4; stroke-opacity:1; fill:none" points="140.696,597.129 131.247,597.129 "/>
<polyline clip-path="url(#clip460)" style="stroke:#333333; stroke-linecap:round; stroke-linejoin:round; stroke-width:4; stroke-opacity:1; fill:none" points="140.696,257.694 131.247,257.694 "/>
<path clip-path="url(#clip460)" d="M74.7512 1431.51 Q71.1401 1431.51 69.3114 1435.08 Q67.5058 1438.62 67.5058 1445.75 Q67.5058 1452.86 69.3114 1456.42 Q71.1401 1459.96 74.7512 1459.96 Q78.3854 1459.96 80.1909 1456.42 Q82.0196 1452.86 82.0196 1445.75 Q82.0196 1438.62 80.1909 1435.08 Q78.3854 1431.51 74.7512 1431.51 M74.7512 1427.81 Q80.5613 1427.81 83.6169 1432.42 Q86.6955 1437 86.6955 1445.75 Q86.6955 1454.48 83.6169 1459.08 Q80.5613 1463.67 74.7512 1463.67 Q68.941 1463.67 65.8623 1459.08 Q62.8068 1454.48 62.8068 1445.75 Q62.8068 1437 65.8623 1432.42 Q68.941 1427.81 74.7512 1427.81 Z" fill="#4c4c4c" fill-rule="nonzero" fill-opacity="1" /><path clip-path="url(#clip460)" d="M65.7929 1089 L84.1493 1089 L84.1493 1092.94 L70.0753 1092.94 L70.0753 1101.41 Q71.0938 1101.06 72.1123 1100.9 Q73.1308 1100.71 74.1493 1100.71 Q79.9363 1100.71 83.3159 1103.89 Q86.6955 1107.06 86.6955 1112.47 Q86.6955 1118.05 83.2233 1121.15 Q79.7511 1124.23 73.4317 1124.23 Q71.2558 1124.23 68.9873 1123.86 Q66.7419 1123.49 64.3346 1122.75 L64.3346 1118.05 Q66.4179 1119.19 68.6401 1119.74 Q70.8623 1120.3 73.3391 1120.3 Q77.3437 1120.3 79.6817 1118.19 Q82.0196 1116.08 82.0196 1112.47 Q82.0196 1108.86 79.6817 1106.76 Q77.3437 1104.65 73.3391 1104.65 Q71.4641 1104.65 69.5892 1105.07 Q67.7373 1105.48 65.7929 1106.36 L65.7929 1089 Z" fill="#4c4c4c" fill-rule="nonzero" fill-opacity="1" /><path clip-path="url(#clip460)" d="M35.3995 780.191 L43.0384 780.191 L43.0384 753.825 L34.7282 755.492 L34.7282 751.233 L42.9921 749.566 L47.668 749.566 L47.668 780.191 L55.3068 780.191 L55.3068 784.126 L35.3995 784.126 L35.3995 780.191 Z" fill="#4c4c4c" fill-rule="nonzero" fill-opacity="1" /><path clip-path="url(#clip460)" d="M74.7512 752.645 Q71.1401 752.645 69.3114 756.209 Q67.5058 759.751 67.5058 766.881 Q67.5058 773.987 69.3114 777.552 Q71.1401 781.094 74.7512 781.094 Q78.3854 781.094 80.1909 777.552 Q82.0196 773.987 82.0196 766.881 Q82.0196 759.751 80.1909 756.209 Q78.3854 752.645 74.7512 752.645 M74.7512 748.941 Q80.5613 748.941 83.6169 753.547 Q86.6955 758.131 86.6955 766.881 Q86.6955 775.608 83.6169 780.214 Q80.5613 784.797 74.7512 784.797 Q68.941 784.797 65.8623 780.214 Q62.8068 775.608 62.8068 766.881 Q62.8068 758.131 65.8623 753.547 Q68.941 748.941 74.7512 748.941 Z" fill="#4c4c4c" fill-rule="nonzero" fill-opacity="1" /><path clip-path="url(#clip460)" d="M36.3949 440.756 L44.0337 440.756 L44.0337 414.39 L35.7236 416.057 L35.7236 411.798 L43.9874 410.131 L48.6633 410.131 L48.6633 440.756 L56.3022 440.756 L56.3022 444.691 L36.3949 444.691 L36.3949 440.756 Z" fill="#4c4c4c" fill-rule="nonzero" fill-opacity="1" /><path clip-path="url(#clip460)" d="M65.7929 410.131 L84.1493 410.131 L84.1493 414.066 L70.0753 414.066 L70.0753 422.538 Q71.0938 422.191 72.1123 422.029 Q73.1308 421.844 74.1493 421.844 Q79.9363 421.844 83.3159 425.015 Q86.6955 428.187 86.6955 433.603 Q86.6955 439.182 83.2233 442.284 Q79.7511 445.362 73.4317 445.362 Q71.2558 445.362 68.9873 444.992 Q66.7419 444.622 64.3346 443.881 L64.3346 439.182 Q66.4179 440.316 68.6401 440.872 Q70.8623 441.427 73.3391 441.427 Q77.3437 441.427 79.6817 439.321 Q82.0196 437.214 82.0196 433.603 Q82.0196 429.992 79.6817 427.886 Q77.3437 425.779 73.3391 425.779 Q71.4641 425.779 69.5892 426.196 Q67.7373 426.613 65.7929 427.492 L65.7929 410.131 Z" fill="#4c4c4c" fill-rule="nonzero" fill-opacity="1" /><path clip-path="url(#clip460)" d="M38.6171 101.321 L54.9365 101.321 L54.9365 105.256 L32.9921 105.256 L32.9921 101.321 Q35.6541 98.5665 40.2375 93.9369 Q44.8439 89.2841 46.0245 87.9416 Q48.2698 85.4184 49.1494 83.6823 Q50.0522 81.9231 50.0522 80.2333 Q50.0522 77.4786 48.1078 75.7425 Q46.1865 74.0064 43.0847 74.0064 Q40.8856 74.0064 38.4319 74.7703 Q36.0014 75.5342 33.2236 77.0851 L33.2236 72.3629 Q36.0477 71.2287 38.5014 70.65 Q40.955 70.0713 42.9921 70.0713 Q48.3624 70.0713 51.5568 72.7565 Q54.7513 75.4416 54.7513 79.9323 Q54.7513 82.062 53.9411 83.9832 Q53.1541 85.8814 51.0476 88.474 Q50.4689 89.1453 47.367 92.3628 Q44.2652 95.5573 38.6171 101.321 Z" fill="#4c4c4c" fill-rule="nonzero" fill-opacity="1" /><path clip-path="url(#clip460)" d="M74.7512 73.775 Q71.1401 73.775 69.3114 77.3398 Q67.5058 80.8814 67.5058 88.011 Q67.5058 95.1174 69.3114 98.6822 Q71.1401 102.224 74.7512 102.224 Q78.3854 102.224 80.1909 98.6822 Q82.0196 95.1174 82.0196 88.011 Q82.0196 80.8814 80.1909 77.3398 Q78.3854 73.775 74.7512 73.775 M74.7512 70.0713 Q80.5613 70.0713 83.6169 74.6777 Q86.6955 79.261 86.6955 88.011 Q86.6955 96.7378 83.6169 101.344 Q80.5613 105.928 74.7512 105.928 Q68.941 105.928 65.8623 101.344 Q62.8068 96.7378 62.8068 88.011 Q62.8068 79.261 65.8623 74.6777 Q68.941 70.0713 74.7512 70.0713 Z" fill="#4c4c4c" fill-rule="nonzero" fill-opacity="1" /><polyline clip-path="url(#clip462)" style="stroke:#009af9; stroke-linecap:round; stroke-linejoin:round; stroke-width:4; stroke-opacity:1; fill:none" points="203.301,834.733 208.518,850.877 213.735,866.726 218.952,882.282 224.17,897.549 229.387,912.531 234.604,927.23 239.821,941.65 245.038,955.793 250.255,969.663 255.472,983.263 260.689,996.596 265.907,1009.67 271.124,1022.47 276.341,1035.02 281.558,1047.32 286.775,1059.37 291.992,1071.16 297.209,1082.71 302.426,1094.02 307.643,1105.09 312.861,1115.92 318.078,1126.51 323.295,1136.88 328.512,1147.02 333.729,1156.93 338.946,1166.62 344.163,1176.09 349.38,1185.35 354.598,1194.39 359.815,1203.22 365.032,1211.84 370.249,1220.25 375.466,1228.47 380.683,1236.48 385.9,1244.29 391.117,1251.92 396.335,1259.34 401.552,1266.58 406.769,1273.64 411.986,1280.51 417.203,1287.19 422.42,1293.7 427.637,1300.03 432.854,1306.19 438.072,1312.18 443.289,1318 448.506,1323.65 453.723,1329.14 458.94,1334.47 464.157,1339.64 469.374,1344.66 474.591,1349.52 479.809,1354.23 485.026,1358.79 490.243,1363.2 495.46,1367.47 500.677,1371.6 505.894,1375.58 511.111,1379.43 516.328,1383.15 521.546,1386.73 526.763,1390.19 531.98,1393.51 537.197,1396.71 542.414,1399.79 547.631,1402.74 552.848,1405.58 558.065,1408.3 563.283,1410.9 568.5,1413.39 573.717,1415.78 578.934,1418.05 584.151,1420.21 589.368,1422.28 594.585,1424.24 599.802,1426.1 605.02,1427.86 610.237,1429.52 615.454,1431.09 620.671,1432.57 625.888,1433.96 631.105,1435.26 636.322,1436.48 641.539,1437.61 646.757,1438.66 651.974,1439.62 657.191,1440.51 662.408,1441.32 667.625,1442.06 672.842,1442.72 678.059,1443.31 683.276,1443.84 688.494,1444.29 693.711,1444.68 698.928,1445 704.145,1445.26 709.362,1445.46 714.579,1445.6 719.796,1445.69 725.013,1445.72 730.23,1445.69 735.448,1445.61 740.665,1445.48 745.882,1445.3 751.099,1445.07 756.316,1444.8 761.533,1444.48 766.75,1444.11 771.967,1443.71 777.185,1443.26 782.402,1442.78 787.619,1442.26 792.836,1441.7 798.053,1441.11 803.27,1440.49 808.487,1439.83 813.704,1439.15 818.922,1438.43 824.139,1437.69 829.356,1436.92 834.573,1436.12 839.79,1435.31 845.007,1434.46 850.224,1433.6 855.441,1432.72 860.659,1431.82 865.876,1430.9 871.093,1429.97 876.31,1429.02 881.527,1428.06 886.744,1427.08 891.961,1426.1 897.178,1425.1 902.396,1424.09 907.613,1423.07 912.83,1422.05 918.047,1421.02 923.264,1419.99 928.481,1418.95 933.698,1417.91 938.915,1416.87 944.133,1415.82 949.35,1414.78 954.567,1413.73 959.784,1412.69 965.001,1411.65 970.218,1410.61 975.435,1409.58 980.652,1408.55 985.87,1407.53 991.087,1406.51 996.304,1405.51 1001.52,1404.51 1006.74,1403.52 1011.96,1402.54 1017.17,1401.57 1022.39,1400.61 1027.61,1399.67 1032.82,1398.73 1038.04,1397.81 1043.26,1396.91 1048.48,1396.02 1053.69,1395.14 1058.91,1394.28 1064.13,1393.44 1069.34,1392.62 1074.56,1391.81 1079.78,1391.02 1084.99,1390.25 1090.21,1389.5 1095.43,1388.77 1100.65,1388.06 1105.86,1387.37 1111.08,1386.7 1116.3,1386.05 1121.51,1385.42 1126.73,1384.82 1131.95,1384.24 1137.17,1383.68 1142.38,1383.15 1147.6,1382.64 1152.82,1382.16 1158.03,1381.7 1163.25,1381.26 1168.47,1380.85 1173.69,1380.46 1178.9,1380.1 1184.12,1379.77 1189.34,1379.46 1194.55,1379.18 1199.77,1378.92 1204.99,1378.69 1210.21,1378.49 1215.42,1378.32 1220.64,1378.17 1225.86,1378.05 1231.07,1377.95 1236.29,1377.88 1241.51,1377.84 1246.73,1377.83 1251.94,1377.84 1257.16,1377.88 1262.38,1377.95 1267.59,1378.05 1272.81,1378.17 1278.03,1378.32 1283.25,1378.49 1288.46,1378.69 1293.68,1378.92 1298.9,1379.18 1304.11,1379.46 1309.33,1379.77 1314.55,1380.1 1319.77,1380.46 1324.98,1380.85 1330.2,1381.26 1335.42,1381.7 1340.63,1382.16 1345.85,1382.64 1351.07,1383.15 1356.29,1383.68 1361.5,1384.24 1366.72,1384.82 1371.94,1385.42 1377.15,1386.05 1382.37,1386.7 1387.59,1387.37 1392.81,1388.06 1398.02,1388.77 1403.24,1389.5 1408.46,1390.25 1413.67,1391.02 1418.89,1391.81 1424.11,1392.62 1429.33,1393.44 1434.54,1394.28 1439.76,1395.14 1444.98,1396.02 1450.19,1396.91 1455.41,1397.81 1460.63,1398.73 1465.84,1399.67 1471.06,1400.61 1476.28,1401.57 1481.5,1402.54 1486.71,1403.52 1491.93,1404.51 1497.15,1405.51 1502.36,1406.51 1507.58,1407.53 1512.8,1408.55 1518.02,1409.58 1523.23,1410.61 1528.45,1411.65 1533.67,1412.69 1538.88,1413.73 1544.1,1414.78 1549.32,1415.82 1554.54,1416.87 1559.75,1417.91 1564.97,1418.95 1570.19,1419.99 1575.4,1421.02 1580.62,1422.05 1585.84,1423.07 1591.06,1424.09 1596.27,1425.1 1601.49,1426.1 1606.71,1427.08 1611.92,1428.06 1617.14,1429.02 1622.36,1429.97 1627.58,1430.9 1632.79,1431.82 1638.01,1432.72 1643.23,1433.6 1648.44,1434.46 1653.66,1435.31 1658.88,1436.12 1664.1,1436.92 1669.31,1437.69 1674.53,1438.43 1679.75,1439.15 1684.96,1439.83 1690.18,1440.49 1695.4,1441.11 1700.62,1441.7 1705.83,1442.26 1711.05,1442.78 1716.27,1443.26 1721.48,1443.71 1726.7,1444.11 1731.92,1444.48 1737.14,1444.8 1742.35,1445.07 1747.57,1445.3 1752.79,1445.48 1758,1445.61 1763.22,1445.69 1768.44,1445.72 1773.66,1445.69 1778.87,1445.6 1784.09,1445.46 1789.31,1445.26 1794.52,1445 1799.74,1444.68 1804.96,1444.29 1810.18,1443.84 1815.39,1443.31 1820.61,1442.72 1825.83,1442.06 1831.04,1441.32 1836.26,1440.51 1841.48,1439.62 1846.69,1438.66 1851.91,1437.61 1857.13,1436.48 1862.35,1435.26 1867.56,1433.96 1872.78,1432.57 1878,1431.09 1883.21,1429.52 1888.43,1427.86 1893.65,1426.1 1898.87,1424.24 1904.08,1422.28 1909.3,1420.21 1914.52,1418.05 1919.73,1415.78 1924.95,1413.39 1930.17,1410.9 1935.39,1408.3 1940.6,1405.58 1945.82,1402.74 1951.04,1399.79 1956.25,1396.71 1961.47,1393.51 1966.69,1390.19 1971.91,1386.73 1977.12,1383.15 1982.34,1379.43 1987.56,1375.58 1992.77,1371.6 1997.99,1367.47 2003.21,1363.2 2008.43,1358.79 2013.64,1354.23 2018.86,1349.52 2024.08,1344.66 2029.29,1339.64 2034.51,1334.47 2039.73,1329.14 2044.95,1323.65 2050.16,1318 2055.38,1312.18 2060.6,1306.19 2065.81,1300.03 2071.03,1293.7 2076.25,1287.19 2081.47,1280.51 2086.68,1273.64 2091.9,1266.58 2097.12,1259.34 2102.33,1251.92 2107.55,1244.29 2112.77,1236.48 2117.99,1228.47 2123.2,1220.25 2128.42,1211.84 2133.64,1203.22 2138.85,1194.39 2144.07,1185.35 2149.29,1176.09 2154.51,1166.62 2159.72,1156.93 2164.94,1147.02 2170.16,1136.88 2175.37,1126.51 2180.59,1115.92 2185.81,1105.09 2191.03,1094.02 2196.24,1082.71 2201.46,1071.16 2206.68,1059.37 2211.89,1047.32 2217.11,1035.02 2222.33,1022.47 2227.54,1009.67 2232.76,996.596 2237.98,983.263 2243.2,969.663 2248.41,955.793 2253.63,941.65 2258.85,927.23 2264.06,912.531 2269.28,897.549 2274.5,882.282 2279.72,866.726 2284.93,850.877 2290.15,834.733 "/>
<polyline clip-path="url(#clip462)" style="stroke:#e26f46; stroke-linecap:round; stroke-linejoin:round; stroke-width:4; stroke-opacity:1; fill:none" points="203.301,-1609.2 208.518,-1528.48 213.735,-1449.23 218.952,-1371.45 224.17,-1295.12 229.387,-1220.21 234.604,-1146.71 239.821,-1074.62 245.038,-1003.9 250.255,-934.549 255.472,-866.548 260.689,-799.883 265.907,-734.537 271.124,-670.494 276.341,-607.74 281.558,-546.26 286.775,-486.038 291.992,-427.059 297.209,-369.308 302.426,-312.771 307.643,-257.433 312.861,-203.278 318.078,-150.293 323.295,-98.4625 328.512,-47.7725 333.729,1.79165 338.946,50.2441 344.163,97.5991 349.38,143.871 354.598,189.073 359.815,233.22 365.032,276.326 370.249,318.404 375.466,359.469 380.683,399.533 385.9,438.61 391.117,476.715 396.335,513.859 401.552,550.057 406.769,585.322 411.986,619.667 417.203,653.105 422.42,685.649 427.637,717.312 432.854,748.106 438.072,778.045 443.289,807.141 448.506,835.407 453.723,862.856 458.94,889.499 464.157,915.349 469.374,940.418 474.591,964.719 479.809,988.263 485.026,1011.06 490.243,1033.13 495.46,1054.48 500.677,1075.12 505.894,1095.06 511.111,1114.31 516.328,1132.89 521.546,1150.81 526.763,1168.08 531.98,1184.71 537.197,1200.7 542.414,1216.09 547.631,1230.86 552.848,1245.04 558.065,1258.63 563.283,1271.65 568.5,1284.11 573.717,1296.02 578.934,1307.38 584.151,1318.21 589.368,1328.52 594.585,1338.32 599.802,1347.61 605.02,1356.42 610.237,1364.75 615.454,1372.61 620.671,1380 625.888,1386.95 631.105,1393.45 636.322,1399.52 641.539,1405.17 646.757,1410.41 651.974,1415.25 657.191,1419.69 662.408,1423.75 667.625,1427.43 672.842,1430.75 678.059,1433.71 683.276,1436.32 688.494,1438.59 693.711,1440.53 698.928,1442.15 704.145,1443.46 709.362,1444.46 714.579,1445.16 719.796,1445.58 725.013,1445.72 730.23,1445.58 735.448,1445.18 740.665,1444.53 745.882,1443.63 751.099,1442.49 756.316,1441.12 761.533,1439.52 766.75,1437.71 771.967,1435.69 777.185,1433.46 782.402,1431.04 787.619,1428.44 792.836,1425.66 798.053,1422.7 803.27,1419.58 808.487,1416.3 813.704,1412.86 818.922,1409.29 824.139,1405.57 829.356,1401.72 834.573,1397.75 839.79,1393.66 845.007,1389.46 850.224,1385.15 855.441,1380.75 860.659,1376.24 865.876,1371.66 871.093,1366.99 876.31,1362.24 881.527,1357.43 886.744,1352.55 891.961,1347.61 897.178,1342.63 902.396,1337.59 907.613,1332.51 912.83,1327.4 918.047,1322.25 923.264,1317.08 928.481,1311.89 933.698,1306.68 938.915,1301.46 944.133,1296.24 949.35,1291.01 954.567,1285.79 959.784,1280.58 965.001,1275.38 970.218,1270.19 975.435,1265.03 980.652,1259.89 985.87,1254.78 991.087,1249.71 996.304,1244.67 1001.52,1239.68 1006.74,1234.73 1011.96,1229.83 1017.17,1224.99 1022.39,1220.2 1027.61,1215.47 1032.82,1210.81 1038.04,1206.21 1043.26,1201.68 1048.48,1197.23 1053.69,1192.86 1058.91,1188.56 1064.13,1184.35 1069.34,1180.22 1074.56,1176.18 1079.78,1172.24 1084.99,1168.39 1090.21,1164.63 1095.43,1160.97 1100.65,1157.42 1105.86,1153.97 1111.08,1150.62 1116.3,1147.38 1121.51,1144.26 1126.73,1141.24 1131.95,1138.34 1137.17,1135.56 1142.38,1132.89 1147.6,1130.35 1152.82,1127.92 1158.03,1125.62 1163.25,1123.44 1168.47,1121.38 1173.69,1119.46 1178.9,1117.66 1184.12,1115.99 1189.34,1114.45 1194.55,1113.04 1199.77,1111.76 1204.99,1110.61 1210.21,1109.6 1215.42,1108.72 1220.64,1107.98 1225.86,1107.37 1231.07,1106.89 1236.29,1106.55 1241.51,1106.35 1246.73,1106.28 1251.94,1106.35 1257.16,1106.55 1262.38,1106.89 1267.59,1107.37 1272.81,1107.98 1278.03,1108.72 1283.25,1109.6 1288.46,1110.61 1293.68,1111.76 1298.9,1113.04 1304.11,1114.45 1309.33,1115.99 1314.55,1117.66 1319.77,1119.46 1324.98,1121.38 1330.2,1123.44 1335.42,1125.62 1340.63,1127.92 1345.85,1130.35 1351.07,1132.89 1356.29,1135.56 1361.5,1138.34 1366.72,1141.24 1371.94,1144.26 1377.15,1147.38 1382.37,1150.62 1387.59,1153.97 1392.81,1157.42 1398.02,1160.97 1403.24,1164.63 1408.46,1168.39 1413.67,1172.24 1418.89,1176.18 1424.11,1180.22 1429.33,1184.35 1434.54,1188.56 1439.76,1192.86 1444.98,1197.23 1450.19,1201.68 1455.41,1206.21 1460.63,1210.81 1465.84,1215.47 1471.06,1220.2 1476.28,1224.99 1481.5,1229.83 1486.71,1234.73 1491.93,1239.68 1497.15,1244.67 1502.36,1249.71 1507.58,1254.78 1512.8,1259.89 1518.02,1265.03 1523.23,1270.19 1528.45,1275.38 1533.67,1280.58 1538.88,1285.79 1544.1,1291.01 1549.32,1296.24 1554.54,1301.46 1559.75,1306.68 1564.97,1311.89 1570.19,1317.08 1575.4,1322.25 1580.62,1327.4 1585.84,1332.51 1591.06,1337.59 1596.27,1342.63 1601.49,1347.61 1606.71,1352.55 1611.92,1357.43 1617.14,1362.24 1622.36,1366.99 1627.58,1371.66 1632.79,1376.24 1638.01,1380.75 1643.23,1385.15 1648.44,1389.46 1653.66,1393.66 1658.88,1397.75 1664.1,1401.72 1669.31,1405.57 1674.53,1409.29 1679.75,1412.86 1684.96,1416.3 1690.18,1419.58 1695.4,1422.7 1700.62,1425.66 1705.83,1428.44 1711.05,1431.04 1716.27,1433.46 1721.48,1435.69 1726.7,1437.71 1731.92,1439.52 1737.14,1441.12 1742.35,1442.49 1747.57,1443.63 1752.79,1444.53 1758,1445.18 1763.22,1445.58 1768.44,1445.72 1773.66,1445.58 1778.87,1445.16 1784.09,1444.46 1789.31,1443.46 1794.52,1442.15 1799.74,1440.53 1804.96,1438.59 1810.18,1436.32 1815.39,1433.71 1820.61,1430.75 1825.83,1427.43 1831.04,1423.75 1836.26,1419.69 1841.48,1415.25 1846.69,1410.41 1851.91,1405.17 1857.13,1399.52 1862.35,1393.45 1867.56,1386.95 1872.78,1380 1878,1372.61 1883.21,1364.75 1888.43,1356.42 1893.65,1347.61 1898.87,1338.32 1904.08,1328.52 1909.3,1318.21 1914.52,1307.38 1919.73,1296.02 1924.95,1284.11 1930.17,1271.65 1935.39,1258.63 1940.6,1245.04 1945.82,1230.86 1951.04,1216.09 1956.25,1200.7 1961.47,1184.71 1966.69,1168.08 1971.91,1150.81 1977.12,1132.89 1982.34,1114.31 1987.56,1095.06 1992.77,1075.12 1997.99,1054.48 2003.21,1033.13 2008.43,1011.06 2013.64,988.263 2018.86,964.719 2024.08,940.418 2029.29,915.349 2034.51,889.499 2039.73,862.856 2044.95,835.407 2050.16,807.141 2055.38,778.045 2060.6,748.106 2065.81,717.312 2071.03,685.649 2076.25,653.105 2081.47,619.667 2086.68,585.322 2091.9,550.057 2097.12,513.859 2102.33,476.715 2107.55,438.61 2112.77,399.533 2117.99,359.469 2123.2,318.404 2128.42,276.326 2133.64,233.22 2138.85,189.073 2144.07,143.871 2149.29,97.5991 2154.51,50.2441 2159.72,1.79165 2164.94,-47.7725 2170.16,-98.4625 2175.37,-150.293 2180.59,-203.278 2185.81,-257.433 2191.03,-312.771 2196.24,-369.308 2201.46,-427.059 2206.68,-486.038 2211.89,-546.26 2217.11,-607.74 2222.33,-670.494 2227.54,-734.537 2232.76,-799.883 2237.98,-866.548 2243.2,-934.549 2248.41,-1003.9 2253.63,-1074.62 2258.85,-1146.71 2264.06,-1220.21 2269.28,-1295.12 2274.5,-1371.45 2279.72,-1449.23 2284.93,-1528.48 2290.15,-1609.2 "/>
<polyline clip-path="url(#clip462)" style="stroke:#3da44d; stroke-linecap:round; stroke-linejoin:round; stroke-width:4; stroke-opacity:1; fill:none" points="203.301,-4664.11 208.518,-4502.67 213.735,-4344.18 218.952,-4188.62 224.17,-4035.95 229.387,-3886.13 234.604,-3739.14 239.821,-3594.95 245.038,-3453.51 250.255,-3314.81 255.472,-3178.81 260.689,-3045.48 265.907,-2914.79 271.124,-2786.7 276.341,-2661.2 281.558,-2538.24 286.775,-2417.79 291.992,-2299.83 297.209,-2184.33 302.426,-2071.26 307.643,-1960.58 312.861,-1852.27 318.078,-1746.3 323.295,-1642.64 328.512,-1541.26 333.729,-1442.13 338.946,-1345.23 344.163,-1250.52 349.38,-1157.97 354.598,-1067.57 359.815,-979.275 365.032,-893.063 370.249,-808.907 375.466,-726.778 380.683,-646.65 385.9,-568.495 391.117,-492.286 396.335,-417.997 401.552,-345.601 406.769,-275.071 411.986,-206.382 417.203,-139.506 422.42,-74.4182 427.637,-11.0925 432.854,50.4966 438.072,110.375 443.289,168.567 448.506,225.099 453.723,279.996 458.94,333.282 464.157,384.982 469.374,435.12 474.591,483.722 479.809,530.811 485.026,576.41 490.243,620.545 495.46,663.239 500.677,704.515 505.894,744.396 511.111,782.907 516.328,820.069 521.546,855.907 526.763,890.441 531.98,923.696 537.197,955.694 542.414,986.456 547.631,1016.01 552.848,1044.36 558.065,1071.55 563.283,1097.59 568.5,1122.51 573.717,1146.31 578.934,1169.04 584.151,1190.7 589.368,1211.32 594.585,1230.92 599.802,1249.51 605.02,1267.13 610.237,1283.78 615.454,1299.49 620.671,1314.29 625.888,1328.18 631.105,1341.18 636.322,1353.33 641.539,1364.63 646.757,1375.11 651.974,1384.78 657.191,1393.66 662.408,1401.78 667.625,1409.14 672.842,1415.78 678.059,1421.7 683.276,1426.92 688.494,1431.46 693.711,1435.34 698.928,1438.58 704.145,1441.2 709.362,1443.2 714.579,1444.61 719.796,1445.44 725.013,1445.72 730.23,1445.45 735.448,1444.65 740.665,1443.34 745.882,1441.54 751.099,1439.26 756.316,1436.52 761.533,1433.32 766.75,1429.7 771.967,1425.66 777.185,1421.21 782.402,1416.37 787.619,1411.16 792.836,1405.6 798.053,1399.68 803.27,1393.44 808.487,1386.88 813.704,1380.01 818.922,1372.86 824.139,1365.43 829.356,1357.73 834.573,1349.79 839.79,1341.61 845.007,1333.21 850.224,1324.59 855.441,1315.78 860.659,1306.77 865.876,1297.6 871.093,1288.26 876.31,1278.77 881.527,1269.14 886.744,1259.39 891.961,1249.51 897.178,1239.54 902.396,1229.46 907.613,1219.31 912.83,1209.08 918.047,1198.79 923.264,1188.45 928.481,1178.07 933.698,1167.65 938.915,1157.21 944.133,1146.77 949.35,1136.31 954.567,1125.87 959.784,1115.44 965.001,1105.04 970.218,1094.67 975.435,1084.34 980.652,1074.07 985.87,1063.85 991.087,1053.7 996.304,1043.63 1001.52,1033.64 1006.74,1023.75 1011.96,1013.95 1017.17,1004.26 1022.39,994.683 1027.61,985.227 1032.82,975.899 1038.04,966.705 1043.26,957.653 1048.48,948.748 1053.69,939.997 1058.91,931.407 1064.13,922.982 1069.34,914.729 1074.56,906.653 1079.78,898.76 1084.99,891.055 1090.21,883.544 1095.43,876.23 1100.65,869.12 1105.86,862.217 1111.08,855.527 1116.3,849.053 1121.51,842.799 1126.73,836.771 1131.95,830.97 1137.17,825.402 1142.38,820.069 1147.6,814.976 1152.82,810.124 1158.03,805.518 1163.25,801.159 1168.47,797.051 1173.69,793.197 1178.9,789.598 1184.12,786.257 1189.34,783.175 1194.55,780.355 1199.77,777.799 1204.99,775.508 1210.21,773.483 1215.42,771.725 1220.64,770.236 1225.86,769.017 1231.07,768.067 1236.29,767.389 1241.51,766.982 1246.73,766.846 1251.94,766.982 1257.16,767.389 1262.38,768.067 1267.59,769.017 1272.81,770.236 1278.03,771.725 1283.25,773.483 1288.46,775.508 1293.68,777.799 1298.9,780.355 1304.11,783.175 1309.33,786.257 1314.55,789.598 1319.77,793.197 1324.98,797.051 1330.2,801.159 1335.42,805.518 1340.63,810.124 1345.85,814.976 1351.07,820.069 1356.29,825.402 1361.5,830.97 1366.72,836.771 1371.94,842.799 1377.15,849.053 1382.37,855.527 1387.59,862.217 1392.81,869.12 1398.02,876.23 1403.24,883.544 1408.46,891.055 1413.67,898.76 1418.89,906.653 1424.11,914.729 1429.33,922.982 1434.54,931.407 1439.76,939.997 1444.98,948.748 1450.19,957.653 1455.41,966.705 1460.63,975.899 1465.84,985.227 1471.06,994.683 1476.28,1004.26 1481.5,1013.95 1486.71,1023.75 1491.93,1033.64 1497.15,1043.63 1502.36,1053.7 1507.58,1063.85 1512.8,1074.07 1518.02,1084.34 1523.23,1094.67 1528.45,1105.04 1533.67,1115.44 1538.88,1125.87 1544.1,1136.31 1549.32,1146.77 1554.54,1157.21 1559.75,1167.65 1564.97,1178.07 1570.19,1188.45 1575.4,1198.79 1580.62,1209.08 1585.84,1219.31 1591.06,1229.46 1596.27,1239.54 1601.49,1249.51 1606.71,1259.39 1611.92,1269.14 1617.14,1278.77 1622.36,1288.26 1627.58,1297.6 1632.79,1306.77 1638.01,1315.78 1643.23,1324.59 1648.44,1333.21 1653.66,1341.61 1658.88,1349.79 1664.1,1357.73 1669.31,1365.43 1674.53,1372.86 1679.75,1380.01 1684.96,1386.88 1690.18,1393.44 1695.4,1399.68 1700.62,1405.6 1705.83,1411.16 1711.05,1416.37 1716.27,1421.21 1721.48,1425.66 1726.7,1429.7 1731.92,1433.32 1737.14,1436.52 1742.35,1439.26 1747.57,1441.54 1752.79,1443.34 1758,1444.65 1763.22,1445.45 1768.44,1445.72 1773.66,1445.44 1778.87,1444.61 1784.09,1443.2 1789.31,1441.2 1794.52,1438.58 1799.74,1435.34 1804.96,1431.46 1810.18,1426.92 1815.39,1421.7 1820.61,1415.78 1825.83,1409.14 1831.04,1401.78 1836.26,1393.66 1841.48,1384.78 1846.69,1375.11 1851.91,1364.63 1857.13,1353.33 1862.35,1341.18 1867.56,1328.18 1872.78,1314.29 1878,1299.49 1883.21,1283.78 1888.43,1267.13 1893.65,1249.51 1898.87,1230.92 1904.08,1211.32 1909.3,1190.7 1914.52,1169.04 1919.73,1146.31 1924.95,1122.51 1930.17,1097.59 1935.39,1071.55 1940.6,1044.36 1945.82,1016.01 1951.04,986.456 1956.25,955.694 1961.47,923.696 1966.69,890.441 1971.91,855.907 1977.12,820.069 1982.34,782.907 1987.56,744.396 1992.77,704.515 1997.99,663.239 2003.21,620.545 2008.43,576.41 2013.64,530.811 2018.86,483.722 2024.08,435.12 2029.29,384.982 2034.51,333.282 2039.73,279.996 2044.95,225.099 2050.16,168.567 2055.38,110.375 2060.6,50.4966 2065.81,-11.0925 2071.03,-74.4182 2076.25,-139.506 2081.47,-206.382 2086.68,-275.071 2091.9,-345.601 2097.12,-417.997 2102.33,-492.286 2107.55,-568.495 2112.77,-646.65 2117.99,-726.778 2123.2,-808.907 2128.42,-893.063 2133.64,-979.275 2138.85,-1067.57 2144.07,-1157.97 2149.29,-1250.52 2154.51,-1345.23 2159.72,-1442.13 2164.94,-1541.26 2170.16,-1642.64 2175.37,-1746.3 2180.59,-1852.27 2185.81,-1960.58 2191.03,-2071.26 2196.24,-2184.33 2201.46,-2299.83 2206.68,-2417.79 2211.89,-2538.24 2217.11,-2661.2 2222.33,-2786.7 2227.54,-2914.79 2232.76,-3045.48 2237.98,-3178.81 2243.2,-3314.81 2248.41,-3453.51 2253.63,-3594.95 2258.85,-3739.14 2264.06,-3886.13 2269.28,-4035.95 2274.5,-4188.62 2279.72,-4344.18 2284.93,-4502.67 2290.15,-4664.11 "/>
<path clip-path="url(#clip460)" d="M1921.98 302.578 L2279.02 302.578 L2279.02 95.2176 L1921.98 95.2176  Z" fill="#eaeaea" fill-rule="evenodd" fill-opacity="1"/>
<polyline clip-path="url(#clip460)" style="stroke:#ffffff; stroke-linecap:round; stroke-linejoin:round; stroke-width:4; stroke-opacity:1; fill:none" points="1921.98,302.578 2279.02,302.578 2279.02,95.2176 1921.98,95.2176 1921.98,302.578 "/>
<polyline clip-path="url(#clip460)" style="stroke:#009af9; stroke-linecap:round; stroke-linejoin:round; stroke-width:4; stroke-opacity:1; fill:none" points="1946.56,147.058 2094.03,147.058 "/>
<path clip-path="url(#clip460)" d="M2145.52 144.249 Q2145.47 144.483 2145.38 144.905 Q2145.28 145.303 2144.86 146.568 Q2144.44 147.833 2143.88 149.121 Q2143.34 150.386 2142.29 152.166 Q2141.25 153.923 2139.99 155.515 Q2139.64 155.937 2139.57 156.194 Q2139.52 156.429 2139.52 157.202 Q2139.52 162.074 2141 162.074 Q2141.07 162.074 2141.18 162.074 Q2141.33 162.05 2141.68 161.933 Q2142.05 161.792 2142.38 161.582 Q2142.71 161.347 2143.08 160.879 Q2143.46 160.387 2143.69 159.731 Q2143.9 159.263 2144.32 159.263 Q2144.89 159.263 2144.89 159.731 Q2144.89 160.574 2143.71 161.863 Q2142.54 163.151 2140.86 163.151 Q2139.24 163.151 2138.09 162.097 Q2136.97 161.02 2136.5 159.099 Q2131.44 163.151 2126.38 163.151 Q2122.82 163.151 2120.71 160.832 Q2118.61 158.49 2118.61 155.023 Q2118.61 151.697 2120.43 148.535 Q2122.28 145.373 2125.28 143.406 Q2128.3 141.415 2131.51 141.415 Q2132.64 141.415 2133.71 141.719 Q2134.79 142 2135.87 142.727 Q2136.95 143.453 2137.74 144.554 Q2138.54 145.654 2139.03 147.388 Q2139.52 149.121 2139.52 151.299 L2139.52 154.274 Q2142.61 150.362 2144.23 144.764 Q2144.46 143.921 2144.6 143.827 Q2144.7 143.757 2144.93 143.757 Q2145.17 143.757 2145.31 143.898 Q2145.47 144.015 2145.49 144.132 L2145.52 144.249 M2136.31 157.857 Q2136.22 157.038 2136.22 152.494 Q2136.22 151.627 2136.22 151.159 Q2136.22 150.667 2136.17 149.73 Q2136.13 148.793 2136.03 148.207 Q2135.96 147.622 2135.8 146.779 Q2135.63 145.935 2135.4 145.397 Q2135.17 144.858 2134.79 144.249 Q2134.44 143.64 2133.97 143.289 Q2133.53 142.937 2132.87 142.703 Q2132.24 142.469 2131.46 142.469 Q2130.5 142.469 2129.5 142.82 Q2128.51 143.148 2127.25 144.202 Q2125.98 145.233 2124.93 146.872 Q2123.83 148.606 2122.99 151.791 Q2122.17 154.953 2122.17 156.85 Q2122.17 159.239 2123.27 160.668 Q2124.37 162.074 2126.48 162.074 Q2131.51 162.074 2136.31 157.857 Z" fill="#000000" fill-rule="nonzero" fill-opacity="1" /><path clip-path="url(#clip460)" d="M2162.29 155.328 Q2162.34 154.742 2163.25 154.742 L2192.65 154.742 Q2194.03 154.742 2194.05 155.281 Q2194.05 155.867 2192.74 155.843 L2163.58 155.843 Q2162.29 155.867 2162.29 155.328 M2162.29 145.959 Q2162.29 145.373 2163.3 145.397 L2192.6 145.397 Q2194.03 145.397 2194.05 145.959 Q2194.05 146.498 2192.84 146.498 L2163.25 146.498 Q2162.29 146.498 2162.29 145.959 Z" fill="#000000" fill-rule="nonzero" fill-opacity="1" /><path clip-path="url(#clip460)" d="M2212.55 135.231 L2212.55 133.732 Q2218.31 133.732 2221.28 130.664 Q2222.1 130.664 2222.24 130.851 Q2222.38 131.039 2222.38 131.905 L2222.38 158.818 Q2222.38 160.247 2223.09 160.692 Q2223.79 161.137 2226.86 161.137 L2228.38 161.137 L2228.38 162.612 Q2226.69 162.472 2220.6 162.472 Q2214.51 162.472 2212.85 162.612 L2212.85 161.137 L2214.37 161.137 Q2217.39 161.137 2218.12 160.715 Q2218.85 160.27 2218.85 158.818 L2218.85 133.967 Q2216.34 135.231 2212.55 135.231 Z" fill="#000000" fill-rule="nonzero" fill-opacity="1" /><polyline clip-path="url(#clip460)" style="stroke:#e26f46; stroke-linecap:round; stroke-linejoin:round; stroke-width:4; stroke-opacity:1; fill:none" points="1946.56,198.898 2094.03,198.898 "/>
<path clip-path="url(#clip460)" d="M2145.52 195.831 Q2145.47 196.065 2145.38 196.487 Q2145.28 196.885 2144.86 198.15 Q2144.44 199.415 2143.88 200.703 Q2143.34 201.968 2142.29 203.748 Q2141.25 205.505 2139.99 207.097 Q2139.64 207.519 2139.57 207.777 Q2139.52 208.011 2139.52 208.784 Q2139.52 213.656 2141 213.656 Q2141.07 213.656 2141.18 213.656 Q2141.33 213.632 2141.68 213.515 Q2142.05 213.375 2142.38 213.164 Q2142.71 212.93 2143.08 212.461 Q2143.46 211.969 2143.69 211.313 Q2143.9 210.845 2144.32 210.845 Q2144.89 210.845 2144.89 211.313 Q2144.89 212.157 2143.71 213.445 Q2142.54 214.733 2140.86 214.733 Q2139.24 214.733 2138.09 213.679 Q2136.97 212.602 2136.5 210.681 Q2131.44 214.733 2126.38 214.733 Q2122.82 214.733 2120.71 212.414 Q2118.61 210.072 2118.61 206.606 Q2118.61 203.28 2120.43 200.118 Q2122.28 196.956 2125.28 194.988 Q2128.3 192.997 2131.51 192.997 Q2132.64 192.997 2133.71 193.302 Q2134.79 193.583 2135.87 194.309 Q2136.95 195.035 2137.74 196.136 Q2138.54 197.237 2139.03 198.97 Q2139.52 200.703 2139.52 202.881 L2139.52 205.856 Q2142.61 201.944 2144.23 196.347 Q2144.46 195.503 2144.6 195.41 Q2144.7 195.339 2144.93 195.339 Q2145.17 195.339 2145.31 195.48 Q2145.47 195.597 2145.49 195.714 L2145.52 195.831 M2136.31 209.44 Q2136.22 208.62 2136.22 204.076 Q2136.22 203.209 2136.22 202.741 Q2136.22 202.249 2136.17 201.312 Q2136.13 200.375 2136.03 199.79 Q2135.96 199.204 2135.8 198.361 Q2135.63 197.518 2135.4 196.979 Q2135.17 196.44 2134.79 195.831 Q2134.44 195.222 2133.97 194.871 Q2133.53 194.52 2132.87 194.285 Q2132.24 194.051 2131.46 194.051 Q2130.5 194.051 2129.5 194.402 Q2128.51 194.73 2127.25 195.784 Q2125.98 196.815 2124.93 198.455 Q2123.83 200.188 2122.99 203.373 Q2122.17 206.535 2122.17 208.433 Q2122.17 210.822 2123.27 212.25 Q2124.37 213.656 2126.48 213.656 Q2131.51 213.656 2136.31 209.44 Z" fill="#000000" fill-rule="nonzero" fill-opacity="1" /><path clip-path="url(#clip460)" d="M2162.29 206.91 Q2162.34 206.324 2163.25 206.324 L2192.65 206.324 Q2194.03 206.324 2194.05 206.863 Q2194.05 207.449 2192.74 207.425 L2163.58 207.425 Q2162.29 207.449 2162.29 206.91 M2162.29 197.541 Q2162.29 196.956 2163.3 196.979 L2192.6 196.979 Q2194.03 196.979 2194.05 197.541 Q2194.05 198.08 2192.84 198.08 L2163.25 198.08 Q2162.29 198.08 2162.29 197.541 Z" fill="#000000" fill-rule="nonzero" fill-opacity="1" /><path clip-path="url(#clip460)" d="M2212.55 206.465 Q2212.55 205.036 2213.32 204.498 Q2214.09 203.935 2214.91 203.935 Q2216.01 203.935 2216.64 204.638 Q2217.3 205.317 2217.3 206.278 Q2217.3 207.238 2216.64 207.941 Q2216.01 208.62 2214.91 208.62 Q2214.37 208.62 2214.09 208.526 Q2214.72 210.728 2216.64 212.321 Q2218.59 213.913 2221.14 213.913 Q2224.35 213.913 2226.27 210.798 Q2227.42 208.784 2227.42 204.216 Q2227.42 200.188 2226.55 198.173 Q2225.22 195.105 2222.48 195.105 Q2218.59 195.105 2216.29 198.455 Q2216.01 198.876 2215.68 198.9 Q2215.22 198.9 2215.1 198.642 Q2215 198.361 2215 197.635 L2215 183.441 Q2215 182.293 2215.47 182.293 Q2215.66 182.293 2216.06 182.434 Q2219.08 183.769 2222.43 183.792 Q2225.87 183.792 2228.96 182.387 Q2229.2 182.246 2229.34 182.246 Q2229.81 182.246 2229.83 182.785 Q2229.83 182.972 2229.43 183.534 Q2229.06 184.073 2228.24 184.799 Q2227.42 185.502 2226.36 186.181 Q2225.31 186.86 2223.76 187.329 Q2222.24 187.774 2220.56 187.774 Q2218.54 187.774 2216.48 187.142 L2216.48 196.487 Q2218.96 194.051 2222.57 194.051 Q2226.41 194.051 2229.06 197.143 Q2231.7 200.235 2231.7 204.544 Q2231.7 209.065 2228.57 212.157 Q2225.45 215.248 2221.23 215.248 Q2217.39 215.248 2214.96 212.508 Q2212.55 209.768 2212.55 206.465 Z" fill="#000000" fill-rule="nonzero" fill-opacity="1" /><polyline clip-path="url(#clip460)" style="stroke:#3da44d; stroke-linecap:round; stroke-linejoin:round; stroke-width:4; stroke-opacity:1; fill:none" points="1946.56,250.738 2094.03,250.738 "/>
<path clip-path="url(#clip460)" d="M2145.52 247.671 Q2145.47 247.905 2145.38 248.327 Q2145.28 248.725 2144.86 249.99 Q2144.44 251.255 2143.88 252.543 Q2143.34 253.808 2142.29 255.588 Q2141.25 257.345 2139.99 258.937 Q2139.64 259.359 2139.57 259.617 Q2139.52 259.851 2139.52 260.624 Q2139.52 265.496 2141 265.496 Q2141.07 265.496 2141.18 265.496 Q2141.33 265.472 2141.68 265.355 Q2142.05 265.215 2142.38 265.004 Q2142.71 264.77 2143.08 264.301 Q2143.46 263.809 2143.69 263.153 Q2143.9 262.685 2144.32 262.685 Q2144.89 262.685 2144.89 263.153 Q2144.89 263.997 2143.71 265.285 Q2142.54 266.573 2140.86 266.573 Q2139.24 266.573 2138.09 265.519 Q2136.97 264.442 2136.5 262.521 Q2131.44 266.573 2126.38 266.573 Q2122.82 266.573 2120.71 264.254 Q2118.61 261.912 2118.61 258.446 Q2118.61 255.12 2120.43 251.958 Q2122.28 248.796 2125.28 246.828 Q2128.3 244.837 2131.51 244.837 Q2132.64 244.837 2133.71 245.142 Q2134.79 245.423 2135.87 246.149 Q2136.95 246.875 2137.74 247.976 Q2138.54 249.077 2139.03 250.81 Q2139.52 252.543 2139.52 254.721 L2139.52 257.696 Q2142.61 253.784 2144.23 248.187 Q2144.46 247.343 2144.6 247.25 Q2144.7 247.179 2144.93 247.179 Q2145.17 247.179 2145.31 247.32 Q2145.47 247.437 2145.49 247.554 L2145.52 247.671 M2136.31 261.28 Q2136.22 260.46 2136.22 255.916 Q2136.22 255.049 2136.22 254.581 Q2136.22 254.089 2136.17 253.152 Q2136.13 252.215 2136.03 251.63 Q2135.96 251.044 2135.8 250.201 Q2135.63 249.358 2135.4 248.819 Q2135.17 248.28 2134.79 247.671 Q2134.44 247.062 2133.97 246.711 Q2133.53 246.36 2132.87 246.125 Q2132.24 245.891 2131.46 245.891 Q2130.5 245.891 2129.5 246.242 Q2128.51 246.57 2127.25 247.624 Q2125.98 248.655 2124.93 250.295 Q2123.83 252.028 2122.99 255.213 Q2122.17 258.375 2122.17 260.273 Q2122.17 262.662 2123.27 264.09 Q2124.37 265.496 2126.48 265.496 Q2131.51 265.496 2136.31 261.28 Z" fill="#000000" fill-rule="nonzero" fill-opacity="1" /><path clip-path="url(#clip460)" d="M2162.29 258.75 Q2162.34 258.164 2163.25 258.164 L2192.65 258.164 Q2194.03 258.164 2194.05 258.703 Q2194.05 259.289 2192.74 259.265 L2163.58 259.265 Q2162.29 259.289 2162.29 258.75 M2162.29 249.381 Q2162.29 248.796 2163.3 248.819 L2192.6 248.819 Q2194.03 248.819 2194.05 249.381 Q2194.05 249.92 2192.84 249.92 L2163.25 249.92 Q2162.29 249.92 2162.29 249.381 Z" fill="#000000" fill-rule="nonzero" fill-opacity="1" /><path clip-path="url(#clip460)" d="M2212.55 238.654 L2212.55 237.155 Q2218.31 237.155 2221.28 234.086 Q2222.1 234.086 2222.24 234.274 Q2222.38 234.461 2222.38 235.328 L2222.38 262.24 Q2222.38 263.669 2223.09 264.114 Q2223.79 264.559 2226.86 264.559 L2228.38 264.559 L2228.38 266.034 Q2226.69 265.894 2220.6 265.894 Q2214.51 265.894 2212.85 266.034 L2212.85 264.559 L2214.37 264.559 Q2217.39 264.559 2218.12 264.137 Q2218.85 263.692 2218.85 262.24 L2218.85 237.389 Q2216.34 238.654 2212.55 238.654 Z" fill="#000000" fill-rule="nonzero" fill-opacity="1" /><path clip-path="url(#clip460)" d="M2230.69 250.693 Q2230.69 243.643 2232.47 239.801 Q2234.95 234.086 2240.81 234.086 Q2242.05 234.086 2243.34 234.438 Q2244.65 234.765 2246.29 236.054 Q2247.95 237.342 2248.96 239.45 Q2250.88 243.525 2250.88 250.693 Q2250.88 257.696 2249.1 261.514 Q2246.5 267.088 2240.76 267.088 Q2238.61 267.088 2236.41 265.988 Q2234.23 264.887 2232.85 262.24 Q2230.69 258.282 2230.69 250.693 M2234.67 250.107 Q2234.67 257.345 2235.19 260.226 Q2235.77 263.341 2237.37 264.699 Q2238.98 266.034 2240.76 266.034 Q2242.68 266.034 2244.28 264.606 Q2245.89 263.153 2246.39 260.038 Q2246.92 256.97 2246.9 250.107 Q2246.9 243.432 2246.43 240.762 Q2245.8 237.646 2244.11 236.405 Q2242.45 235.14 2240.76 235.14 Q2240.13 235.14 2239.45 235.328 Q2238.8 235.515 2237.84 236.054 Q2236.88 236.592 2236.13 237.927 Q2235.4 239.263 2235.05 241.277 Q2234.67 243.877 2234.67 250.107 Z" fill="#000000" fill-rule="nonzero" fill-opacity="1" /></svg>
