<?xml version="1.0" encoding="utf-8"?>
<svg xmlns="http://www.w3.org/2000/svg" xmlns:xlink="http://www.w3.org/1999/xlink" width="250" height="250" viewBox="0 0 1000 1000">
<defs>
  <clipPath id="clip420">
    <rect x="0" y="0" width="1000" height="1000"/>
  </clipPath>
</defs>
<path clip-path="url(#clip420)" d="
M0 1000 L1000 1000 L1000 0 L0 0  Z
  " fill="#000000" fill-rule="evenodd" fill-opacity="0"/>
<defs>
  <clipPath id="clip421">
    <rect x="200" y="100" width="701" height="701"/>
  </clipPath>
</defs>
<defs>
  <clipPath id="clip422">
    <rect x="220" y="61" width="734" height="734"/>
  </clipPath>
</defs>
<path clip-path="url(#clip420)" d="
M220.055 793.762 L952.756 793.762 L952.756 61.0618 L220.055 61.0618  Z
  " fill="#e5e9f0" fill-rule="evenodd" fill-opacity="1"/>
<polyline clip-path="url(#clip422)" style="stroke:#ffffff; stroke-linecap:butt; stroke-linejoin:round; stroke-width:4; stroke-opacity:1; fill:none" points="
  298.395,793.762 298.395,61.0618 
  "/>
<polyline clip-path="url(#clip422)" style="stroke:#ffffff; stroke-linecap:butt; stroke-linejoin:round; stroke-width:4; stroke-opacity:1; fill:none" points="
  442.4,793.762 442.4,61.0618 
  "/>
<polyline clip-path="url(#clip422)" style="stroke:#ffffff; stroke-linecap:butt; stroke-linejoin:round; stroke-width:4; stroke-opacity:1; fill:none" points="
  586.406,793.762 586.406,61.0618 
  "/>
<polyline clip-path="url(#clip422)" style="stroke:#ffffff; stroke-linecap:butt; stroke-linejoin:round; stroke-width:4; stroke-opacity:1; fill:none" points="
  730.411,793.762 730.411,61.0618 
  "/>
<polyline clip-path="url(#clip422)" style="stroke:#ffffff; stroke-linecap:butt; stroke-linejoin:round; stroke-width:4; stroke-opacity:1; fill:none" points="
  874.417,793.762 874.417,61.0618 
  "/>
<polyline clip-path="url(#clip422)" style="stroke:#ffffff; stroke-linecap:butt; stroke-linejoin:round; stroke-width:2; stroke-opacity:1; fill:none" points="
  226.392,793.762 226.392,61.0618 
  "/>
<polyline clip-path="url(#clip422)" style="stroke:#ffffff; stroke-linecap:butt; stroke-linejoin:round; stroke-width:2; stroke-opacity:1; fill:none" points="
  370.397,793.762 370.397,61.0618 
  "/>
<polyline clip-path="url(#clip422)" style="stroke:#ffffff; stroke-linecap:butt; stroke-linejoin:round; stroke-width:2; stroke-opacity:1; fill:none" points="
  514.403,793.762 514.403,61.0618 
  "/>
<polyline clip-path="url(#clip422)" style="stroke:#ffffff; stroke-linecap:butt; stroke-linejoin:round; stroke-width:2; stroke-opacity:1; fill:none" points="
  658.408,793.762 658.408,61.0618 
  "/>
<polyline clip-path="url(#clip422)" style="stroke:#ffffff; stroke-linecap:butt; stroke-linejoin:round; stroke-width:2; stroke-opacity:1; fill:none" points="
  802.414,793.762 802.414,61.0618 
  "/>
<polyline clip-path="url(#clip422)" style="stroke:#ffffff; stroke-linecap:butt; stroke-linejoin:round; stroke-width:2; stroke-opacity:1; fill:none" points="
  946.42,793.762 946.42,61.0618 
  "/>
<polyline clip-path="url(#clip420)" style="stroke:#ffffff; stroke-linecap:butt; stroke-linejoin:round; stroke-width:4; stroke-opacity:1; fill:none" points="
  220.055,793.762 952.756,793.762 
  "/>
<polyline clip-path="url(#clip420)" style="stroke:#333333; stroke-linecap:butt; stroke-linejoin:round; stroke-width:4; stroke-opacity:1; fill:none" points="
  298.395,793.762 298.395,811.973 
  "/>
<polyline clip-path="url(#clip420)" style="stroke:#333333; stroke-linecap:butt; stroke-linejoin:round; stroke-width:4; stroke-opacity:1; fill:none" points="
  442.4,793.762 442.4,811.973 
  "/>
<polyline clip-path="url(#clip420)" style="stroke:#333333; stroke-linecap:butt; stroke-linejoin:round; stroke-width:4; stroke-opacity:1; fill:none" points="
  586.406,793.762 586.406,811.973 
  "/>
<polyline clip-path="url(#clip420)" style="stroke:#333333; stroke-linecap:butt; stroke-linejoin:round; stroke-width:4; stroke-opacity:1; fill:none" points="
  730.411,793.762 730.411,811.973 
  "/>
<polyline clip-path="url(#clip420)" style="stroke:#333333; stroke-linecap:butt; stroke-linejoin:round; stroke-width:4; stroke-opacity:1; fill:none" points="
  874.417,793.762 874.417,811.973 
  "/>
<polyline clip-path="url(#clip420)" style="stroke:#333333; stroke-linecap:butt; stroke-linejoin:round; stroke-width:4; stroke-opacity:1; fill:none" points="
  226.392,793.762 226.392,802.868 
  "/>
<polyline clip-path="url(#clip420)" style="stroke:#333333; stroke-linecap:butt; stroke-linejoin:round; stroke-width:4; stroke-opacity:1; fill:none" points="
  370.397,793.762 370.397,802.868 
  "/>
<polyline clip-path="url(#clip420)" style="stroke:#333333; stroke-linecap:butt; stroke-linejoin:round; stroke-width:4; stroke-opacity:1; fill:none" points="
  514.403,793.762 514.403,802.868 
  "/>
<polyline clip-path="url(#clip420)" style="stroke:#333333; stroke-linecap:butt; stroke-linejoin:round; stroke-width:4; stroke-opacity:1; fill:none" points="
  658.408,793.762 658.408,802.868 
  "/>
<polyline clip-path="url(#clip420)" style="stroke:#333333; stroke-linecap:butt; stroke-linejoin:round; stroke-width:4; stroke-opacity:1; fill:none" points="
  802.414,793.762 802.414,802.868 
  "/>
<polyline clip-path="url(#clip420)" style="stroke:#333333; stroke-linecap:butt; stroke-linejoin:round; stroke-width:4; stroke-opacity:1; fill:none" points="
  946.42,793.762 946.42,802.868 
  "/>
<path clip-path="url(#clip420)" d="M271.862 829.404 Q271.862 822.898 273.504 819.353 Q275.796 814.079 281.199 814.079 Q282.345 814.079 283.534 814.403 Q284.744 814.706 286.257 815.894 Q287.792 817.083 288.722 819.029 Q290.494 822.79 290.494 829.404 Q290.494 835.867 288.851 839.39 Q286.452 844.535 281.156 844.535 Q279.168 844.535 277.136 843.519 Q275.126 842.503 273.85 840.06 Q271.862 836.407 271.862 829.404 M275.536 828.864 Q275.536 835.543 276.012 838.202 Q276.552 841.076 278.022 842.33 Q279.513 843.562 281.156 843.562 Q282.929 843.562 284.399 842.244 Q285.89 840.903 286.344 838.029 Q286.841 835.197 286.819 828.864 Q286.819 822.703 286.387 820.239 Q285.804 817.364 284.247 816.219 Q282.713 815.051 281.156 815.051 Q280.573 815.051 279.946 815.224 Q279.341 815.397 278.454 815.894 Q277.568 816.392 276.876 817.624 Q276.206 818.856 275.882 820.715 Q275.536 823.114 275.536 828.864 Z" fill="#000000" fill-rule="evenodd" fill-opacity="1" /><path clip-path="url(#clip420)" d="M296.698 842.849 Q296.028 842.136 296.028 841.206 Q296.028 840.277 296.698 839.607 Q297.368 838.915 298.384 838.915 Q299.356 838.915 300.005 839.563 Q300.675 840.19 300.675 841.228 Q300.675 842.244 299.962 842.914 Q299.27 843.562 298.384 843.562 Q297.368 843.562 296.698 842.849 Z" fill="#000000" fill-rule="evenodd" fill-opacity="1" /><path clip-path="url(#clip420)" d="M306.295 829.404 Q306.295 822.898 307.938 819.353 Q310.229 814.079 315.633 814.079 Q316.778 814.079 317.967 814.403 Q319.178 814.706 320.691 815.894 Q322.226 817.083 323.155 819.029 Q324.927 822.79 324.927 829.404 Q324.927 835.867 323.285 839.39 Q320.885 844.535 315.59 844.535 Q313.601 844.535 311.569 843.519 Q309.559 842.503 308.284 840.06 Q306.295 836.407 306.295 829.404 M309.97 828.864 Q309.97 835.543 310.445 838.202 Q310.986 841.076 312.455 842.33 Q313.947 843.562 315.59 843.562 Q317.362 843.562 318.832 842.244 Q320.323 840.903 320.777 838.029 Q321.274 835.197 321.253 828.864 Q321.253 822.703 320.821 820.239 Q320.237 817.364 318.681 816.219 Q317.146 815.051 315.59 815.051 Q315.006 815.051 314.379 815.224 Q313.774 815.397 312.888 815.894 Q312.001 816.392 311.31 817.624 Q310.64 818.856 310.315 820.715 Q309.97 823.114 309.97 828.864 Z" fill="#000000" fill-rule="evenodd" fill-opacity="1" /><path clip-path="url(#clip420)" d="M416.343 843.562 Q416.343 842.762 416.408 842.525 Q416.494 842.287 416.84 841.919 L425.335 832.452 Q429.982 827.221 429.982 822.66 Q429.982 819.699 428.426 817.58 Q426.891 815.462 424.059 815.462 Q422.114 815.462 420.471 816.651 Q418.828 817.84 418.072 819.958 Q418.202 819.915 418.656 819.915 Q419.758 819.915 420.363 820.607 Q420.99 821.298 420.99 822.228 Q420.99 823.417 420.212 824 Q419.455 824.562 418.699 824.562 Q418.396 824.562 417.985 824.497 Q417.596 824.433 416.97 823.827 Q416.343 823.2 416.343 822.098 Q416.343 819.007 418.677 816.543 Q421.033 814.079 424.621 814.079 Q428.685 814.079 431.344 816.5 Q434.024 818.899 434.024 822.66 Q434.024 823.979 433.613 825.189 Q433.224 826.378 432.684 827.307 Q432.165 828.237 430.739 829.728 Q429.312 831.22 428.166 832.279 Q427.021 833.338 424.448 835.586 L419.758 840.147 L427.734 840.147 Q431.625 840.147 431.927 839.801 Q432.36 839.174 432.9 835.867 L434.024 835.867 L432.77 843.562 L416.343 843.562 Z" fill="#000000" fill-rule="evenodd" fill-opacity="1" /><path clip-path="url(#clip420)" d="M440.703 842.849 Q440.033 842.136 440.033 841.206 Q440.033 840.277 440.703 839.607 Q441.373 838.915 442.389 838.915 Q443.362 838.915 444.01 839.563 Q444.681 840.19 444.681 841.228 Q444.681 842.244 443.967 842.914 Q443.276 843.562 442.389 843.562 Q441.373 843.562 440.703 842.849 Z" fill="#000000" fill-rule="evenodd" fill-opacity="1" /><path clip-path="url(#clip420)" d="M450.776 836.429 Q450.776 835.111 451.489 834.613 Q452.203 834.095 452.959 834.095 Q453.975 834.095 454.559 834.743 Q455.164 835.37 455.164 836.256 Q455.164 837.142 454.559 837.791 Q453.975 838.418 452.959 838.418 Q452.462 838.418 452.203 838.331 Q452.786 840.363 454.559 841.833 Q456.353 843.303 458.709 843.303 Q461.67 843.303 463.443 840.428 Q464.502 838.569 464.502 834.354 Q464.502 830.636 463.702 828.777 Q462.47 825.946 459.941 825.946 Q456.353 825.946 454.235 829.037 Q453.975 829.426 453.673 829.447 Q453.24 829.447 453.132 829.21 Q453.046 828.95 453.046 828.28 L453.046 815.181 Q453.046 814.122 453.478 814.122 Q453.651 814.122 454.018 814.252 Q456.807 815.484 459.898 815.505 Q463.075 815.505 465.929 814.208 Q466.145 814.079 466.274 814.079 Q466.707 814.079 466.728 814.576 Q466.728 814.749 466.361 815.268 Q466.015 815.765 465.258 816.435 Q464.502 817.083 463.529 817.71 Q462.557 818.337 461.13 818.769 Q459.725 819.18 458.169 819.18 Q456.31 819.18 454.407 818.596 L454.407 827.221 Q456.699 824.973 460.028 824.973 Q463.572 824.973 466.015 827.826 Q468.458 830.679 468.458 834.657 Q468.458 838.828 465.561 841.682 Q462.686 844.535 458.795 844.535 Q455.25 844.535 453.002 842.006 Q450.776 839.477 450.776 836.429 Z" fill="#000000" fill-rule="evenodd" fill-opacity="1" /><path clip-path="url(#clip420)" d="M560.111 836.429 Q560.111 835.111 560.824 834.613 Q561.537 834.095 562.294 834.095 Q563.31 834.095 563.893 834.743 Q564.498 835.37 564.498 836.256 Q564.498 837.142 563.893 837.791 Q563.31 838.418 562.294 838.418 Q561.797 838.418 561.537 838.331 Q562.121 840.363 563.893 841.833 Q565.687 843.303 568.043 843.303 Q571.005 843.303 572.777 840.428 Q573.836 838.569 573.836 834.354 Q573.836 830.636 573.037 828.777 Q571.804 825.946 569.275 825.946 Q565.687 825.946 563.569 829.037 Q563.31 829.426 563.007 829.447 Q562.575 829.447 562.467 829.21 Q562.38 828.95 562.38 828.28 L562.38 815.181 Q562.38 814.122 562.812 814.122 Q562.985 814.122 563.353 814.252 Q566.141 815.484 569.232 815.505 Q572.41 815.505 575.263 814.208 Q575.479 814.079 575.609 814.079 Q576.041 814.079 576.063 814.576 Q576.063 814.749 575.695 815.268 Q575.349 815.765 574.593 816.435 Q573.836 817.083 572.864 817.71 Q571.891 818.337 570.464 818.769 Q569.059 819.18 567.503 819.18 Q565.644 819.18 563.742 818.596 L563.742 827.221 Q566.033 824.973 569.362 824.973 Q572.907 824.973 575.349 827.826 Q577.792 830.679 577.792 834.657 Q577.792 838.828 574.895 841.682 Q572.021 844.535 568.13 844.535 Q564.585 844.535 562.337 842.006 Q560.111 839.477 560.111 836.429 Z" fill="#000000" fill-rule="evenodd" fill-opacity="1" /><path clip-path="url(#clip420)" d="M584.471 842.849 Q583.801 842.136 583.801 841.206 Q583.801 840.277 584.471 839.607 Q585.141 838.915 586.157 838.915 Q587.13 838.915 587.778 839.563 Q588.448 840.19 588.448 841.228 Q588.448 842.244 587.735 842.914 Q587.043 843.562 586.157 843.562 Q585.141 843.562 584.471 842.849 Z" fill="#000000" fill-rule="evenodd" fill-opacity="1" /><path clip-path="url(#clip420)" d="M594.068 829.404 Q594.068 822.898 595.711 819.353 Q598.002 814.079 603.406 814.079 Q604.552 814.079 605.741 814.403 Q606.951 814.706 608.464 815.894 Q609.999 817.083 610.928 819.029 Q612.701 822.79 612.701 829.404 Q612.701 835.867 611.058 839.39 Q608.659 844.535 603.363 844.535 Q601.374 844.535 599.343 843.519 Q597.332 842.503 596.057 840.06 Q594.068 836.407 594.068 829.404 M597.743 828.864 Q597.743 835.543 598.219 838.202 Q598.759 841.076 600.229 842.33 Q601.72 843.562 603.363 843.562 Q605.135 843.562 606.605 842.244 Q608.097 840.903 608.551 838.029 Q609.048 835.197 609.026 828.864 Q609.026 822.703 608.594 820.239 Q608.01 817.364 606.454 816.219 Q604.919 815.051 603.363 815.051 Q602.779 815.051 602.153 815.224 Q601.547 815.397 600.661 815.894 Q599.775 816.392 599.083 817.624 Q598.413 818.856 598.089 820.715 Q597.743 823.114 597.743 828.864 Z" fill="#000000" fill-rule="evenodd" fill-opacity="1" /><path clip-path="url(#clip420)" d="M704.494 822.747 L705.943 813.646 L707.045 813.646 Q707.175 814.187 707.391 814.425 Q707.629 814.662 708.882 814.857 Q710.158 815.051 712.73 815.051 L723.473 815.051 Q723.473 816.067 723.084 816.608 L717.096 825.016 Q715.194 827.675 714.351 832.582 Q713.854 835.867 713.875 839.844 L713.875 842.092 Q713.875 844.535 711.822 844.535 Q709.79 844.535 709.79 842.092 Q709.79 833.641 715.237 825.448 Q715.821 824.605 717.961 821.601 Q720.122 818.596 720.209 818.467 L711.044 818.467 Q707.023 818.467 706.699 818.726 Q706.267 819.115 705.597 822.747 L704.494 822.747 Z" fill="#000000" fill-rule="evenodd" fill-opacity="1" /><path clip-path="url(#clip420)" d="M728.574 842.849 Q727.904 842.136 727.904 841.206 Q727.904 840.277 728.574 839.607 Q729.244 838.915 730.26 838.915 Q731.233 838.915 731.881 839.563 Q732.551 840.19 732.551 841.228 Q732.551 842.244 731.838 842.914 Q731.146 843.562 730.26 843.562 Q729.244 843.562 728.574 842.849 Z" fill="#000000" fill-rule="evenodd" fill-opacity="1" /><path clip-path="url(#clip420)" d="M738.647 836.429 Q738.647 835.111 739.36 834.613 Q740.073 834.095 740.83 834.095 Q741.846 834.095 742.429 834.743 Q743.035 835.37 743.035 836.256 Q743.035 837.142 742.429 837.791 Q741.846 838.418 740.83 838.418 Q740.333 838.418 740.073 838.331 Q740.657 840.363 742.429 841.833 Q744.224 843.303 746.58 843.303 Q749.541 843.303 751.313 840.428 Q752.373 838.569 752.373 834.354 Q752.373 830.636 751.573 828.777 Q750.341 825.946 747.812 825.946 Q744.224 825.946 742.105 829.037 Q741.846 829.426 741.543 829.447 Q741.111 829.447 741.003 829.21 Q740.916 828.95 740.916 828.28 L740.916 815.181 Q740.916 814.122 741.349 814.122 Q741.522 814.122 741.889 814.252 Q744.677 815.484 747.768 815.505 Q750.946 815.505 753.799 814.208 Q754.015 814.079 754.145 814.079 Q754.577 814.079 754.599 814.576 Q754.599 814.749 754.231 815.268 Q753.886 815.765 753.129 816.435 Q752.373 817.083 751.4 817.71 Q750.427 818.337 749.001 818.769 Q747.596 819.18 746.039 819.18 Q744.18 819.18 742.278 818.596 L742.278 827.221 Q744.569 824.973 747.898 824.973 Q751.443 824.973 753.886 827.826 Q756.328 830.679 756.328 834.657 Q756.328 838.828 753.432 841.682 Q750.557 844.535 746.666 844.535 Q743.121 844.535 740.873 842.006 Q738.647 839.477 738.647 836.429 Z" fill="#000000" fill-rule="evenodd" fill-opacity="1" /><path clip-path="url(#clip420)" d="M837.919 818.294 L837.919 816.91 Q843.237 816.91 845.982 814.079 Q846.738 814.079 846.868 814.252 Q846.998 814.425 846.998 815.224 L846.998 840.06 Q846.998 841.379 847.646 841.79 Q848.295 842.2 851.126 842.2 L852.531 842.2 L852.531 843.562 Q850.975 843.432 845.355 843.432 Q839.735 843.432 838.2 843.562 L838.2 842.2 L839.605 842.2 Q842.394 842.2 843.064 841.811 Q843.734 841.401 843.734 840.06 L843.734 817.126 Q841.421 818.294 837.919 818.294 Z" fill="#000000" fill-rule="evenodd" fill-opacity="1" /><path clip-path="url(#clip420)" d="M857.849 829.404 Q857.849 822.898 859.491 819.353 Q861.783 814.079 867.187 814.079 Q868.332 814.079 869.521 814.403 Q870.731 814.706 872.245 815.894 Q873.779 817.083 874.709 819.029 Q876.481 822.79 876.481 829.404 Q876.481 835.867 874.838 839.39 Q872.439 844.535 867.143 844.535 Q865.155 844.535 863.123 843.519 Q861.113 842.503 859.837 840.06 Q857.849 836.407 857.849 829.404 M861.523 828.864 Q861.523 835.543 861.999 838.202 Q862.539 841.076 864.009 842.33 Q865.5 843.562 867.143 843.562 Q868.916 843.562 870.386 842.244 Q871.877 840.903 872.331 838.029 Q872.828 835.197 872.807 828.864 Q872.807 822.703 872.374 820.239 Q871.791 817.364 870.234 816.219 Q868.7 815.051 867.143 815.051 Q866.56 815.051 865.933 815.224 Q865.328 815.397 864.441 815.894 Q863.555 816.392 862.863 817.624 Q862.193 818.856 861.869 820.715 Q861.523 823.114 861.523 828.864 Z" fill="#000000" fill-rule="evenodd" fill-opacity="1" /><path clip-path="url(#clip420)" d="M882.685 842.849 Q882.015 842.136 882.015 841.206 Q882.015 840.277 882.685 839.607 Q883.355 838.915 884.371 838.915 Q885.343 838.915 885.992 839.563 Q886.662 840.19 886.662 841.228 Q886.662 842.244 885.949 842.914 Q885.257 843.562 884.371 843.562 Q883.355 843.562 882.685 842.849 Z" fill="#000000" fill-rule="evenodd" fill-opacity="1" /><path clip-path="url(#clip420)" d="M892.282 829.404 Q892.282 822.898 893.925 819.353 Q896.216 814.079 901.62 814.079 Q902.766 814.079 903.954 814.403 Q905.165 814.706 906.678 815.894 Q908.213 817.083 909.142 819.029 Q910.915 822.79 910.915 829.404 Q910.915 835.867 909.272 839.39 Q906.872 844.535 901.577 844.535 Q899.588 844.535 897.556 843.519 Q895.546 842.503 894.271 840.06 Q892.282 836.407 892.282 829.404 M895.957 828.864 Q895.957 835.543 896.432 838.202 Q896.973 841.076 898.442 842.33 Q899.934 843.562 901.577 843.562 Q903.349 843.562 904.819 842.244 Q906.31 840.903 906.764 838.029 Q907.262 835.197 907.24 828.864 Q907.24 822.703 906.808 820.239 Q906.224 817.364 904.668 816.219 Q903.133 815.051 901.577 815.051 Q900.993 815.051 900.366 815.224 Q899.761 815.397 898.875 815.894 Q897.989 816.392 897.297 817.624 Q896.627 818.856 896.303 820.715 Q895.957 823.114 895.957 828.864 Z" fill="#000000" fill-rule="evenodd" fill-opacity="1" /><path clip-path="url(#clip420)" d="M272.005 878.228 Q272.005 869.641 277.869 863.61 Q283.733 857.552 291.792 857.552 Q294.294 857.552 296.517 858.469 Q298.74 859.386 299.768 860.192 Q300.797 860.97 302.27 862.443 L305.132 858.247 Q305.577 857.552 306.021 857.552 Q306.494 857.552 306.577 857.83 Q306.661 858.08 306.661 858.913 L306.661 872.42 Q306.661 873.337 306.549 873.56 Q306.438 873.782 305.744 873.782 Q305.188 873.782 305.049 873.615 Q304.938 873.448 304.826 872.809 Q303.965 866.667 300.547 862.999 Q297.156 859.33 292.432 859.33 Q291.07 859.33 289.541 859.636 Q288.04 859.942 285.845 861.109 Q283.677 862.276 281.982 864.222 Q280.315 866.139 279.092 869.808 Q277.869 873.448 277.869 878.284 Q277.869 883.064 279.092 886.733 Q280.315 890.401 281.982 892.319 Q283.677 894.208 285.845 895.376 Q288.04 896.543 289.569 896.876 Q291.125 897.182 292.487 897.182 Q297.378 897.182 301.13 893.708 Q304.882 890.234 305.243 884.37 Q305.299 884.092 305.299 883.981 Q305.299 883.842 305.354 883.703 Q305.41 883.564 305.549 883.509 Q305.688 883.453 305.91 883.453 Q306.661 883.453 306.661 884.426 Q306.661 889.845 302.492 894.403 Q298.351 898.933 291.792 898.933 Q283.705 898.933 277.841 892.93 Q272.005 886.927 272.005 878.228 Z" fill="#000000" fill-rule="evenodd" fill-opacity="1" /><path clip-path="url(#clip420)" d="M312.274 892.263 Q312.274 887.427 317.972 884.871 Q321.39 883.231 328.449 882.814 L328.449 880.73 Q328.449 877.2 326.587 875.338 Q324.753 873.448 322.418 873.448 Q318.25 873.448 316.249 876.061 Q317.944 876.116 318.555 876.978 Q319.167 877.812 319.167 878.673 Q319.167 879.813 318.444 880.563 Q317.749 881.285 316.554 881.285 Q315.415 881.285 314.665 880.591 Q313.914 879.868 313.914 878.618 Q313.914 875.838 316.415 874.004 Q318.944 872.17 322.529 872.17 Q327.198 872.17 330.311 875.31 Q331.284 876.283 331.756 877.534 Q332.256 878.784 332.312 879.618 Q332.368 880.424 332.368 882.036 L332.368 893.402 Q332.368 893.736 332.479 894.292 Q332.59 894.848 333.09 895.57 Q333.618 896.265 334.48 896.265 Q336.536 896.265 336.508 892.624 L336.508 889.428 L337.954 889.428 L337.954 892.624 Q337.954 895.654 336.342 896.849 Q334.758 898.016 333.285 898.016 Q331.395 898.016 330.2 896.626 Q329.005 895.237 328.838 893.347 Q327.977 895.515 326.003 896.932 Q324.058 898.322 321.39 898.322 Q319.333 898.322 317.388 897.793 Q315.47 897.293 313.859 895.876 Q312.274 894.431 312.274 892.263 M316.666 892.207 Q316.666 894.32 318.166 895.681 Q319.667 897.043 321.779 897.043 Q324.169 897.043 326.309 895.209 Q328.449 893.347 328.449 889.706 L328.449 884.009 Q322.14 884.231 319.389 886.76 Q316.666 889.262 316.666 892.207 Z" fill="#000000" fill-rule="evenodd" fill-opacity="1" /><path clip-path="url(#clip420)" d="M339.927 897.682 L339.927 895.931 Q342.956 895.931 343.651 895.57 Q344.373 895.181 344.373 893.347 L344.373 878.089 Q344.373 875.977 343.623 875.449 Q342.9 874.921 339.927 874.921 L339.927 873.143 L347.847 872.531 L347.847 878.784 Q348.653 876.339 350.349 874.449 Q352.072 872.531 354.851 872.531 Q356.685 872.531 357.852 873.56 Q359.047 874.588 359.047 876.005 Q359.047 877.256 358.269 877.895 Q357.519 878.506 356.602 878.506 Q355.573 878.506 354.851 877.867 Q354.156 877.2 354.156 876.061 Q354.156 875.366 354.462 874.838 Q354.795 874.282 355.045 874.088 Q355.295 873.893 355.462 873.837 Q355.351 873.782 354.851 873.782 Q351.71 873.782 349.904 876.922 Q348.125 880.035 348.125 884.481 L348.125 893.236 Q348.125 894.875 348.792 895.403 Q349.487 895.931 352.461 895.931 L353.656 895.931 L353.656 897.682 Q351.377 897.516 346.43 897.516 Q345.735 897.516 344.651 897.543 Q343.567 897.571 342.15 897.627 Q340.733 897.682 339.927 897.682 Z" fill="#000000" fill-rule="evenodd" fill-opacity="1" /><path clip-path="url(#clip420)" d="M362.521 885.454 Q362.521 880.035 366.301 876.283 Q370.08 872.531 375.194 872.531 Q379.529 872.531 382.364 876.061 L382.364 863.749 Q382.364 861.637 381.614 861.109 Q380.891 860.581 377.945 860.581 L377.945 858.802 L386.144 858.191 L386.144 892.735 Q386.144 894.848 386.866 895.403 Q387.617 895.931 390.563 895.931 L390.563 897.682 L382.197 898.322 L382.197 894.542 Q379.251 898.294 374.583 898.322 Q369.691 898.322 366.106 894.57 Q362.521 890.818 362.521 885.454 M367.246 885.51 Q367.246 890.79 368.885 893.402 Q371.164 897.043 374.86 897.043 Q379.085 897.043 381.586 893.069 Q382.225 892.096 382.197 890.957 L382.197 879.285 Q382.197 878.145 381.586 877.2 Q379.251 873.782 375.444 873.782 Q371.47 873.782 368.996 877.422 Q367.246 880.146 367.246 885.51 Z" fill="#000000" fill-rule="evenodd" fill-opacity="1" /><path clip-path="url(#clip420)" d="M393.731 860.581 L393.731 858.802 L401.929 858.191 L401.929 876.227 Q405.236 872.531 409.739 872.531 Q414.63 872.531 418.215 876.283 Q421.8 880.035 421.8 885.399 Q421.8 890.818 418.048 894.57 Q414.296 898.322 409.099 898.322 Q404.375 898.322 401.651 894.153 Q399.65 897.627 399.595 897.682 L398.177 897.682 L398.177 863.749 Q398.177 861.637 397.427 861.109 Q396.677 860.581 393.731 860.581 M402.096 891.207 Q402.096 892.402 402.902 893.597 Q405.153 897.043 408.821 897.043 Q408.849 897.043 408.877 897.043 Q412.851 897.043 415.325 893.402 Q417.075 890.679 417.075 885.343 Q417.075 880.063 415.436 877.422 Q413.157 873.782 409.461 873.782 Q405.292 873.782 402.735 877.422 Q402.096 878.34 402.096 879.479 L402.096 891.207 Z" fill="#000000" fill-rule="evenodd" fill-opacity="1" /><path clip-path="url(#clip420)" d="M430.638 894.625 Q426.886 890.901 426.886 885.51 Q426.886 880.09 430.554 876.144 Q434.25 872.17 439.531 872.17 Q444.7 872.17 448.396 876.116 Q452.12 880.035 452.12 885.51 Q452.12 890.873 448.368 894.598 Q444.644 898.322 439.475 898.322 Q434.417 898.322 430.638 894.625 M431.61 885.037 Q431.61 890.568 433.055 893.069 Q435.279 896.876 439.531 896.876 Q441.643 896.876 443.394 895.737 Q445.172 894.598 446.145 892.68 Q447.396 890.179 447.396 885.037 Q447.396 879.562 445.895 877.145 Q443.672 873.448 439.475 873.448 Q437.641 873.448 435.835 874.421 Q434.056 875.366 432.972 877.256 Q431.61 879.757 431.61 885.037 Z" fill="#000000" fill-rule="evenodd" fill-opacity="1" /><path clip-path="url(#clip420)" d="M456.15 892.263 Q456.15 887.427 461.847 884.871 Q465.265 883.231 472.324 882.814 L472.324 880.73 Q472.324 877.2 470.462 875.338 Q468.628 873.448 466.294 873.448 Q462.125 873.448 460.124 876.061 Q461.819 876.116 462.431 876.978 Q463.042 877.812 463.042 878.673 Q463.042 879.813 462.32 880.563 Q461.625 881.285 460.43 881.285 Q459.29 881.285 458.54 880.591 Q457.79 879.868 457.79 878.618 Q457.79 875.838 460.291 874.004 Q462.82 872.17 466.405 872.17 Q471.074 872.17 474.186 875.31 Q475.159 876.283 475.632 877.534 Q476.132 878.784 476.187 879.618 Q476.243 880.424 476.243 882.036 L476.243 893.402 Q476.243 893.736 476.354 894.292 Q476.465 894.848 476.966 895.57 Q477.494 896.265 478.355 896.265 Q480.412 896.265 480.384 892.624 L480.384 889.428 L481.829 889.428 L481.829 892.624 Q481.829 895.654 480.217 896.849 Q478.633 898.016 477.16 898.016 Q475.27 898.016 474.075 896.626 Q472.88 895.237 472.714 893.347 Q471.852 895.515 469.879 896.932 Q467.933 898.322 465.265 898.322 Q463.209 898.322 461.264 897.793 Q459.346 897.293 457.734 895.876 Q456.15 894.431 456.15 892.263 M460.541 892.207 Q460.541 894.32 462.042 895.681 Q463.542 897.043 465.655 897.043 Q468.045 897.043 470.185 895.209 Q472.324 893.347 472.324 889.706 L472.324 884.009 Q466.016 884.231 463.265 886.76 Q460.541 889.262 460.541 892.207 Z" fill="#000000" fill-rule="evenodd" fill-opacity="1" /><path clip-path="url(#clip420)" d="M483.802 897.682 L483.802 895.931 Q486.832 895.931 487.526 895.57 Q488.249 895.181 488.249 893.347 L488.249 878.089 Q488.249 875.977 487.499 875.449 Q486.776 874.921 483.802 874.921 L483.802 873.143 L491.723 872.531 L491.723 878.784 Q492.529 876.339 494.224 874.449 Q495.947 872.531 498.726 872.531 Q500.56 872.531 501.728 873.56 Q502.923 874.588 502.923 876.005 Q502.923 877.256 502.145 877.895 Q501.394 878.506 500.477 878.506 Q499.449 878.506 498.726 877.867 Q498.031 877.2 498.031 876.061 Q498.031 875.366 498.337 874.838 Q498.671 874.282 498.921 874.088 Q499.171 873.893 499.338 873.837 Q499.226 873.782 498.726 873.782 Q495.586 873.782 493.779 876.922 Q492.001 880.035 492.001 884.481 L492.001 893.236 Q492.001 894.875 492.668 895.403 Q493.362 895.931 496.336 895.931 L497.531 895.931 L497.531 897.682 Q495.252 897.516 490.305 897.516 Q489.611 897.516 488.527 897.543 Q487.443 897.571 486.026 897.627 Q484.608 897.682 483.802 897.682 Z" fill="#000000" fill-rule="evenodd" fill-opacity="1" /><path clip-path="url(#clip420)" d="M506.397 885.454 Q506.397 880.035 510.176 876.283 Q513.956 872.531 519.069 872.531 Q523.405 872.531 526.24 876.061 L526.24 863.749 Q526.24 861.637 525.489 861.109 Q524.767 860.581 521.821 860.581 L521.821 858.802 L530.019 858.191 L530.019 892.735 Q530.019 894.848 530.742 895.403 Q531.492 895.931 534.438 895.931 L534.438 897.682 L526.073 898.322 L526.073 894.542 Q523.127 898.294 518.458 898.322 Q513.567 898.322 509.982 894.57 Q506.397 890.818 506.397 885.454 M511.121 885.51 Q511.121 890.79 512.761 893.402 Q515.04 897.043 518.736 897.043 Q522.96 897.043 525.461 893.069 Q526.101 892.096 526.073 890.957 L526.073 879.285 Q526.073 878.145 525.461 877.2 Q523.127 873.782 519.32 873.782 Q515.345 873.782 512.872 877.422 Q511.121 880.146 511.121 885.51 Z" fill="#000000" fill-rule="evenodd" fill-opacity="1" /><path clip-path="url(#clip420)" d="M556.838 874.921 L556.838 873.143 L561.312 873.143 L561.312 866.612 Q561.312 862.387 564.036 859.97 Q566.787 857.552 570.15 857.552 Q572.373 857.552 573.818 858.747 Q575.263 859.942 575.263 861.554 Q575.263 862.638 574.596 863.36 Q573.957 864.055 572.762 864.055 Q571.623 864.055 570.956 863.332 Q570.317 862.61 570.317 861.609 Q570.317 859.775 572.012 859.219 Q571.15 858.83 570.15 858.802 Q568.093 858.802 566.481 860.914 Q564.897 863.027 564.897 866.556 L564.897 873.143 L571.567 873.143 L571.567 874.921 L565.092 874.921 L565.092 893.236 Q565.092 894.875 565.759 895.403 Q566.454 895.931 569.399 895.931 L570.594 895.931 L570.594 897.682 Q568.316 897.516 563.369 897.516 Q562.674 897.516 561.59 897.543 Q560.534 897.571 559.089 897.627 Q557.671 897.682 556.893 897.682 L556.893 895.931 Q559.923 895.931 560.617 895.57 Q561.312 895.181 561.312 893.347 L561.312 874.921 L556.838 874.921 Z" fill="#000000" fill-rule="evenodd" fill-opacity="1" /><path clip-path="url(#clip420)" d="M577.626 894.625 Q573.874 890.901 573.874 885.51 Q573.874 880.09 577.542 876.144 Q581.238 872.17 586.519 872.17 Q591.688 872.17 595.384 876.116 Q599.108 880.035 599.108 885.51 Q599.108 890.873 595.356 894.598 Q591.632 898.322 586.463 898.322 Q581.405 898.322 577.626 894.625 M578.598 885.037 Q578.598 890.568 580.043 893.069 Q582.267 896.876 586.519 896.876 Q588.631 896.876 590.382 895.737 Q592.16 894.598 593.133 892.68 Q594.384 890.179 594.384 885.037 Q594.384 879.562 592.883 877.145 Q590.66 873.448 586.463 873.448 Q584.629 873.448 582.823 874.421 Q581.044 875.366 579.96 877.256 Q578.598 879.757 578.598 885.037 Z" fill="#000000" fill-rule="evenodd" fill-opacity="1" /><path clip-path="url(#clip420)" d="M602.332 897.682 L602.332 895.931 Q605.361 895.931 606.056 895.57 Q606.779 895.181 606.779 893.347 L606.779 878.089 Q606.779 875.977 606.028 875.449 Q605.306 874.921 602.332 874.921 L602.332 873.143 L610.253 872.531 L610.253 878.784 Q611.059 876.339 612.754 874.449 Q614.477 872.531 617.256 872.531 Q619.09 872.531 620.257 873.56 Q621.452 874.588 621.452 876.005 Q621.452 877.256 620.674 877.895 Q619.924 878.506 619.007 878.506 Q617.979 878.506 617.256 877.867 Q616.561 877.2 616.561 876.061 Q616.561 875.366 616.867 874.838 Q617.2 874.282 617.451 874.088 Q617.701 873.893 617.867 873.837 Q617.756 873.782 617.256 873.782 Q614.116 873.782 612.309 876.922 Q610.53 880.035 610.53 884.481 L610.53 893.236 Q610.53 894.875 611.197 895.403 Q611.892 895.931 614.866 895.931 L616.061 895.931 L616.061 897.682 Q613.782 897.516 608.835 897.516 Q608.14 897.516 607.057 897.543 Q605.973 897.571 604.555 897.627 Q603.138 897.682 602.332 897.682 Z" fill="#000000" fill-rule="evenodd" fill-opacity="1" /><path clip-path="url(#clip420)" d="M643.491 860.581 L643.491 858.802 L651.689 858.191 L651.689 876.227 Q654.997 872.531 659.499 872.531 Q664.39 872.531 667.975 876.283 Q671.56 880.035 671.56 885.399 Q671.56 890.818 667.808 894.57 Q664.057 898.322 658.86 898.322 Q654.135 898.322 651.411 894.153 Q649.41 897.627 649.355 897.682 L647.938 897.682 L647.938 863.749 Q647.938 861.637 647.187 861.109 Q646.437 860.581 643.491 860.581 M651.856 891.207 Q651.856 892.402 652.662 893.597 Q654.913 897.043 658.582 897.043 Q658.609 897.043 658.637 897.043 Q662.611 897.043 665.085 893.402 Q666.836 890.679 666.836 885.343 Q666.836 880.063 665.196 877.422 Q662.917 873.782 659.221 873.782 Q655.052 873.782 652.495 877.422 Q651.856 878.34 651.856 879.479 L651.856 891.207 Z" fill="#000000" fill-rule="evenodd" fill-opacity="1" /><path clip-path="url(#clip420)" d="M680.398 894.625 Q676.646 890.901 676.646 885.51 Q676.646 880.09 680.314 876.144 Q684.011 872.17 689.291 872.17 Q694.46 872.17 698.156 876.116 Q701.88 880.035 701.88 885.51 Q701.88 890.873 698.129 894.598 Q694.405 898.322 689.235 898.322 Q684.177 898.322 680.398 894.625 M681.37 885.037 Q681.37 890.568 682.816 893.069 Q685.039 896.876 689.291 896.876 Q691.403 896.876 693.154 895.737 Q694.933 894.598 695.905 892.68 Q697.156 890.179 697.156 885.037 Q697.156 879.562 695.655 877.145 Q693.432 873.448 689.235 873.448 Q687.401 873.448 685.595 874.421 Q683.816 875.366 682.732 877.256 Q681.37 879.757 681.37 885.037 Z" fill="#000000" fill-rule="evenodd" fill-opacity="1" /><path clip-path="url(#clip420)" d="M702.631 897.682 L702.631 895.931 Q707.077 895.931 709.912 892.513 Q709.912 892.513 715.248 885.732 L709.606 878.395 Q707.605 875.838 706.716 875.394 Q705.855 874.921 702.909 874.921 L702.909 873.143 Q705.243 873.309 708.3 873.309 Q709.995 873.309 714.47 873.143 L714.47 874.921 Q712.469 875.032 712.469 876.339 Q712.469 876.783 712.969 877.367 L717.416 883.12 L720.945 878.673 Q721.807 877.645 721.807 876.672 Q721.807 875.088 720.139 874.921 L720.139 873.143 Q722.363 873.309 725.614 873.309 Q728.06 873.309 730.283 873.143 L730.283 874.921 Q725.948 875.032 723.502 877.867 Q722.418 879.062 718.277 884.315 L725.892 894.153 Q726.809 895.348 727.837 895.654 Q728.866 895.931 731.311 895.931 L731.311 897.682 Q728.755 897.516 725.837 897.516 Q724.808 897.516 719.695 897.682 L719.695 895.931 Q720.723 895.876 721.223 895.431 Q721.751 894.959 721.751 894.486 Q721.751 894.264 720.556 892.624 L716.221 886.927 Q711.885 892.041 711.329 893.236 Q711.107 893.736 711.107 894.153 Q711.107 895.681 712.747 895.931 L712.747 897.682 Q708.662 897.516 707.355 897.516 Q704.854 897.516 702.631 897.682 Z" fill="#000000" fill-rule="evenodd" fill-opacity="1" /><path clip-path="url(#clip420)" d="M733.507 885.148 Q733.507 879.785 736.953 875.977 Q740.399 872.17 745.346 872.17 Q750.348 872.17 752.933 875.422 Q755.545 878.673 755.545 883.342 Q755.545 884.204 755.323 884.37 Q755.101 884.537 754.128 884.537 L738.231 884.537 Q738.231 890.345 739.954 893.069 Q742.345 896.876 746.374 896.876 Q746.93 896.876 747.597 896.765 Q748.264 896.654 749.626 896.182 Q750.988 895.681 752.183 894.375 Q753.378 893.069 754.072 891.012 Q754.239 890.206 754.795 890.234 Q755.545 890.234 755.545 890.901 Q755.545 891.402 754.99 892.541 Q754.462 893.653 753.433 894.987 Q752.405 896.321 750.404 897.321 Q748.431 898.322 746.041 898.322 Q741.038 898.322 737.259 894.542 Q733.507 890.735 733.507 885.148 M738.287 883.342 L751.794 883.342 Q751.794 882.147 751.571 880.813 Q751.377 879.479 750.765 877.645 Q750.182 875.783 748.792 874.616 Q747.403 873.448 745.346 873.448 Q744.429 873.448 743.428 873.837 Q742.456 874.226 741.261 875.171 Q740.066 876.116 739.232 878.256 Q738.398 880.396 738.287 883.342 Z" fill="#000000" fill-rule="evenodd" fill-opacity="1" /><path clip-path="url(#clip420)" d="M759.075 896.932 L759.075 889.428 Q759.075 888.789 759.103 888.567 Q759.13 888.344 759.297 888.178 Q759.464 888.011 759.797 888.011 Q760.187 888.011 760.325 888.178 Q760.492 888.344 760.603 888.984 Q761.465 892.902 763.299 894.987 Q765.161 897.043 768.524 897.043 Q771.72 897.043 773.332 895.626 Q774.944 894.208 774.944 891.874 Q774.944 887.705 769.024 886.649 Q765.606 885.954 764.188 885.51 Q762.771 885.037 761.521 884.009 Q759.075 882.008 759.075 879.173 Q759.075 876.339 761.215 874.254 Q763.383 872.17 768.163 872.17 Q771.359 872.17 773.526 873.782 Q774.166 873.282 774.499 872.865 Q775.249 872.17 775.638 872.17 Q776.083 872.17 776.167 872.476 Q776.25 872.754 776.25 873.56 L776.25 879.285 Q776.25 879.924 776.222 880.146 Q776.194 880.368 776.028 880.535 Q775.861 880.674 775.5 880.674 Q774.86 880.674 774.833 880.146 Q774.388 873.254 768.163 873.254 Q764.8 873.254 763.299 874.56 Q761.798 875.838 761.798 877.589 Q761.798 878.562 762.243 879.312 Q762.716 880.035 763.299 880.48 Q763.911 880.896 765.022 881.313 Q766.134 881.702 766.801 881.841 Q767.496 881.98 768.802 882.258 Q773.36 883.12 775.277 884.982 Q777.667 887.372 777.667 890.401 Q777.667 893.764 775.388 896.043 Q773.109 898.322 768.524 898.322 Q764.828 898.322 762.243 895.848 Q761.91 896.182 761.659 896.487 Q761.409 896.765 761.298 896.876 Q761.215 896.988 761.187 897.071 Q761.159 897.127 761.104 897.182 Q759.964 898.322 759.686 898.322 Q759.242 898.322 759.158 898.016 Q759.075 897.738 759.075 896.932 Z" fill="#000000" fill-rule="evenodd" fill-opacity="1" /><path clip-path="url(#clip420)" d="M804.152 883.453 Q804.152 873.837 807.737 866.084 Q809.266 862.832 811.406 860.109 Q813.546 857.385 814.963 856.19 Q816.381 854.995 816.77 854.995 Q817.325 854.995 817.353 855.551 Q817.353 855.829 816.603 856.523 Q807.432 865.861 807.46 883.453 Q807.46 901.101 816.381 910.077 Q817.353 911.05 817.353 911.356 Q817.353 911.911 816.77 911.911 Q816.381 911.911 815.019 910.772 Q813.657 909.633 811.545 907.02 Q809.433 904.408 807.904 901.212 Q804.152 893.458 804.152 883.453 Z" fill="#000000" fill-rule="evenodd" fill-opacity="1" /><path clip-path="url(#clip420)" d="M861.569 889.962 Q861.569 890.173 861.332 890.989 Q861.095 891.806 860.515 893.071 Q859.962 894.336 859.171 895.495 Q858.407 896.628 857.142 897.472 Q855.904 898.288 854.481 898.288 Q852.583 898.288 851.319 897.024 Q850.054 895.759 850.054 893.862 Q850.054 892.834 850.765 890.884 Q854.112 881.978 854.112 878.789 Q854.112 875.021 851.187 875.021 Q849.527 875.021 848.025 875.706 Q846.523 876.391 845.548 877.34 Q844.573 878.289 843.809 879.369 Q843.045 880.449 842.702 881.161 Q842.386 881.872 842.307 882.188 L839.066 895.205 Q838.802 896.312 838.618 896.839 Q838.433 897.366 837.933 897.814 Q837.432 898.288 836.642 898.288 Q835.983 898.288 835.509 897.893 Q835.061 897.498 835.061 896.813 Q835.061 896.707 835.192 896.154 Q835.324 895.601 835.509 894.837 Q835.693 894.072 835.772 893.624 Q836.721 890.041 836.852 889.54 L838.354 883.269 Q839.171 880.159 839.171 878.789 Q839.171 875.021 836.246 875.021 Q834.797 875.021 833.427 875.574 Q832.083 876.101 831.161 876.839 Q830.238 877.577 829.395 878.605 Q828.578 879.606 828.157 880.291 Q827.762 880.95 827.445 881.609 L826.76 884.296 Q826.602 885.034 825.838 887.906 L824.652 892.781 Q823.809 896.418 823.625 896.76 Q823.361 897.498 822.781 897.893 Q822.202 898.288 821.622 898.288 Q820.963 898.288 820.515 897.893 Q820.067 897.498 820.067 896.813 Q820.067 896.707 820.146 896.312 Q820.225 895.917 820.357 895.364 Q820.489 894.81 820.542 894.494 L823.677 882.03 Q824.257 879.764 824.389 879.053 Q824.547 878.315 824.547 877.498 Q824.547 875.021 822.86 875.021 Q821.49 875.021 820.594 876.655 Q819.698 878.289 818.934 881.451 Q818.697 882.32 818.539 882.505 Q818.407 882.689 818.012 882.689 Q817.353 882.663 817.353 882.136 Q817.353 882.004 817.564 881.161 Q817.775 880.318 818.17 879.053 Q818.592 877.762 819.04 876.918 Q819.303 876.365 819.54 875.996 Q819.777 875.627 820.252 875.047 Q820.726 874.468 821.437 874.152 Q822.149 873.835 823.019 873.835 Q824.942 873.835 826.365 875.074 Q827.814 876.312 827.999 878.526 Q831.503 873.835 836.404 873.835 Q839.171 873.835 840.831 875.232 Q842.386 876.576 842.57 879.053 Q846.207 873.835 851.371 873.835 Q854.349 873.835 855.956 875.39 Q857.564 876.918 857.564 879.606 Q857.564 881.003 856.852 883.664 Q856.141 886.299 855.666 887.617 Q855.192 888.934 854.27 891.464 Q853.295 893.888 853.295 895.311 Q853.295 896.233 853.611 896.655 Q853.927 897.076 854.612 897.076 Q855.666 897.076 856.589 896.47 Q857.511 895.838 858.17 894.81 Q858.855 893.756 859.303 892.702 Q859.751 891.622 860.093 890.41 Q860.304 889.751 860.41 889.593 Q860.541 889.435 860.91 889.435 Q861.569 889.435 861.569 889.962 Z" fill="#000000" fill-rule="evenodd" fill-opacity="1" /><path clip-path="url(#clip420)" d="M866.902 881.538 Q866.902 880.856 866.958 880.653 Q867.031 880.45 867.327 880.136 L874.575 872.058 Q878.541 867.594 878.541 863.702 Q878.541 861.175 877.213 859.367 Q875.904 857.56 873.487 857.56 Q871.827 857.56 870.425 858.574 Q869.023 859.589 868.378 861.396 Q868.489 861.359 868.876 861.359 Q869.817 861.359 870.333 861.95 Q870.868 862.54 870.868 863.333 Q870.868 864.347 870.204 864.845 Q869.558 865.325 868.913 865.325 Q868.655 865.325 868.304 865.27 Q867.972 865.214 867.437 864.698 Q866.902 864.163 866.902 863.222 Q866.902 860.585 868.894 858.482 Q870.905 856.379 873.967 856.379 Q877.434 856.379 879.703 858.445 Q881.99 860.492 881.99 863.702 Q881.99 864.827 881.64 865.86 Q881.308 866.874 880.847 867.668 Q880.404 868.461 879.187 869.733 Q877.969 871.006 876.992 871.91 Q876.014 872.814 873.819 874.732 L869.817 878.624 L876.623 878.624 Q879.943 878.624 880.201 878.329 Q880.57 877.794 881.031 874.972 L881.99 874.972 L880.921 881.538 L866.902 881.538 Z" fill="#000000" fill-rule="evenodd" fill-opacity="1" /><path clip-path="url(#clip420)" d="M887.606 911.356 Q887.606 911.078 888.328 910.383 Q897.499 901.045 897.499 883.453 Q897.499 865.806 888.689 856.885 Q887.606 855.856 887.606 855.551 Q887.606 854.995 888.161 854.995 Q888.551 854.995 889.912 856.134 Q891.302 857.274 893.386 859.886 Q895.498 862.499 897.055 865.695 Q900.806 873.448 900.806 883.453 Q900.806 893.069 897.221 900.823 Q895.693 904.074 893.553 906.798 Q891.413 909.521 889.996 910.716 Q888.578 911.911 888.161 911.911 Q887.606 911.911 887.606 911.356 Z" fill="#000000" fill-rule="evenodd" fill-opacity="1" /><polyline clip-path="url(#clip422)" style="stroke:#ffffff; stroke-linecap:butt; stroke-linejoin:round; stroke-width:4; stroke-opacity:1; fill:none" points="
  220.055,715.423 952.756,715.423 
  "/>
<polyline clip-path="url(#clip422)" style="stroke:#ffffff; stroke-linecap:butt; stroke-linejoin:round; stroke-width:4; stroke-opacity:1; fill:none" points="
  220.055,571.418 952.756,571.418 
  "/>
<polyline clip-path="url(#clip422)" style="stroke:#ffffff; stroke-linecap:butt; stroke-linejoin:round; stroke-width:4; stroke-opacity:1; fill:none" points="
  220.055,427.412 952.756,427.412 
  "/>
<polyline clip-path="url(#clip422)" style="stroke:#ffffff; stroke-linecap:butt; stroke-linejoin:round; stroke-width:4; stroke-opacity:1; fill:none" points="
  220.055,283.406 952.756,283.406 
  "/>
<polyline clip-path="url(#clip422)" style="stroke:#ffffff; stroke-linecap:butt; stroke-linejoin:round; stroke-width:4; stroke-opacity:1; fill:none" points="
  220.055,139.401 952.756,139.401 
  "/>
<polyline clip-path="url(#clip422)" style="stroke:#ffffff; stroke-linecap:butt; stroke-linejoin:round; stroke-width:2; stroke-opacity:1; fill:none" points="
  220.055,787.426 952.756,787.426 
  "/>
<polyline clip-path="url(#clip422)" style="stroke:#ffffff; stroke-linecap:butt; stroke-linejoin:round; stroke-width:2; stroke-opacity:1; fill:none" points="
  220.055,643.42 952.756,643.42 
  "/>
<polyline clip-path="url(#clip422)" style="stroke:#ffffff; stroke-linecap:butt; stroke-linejoin:round; stroke-width:2; stroke-opacity:1; fill:none" points="
  220.055,499.415 952.756,499.415 
  "/>
<polyline clip-path="url(#clip422)" style="stroke:#ffffff; stroke-linecap:butt; stroke-linejoin:round; stroke-width:2; stroke-opacity:1; fill:none" points="
  220.055,355.409 952.756,355.409 
  "/>
<polyline clip-path="url(#clip422)" style="stroke:#ffffff; stroke-linecap:butt; stroke-linejoin:round; stroke-width:2; stroke-opacity:1; fill:none" points="
  220.055,211.404 952.756,211.404 
  "/>
<polyline clip-path="url(#clip422)" style="stroke:#ffffff; stroke-linecap:butt; stroke-linejoin:round; stroke-width:2; stroke-opacity:1; fill:none" points="
  220.055,67.398 952.756,67.398 
  "/>
<polyline clip-path="url(#clip420)" style="stroke:#ffffff; stroke-linecap:butt; stroke-linejoin:round; stroke-width:4; stroke-opacity:1; fill:none" points="
  220.055,793.762 220.055,61.0618 
  "/>
<polyline clip-path="url(#clip420)" style="stroke:#333333; stroke-linecap:butt; stroke-linejoin:round; stroke-width:4; stroke-opacity:1; fill:none" points="
  220.055,715.423 201.158,715.423 
  "/>
<polyline clip-path="url(#clip420)" style="stroke:#333333; stroke-linecap:butt; stroke-linejoin:round; stroke-width:4; stroke-opacity:1; fill:none" points="
  220.055,571.418 201.158,571.418 
  "/>
<polyline clip-path="url(#clip420)" style="stroke:#333333; stroke-linecap:butt; stroke-linejoin:round; stroke-width:4; stroke-opacity:1; fill:none" points="
  220.055,427.412 201.158,427.412 
  "/>
<polyline clip-path="url(#clip420)" style="stroke:#333333; stroke-linecap:butt; stroke-linejoin:round; stroke-width:4; stroke-opacity:1; fill:none" points="
  220.055,283.406 201.158,283.406 
  "/>
<polyline clip-path="url(#clip420)" style="stroke:#333333; stroke-linecap:butt; stroke-linejoin:round; stroke-width:4; stroke-opacity:1; fill:none" points="
  220.055,139.401 201.158,139.401 
  "/>
<polyline clip-path="url(#clip420)" style="stroke:#333333; stroke-linecap:butt; stroke-linejoin:round; stroke-width:4; stroke-opacity:1; fill:none" points="
  220.055,787.426 210.607,787.426 
  "/>
<polyline clip-path="url(#clip420)" style="stroke:#333333; stroke-linecap:butt; stroke-linejoin:round; stroke-width:4; stroke-opacity:1; fill:none" points="
  220.055,643.42 210.607,643.42 
  "/>
<polyline clip-path="url(#clip420)" style="stroke:#333333; stroke-linecap:butt; stroke-linejoin:round; stroke-width:4; stroke-opacity:1; fill:none" points="
  220.055,499.415 210.607,499.415 
  "/>
<polyline clip-path="url(#clip420)" style="stroke:#333333; stroke-linecap:butt; stroke-linejoin:round; stroke-width:4; stroke-opacity:1; fill:none" points="
  220.055,355.409 210.607,355.409 
  "/>
<polyline clip-path="url(#clip420)" style="stroke:#333333; stroke-linecap:butt; stroke-linejoin:round; stroke-width:4; stroke-opacity:1; fill:none" points="
  220.055,211.404 210.607,211.404 
  "/>
<polyline clip-path="url(#clip420)" style="stroke:#333333; stroke-linecap:butt; stroke-linejoin:round; stroke-width:4; stroke-opacity:1; fill:none" points="
  220.055,67.398 210.607,67.398 
  "/>
<path clip-path="url(#clip420)" d="M144.49 716.385 Q144.49 709.879 146.132 706.334 Q148.424 701.06 153.827 701.06 Q154.973 701.06 156.162 701.384 Q157.372 701.687 158.885 702.875 Q160.42 704.064 161.35 706.01 Q163.122 709.771 163.122 716.385 Q163.122 722.848 161.479 726.371 Q159.08 731.516 153.784 731.516 Q151.796 731.516 149.764 730.5 Q147.754 729.484 146.478 727.041 Q144.49 723.388 144.49 716.385 M148.164 715.845 Q148.164 722.524 148.64 725.183 Q149.18 728.057 150.65 729.311 Q152.141 730.543 153.784 730.543 Q155.557 730.543 157.027 729.225 Q158.518 727.884 158.972 725.01 Q159.469 722.178 159.447 715.845 Q159.447 709.684 159.015 707.22 Q158.432 704.345 156.875 703.2 Q155.341 702.032 153.784 702.032 Q153.201 702.032 152.574 702.205 Q151.969 702.378 151.082 702.875 Q150.196 703.373 149.504 704.605 Q148.834 705.837 148.51 707.696 Q148.164 710.095 148.164 715.845 Z" fill="#000000" fill-rule="evenodd" fill-opacity="1" /><path clip-path="url(#clip420)" d="M169.326 729.83 Q168.656 729.117 168.656 728.187 Q168.656 727.258 169.326 726.588 Q169.996 725.896 171.012 725.896 Q171.984 725.896 172.633 726.544 Q173.303 727.171 173.303 728.209 Q173.303 729.225 172.59 729.895 Q171.898 730.543 171.012 730.543 Q169.996 730.543 169.326 729.83 Z" fill="#000000" fill-rule="evenodd" fill-opacity="1" /><path clip-path="url(#clip420)" d="M178.923 716.385 Q178.923 709.879 180.566 706.334 Q182.857 701.06 188.261 701.06 Q189.406 701.06 190.595 701.384 Q191.806 701.687 193.319 702.875 Q194.854 704.064 195.783 706.01 Q197.555 709.771 197.555 716.385 Q197.555 722.848 195.913 726.371 Q193.513 731.516 188.218 731.516 Q186.229 731.516 184.197 730.5 Q182.187 729.484 180.912 727.041 Q178.923 723.388 178.923 716.385 M182.598 715.845 Q182.598 722.524 183.073 725.183 Q183.614 728.057 185.083 729.311 Q186.575 730.543 188.218 730.543 Q189.99 730.543 191.46 729.225 Q192.951 727.884 193.405 725.01 Q193.902 722.178 193.881 715.845 Q193.881 709.684 193.449 707.22 Q192.865 704.345 191.309 703.2 Q189.774 702.032 188.218 702.032 Q187.634 702.032 187.007 702.205 Q186.402 702.378 185.516 702.875 Q184.629 703.373 183.938 704.605 Q183.268 705.837 182.943 707.696 Q182.598 710.095 182.598 715.845 Z" fill="#000000" fill-rule="evenodd" fill-opacity="1" /><path clip-path="url(#clip420)" d="M145.441 586.538 Q145.441 585.738 145.506 585.5 Q145.592 585.262 145.938 584.895 L154.433 575.427 Q159.08 570.196 159.08 565.635 Q159.08 562.674 157.524 560.556 Q155.989 558.437 153.157 558.437 Q151.212 558.437 149.569 559.626 Q147.926 560.815 147.17 562.933 Q147.3 562.89 147.754 562.89 Q148.856 562.89 149.461 563.582 Q150.088 564.274 150.088 565.203 Q150.088 566.392 149.31 566.976 Q148.553 567.538 147.797 567.538 Q147.494 567.538 147.083 567.473 Q146.694 567.408 146.068 566.803 Q145.441 566.176 145.441 565.073 Q145.441 561.982 147.775 559.518 Q150.131 557.054 153.719 557.054 Q157.783 557.054 160.442 559.475 Q163.122 561.874 163.122 565.635 Q163.122 566.954 162.711 568.164 Q162.322 569.353 161.782 570.283 Q161.263 571.212 159.837 572.704 Q158.41 574.195 157.264 575.254 Q156.119 576.313 153.546 578.561 L148.856 583.122 L156.832 583.122 Q160.723 583.122 161.025 582.776 Q161.458 582.15 161.998 578.842 L163.122 578.842 L161.868 586.538 L145.441 586.538 Z" fill="#000000" fill-rule="evenodd" fill-opacity="1" /><path clip-path="url(#clip420)" d="M169.801 585.824 Q169.131 585.111 169.131 584.181 Q169.131 583.252 169.801 582.582 Q170.471 581.89 171.487 581.89 Q172.46 581.89 173.108 582.539 Q173.779 583.166 173.779 584.203 Q173.779 585.219 173.065 585.889 Q172.374 586.538 171.487 586.538 Q170.471 586.538 169.801 585.824 Z" fill="#000000" fill-rule="evenodd" fill-opacity="1" /><path clip-path="url(#clip420)" d="M179.874 579.404 Q179.874 578.086 180.587 577.589 Q181.301 577.07 182.057 577.07 Q183.073 577.07 183.657 577.718 Q184.262 578.345 184.262 579.232 Q184.262 580.118 183.657 580.766 Q183.073 581.393 182.057 581.393 Q181.56 581.393 181.301 581.307 Q181.884 583.338 183.657 584.808 Q185.451 586.278 187.807 586.278 Q190.768 586.278 192.541 583.403 Q193.6 581.544 193.6 577.329 Q193.6 573.612 192.8 571.753 Q191.568 568.921 189.039 568.921 Q185.451 568.921 183.333 572.012 Q183.073 572.401 182.771 572.423 Q182.338 572.423 182.23 572.185 Q182.144 571.926 182.144 571.255 L182.144 558.156 Q182.144 557.097 182.576 557.097 Q182.749 557.097 183.116 557.227 Q185.905 558.459 188.996 558.481 Q192.173 558.481 195.026 557.184 Q195.243 557.054 195.372 557.054 Q195.805 557.054 195.826 557.551 Q195.826 557.724 195.459 558.243 Q195.113 558.74 194.356 559.41 Q193.6 560.059 192.627 560.685 Q191.654 561.312 190.228 561.745 Q188.823 562.155 187.267 562.155 Q185.408 562.155 183.505 561.572 L183.505 570.196 Q185.797 567.948 189.125 567.948 Q192.67 567.948 195.113 570.802 Q197.555 573.655 197.555 577.632 Q197.555 581.804 194.659 584.657 Q191.784 587.51 187.893 587.51 Q184.348 587.51 182.1 584.981 Q179.874 582.452 179.874 579.404 Z" fill="#000000" fill-rule="evenodd" fill-opacity="1" /><path clip-path="url(#clip420)" d="M144.965 435.399 Q144.965 434.08 145.678 433.583 Q146.392 433.064 147.148 433.064 Q148.164 433.064 148.748 433.713 Q149.353 434.34 149.353 435.226 Q149.353 436.112 148.748 436.761 Q148.164 437.387 147.148 437.387 Q146.651 437.387 146.392 437.301 Q146.975 439.333 148.748 440.803 Q150.542 442.273 152.898 442.273 Q155.859 442.273 157.632 439.398 Q158.691 437.539 158.691 433.324 Q158.691 429.606 157.891 427.747 Q156.659 424.915 154.13 424.915 Q150.542 424.915 148.424 428.006 Q148.164 428.395 147.862 428.417 Q147.429 428.417 147.321 428.179 Q147.235 427.92 147.235 427.25 L147.235 414.151 Q147.235 413.092 147.667 413.092 Q147.84 413.092 148.207 413.221 Q150.996 414.454 154.087 414.475 Q157.264 414.475 160.118 413.178 Q160.334 413.049 160.463 413.049 Q160.896 413.049 160.917 413.546 Q160.917 413.719 160.55 414.237 Q160.204 414.735 159.447 415.405 Q158.691 416.053 157.718 416.68 Q156.746 417.307 155.319 417.739 Q153.914 418.15 152.358 418.15 Q150.499 418.15 148.597 417.566 L148.597 426.191 Q150.888 423.943 154.217 423.943 Q157.761 423.943 160.204 426.796 Q162.647 429.649 162.647 433.626 Q162.647 437.798 159.75 440.651 Q156.875 443.505 152.984 443.505 Q149.44 443.505 147.192 440.976 Q144.965 438.447 144.965 435.399 Z" fill="#000000" fill-rule="evenodd" fill-opacity="1" /><path clip-path="url(#clip420)" d="M169.326 441.819 Q168.656 441.105 168.656 440.176 Q168.656 439.246 169.326 438.576 Q169.996 437.885 171.012 437.885 Q171.984 437.885 172.633 438.533 Q173.303 439.16 173.303 440.198 Q173.303 441.213 172.59 441.884 Q171.898 442.532 171.012 442.532 Q169.996 442.532 169.326 441.819 Z" fill="#000000" fill-rule="evenodd" fill-opacity="1" /><path clip-path="url(#clip420)" d="M178.923 428.374 Q178.923 421.868 180.566 418.323 Q182.857 413.049 188.261 413.049 Q189.406 413.049 190.595 413.373 Q191.806 413.675 193.319 414.864 Q194.854 416.053 195.783 417.998 Q197.555 421.76 197.555 428.374 Q197.555 434.837 195.913 438.36 Q193.513 443.505 188.218 443.505 Q186.229 443.505 184.197 442.489 Q182.187 441.473 180.912 439.03 Q178.923 435.377 178.923 428.374 M182.598 427.833 Q182.598 434.513 183.073 437.171 Q183.614 440.046 185.083 441.3 Q186.575 442.532 188.218 442.532 Q189.99 442.532 191.46 441.213 Q192.951 439.873 193.405 436.998 Q193.902 434.167 193.881 427.833 Q193.881 421.673 193.449 419.209 Q192.865 416.334 191.309 415.188 Q189.774 414.021 188.218 414.021 Q187.634 414.021 187.007 414.194 Q186.402 414.367 185.516 414.864 Q184.629 415.361 183.938 416.593 Q183.268 417.826 182.943 419.684 Q182.598 422.084 182.598 427.833 Z" fill="#000000" fill-rule="evenodd" fill-opacity="1" /><path clip-path="url(#clip420)" d="M145.722 277.711 L147.17 268.611 L148.272 268.611 Q148.402 269.151 148.618 269.389 Q148.856 269.627 150.11 269.821 Q151.385 270.016 153.957 270.016 L164.7 270.016 Q164.7 271.032 164.311 271.572 L158.323 279.98 Q156.421 282.639 155.578 287.546 Q155.081 290.831 155.103 294.809 L155.103 297.057 Q155.103 299.499 153.049 299.499 Q151.017 299.499 151.017 297.057 Q151.017 288.605 156.465 280.413 Q157.048 279.57 159.188 276.565 Q161.35 273.561 161.436 273.431 L152.271 273.431 Q148.251 273.431 147.926 273.69 Q147.494 274.079 146.824 277.711 L145.722 277.711 Z" fill="#000000" fill-rule="evenodd" fill-opacity="1" /><path clip-path="url(#clip420)" d="M169.801 297.813 Q169.131 297.1 169.131 296.17 Q169.131 295.241 169.801 294.571 Q170.471 293.879 171.487 293.879 Q172.46 293.879 173.108 294.528 Q173.779 295.154 173.779 296.192 Q173.779 297.208 173.065 297.878 Q172.374 298.526 171.487 298.526 Q170.471 298.526 169.801 297.813 Z" fill="#000000" fill-rule="evenodd" fill-opacity="1" /><path clip-path="url(#clip420)" d="M179.874 291.393 Q179.874 290.075 180.587 289.578 Q181.301 289.059 182.057 289.059 Q183.073 289.059 183.657 289.707 Q184.262 290.334 184.262 291.22 Q184.262 292.107 183.657 292.755 Q183.073 293.382 182.057 293.382 Q181.56 293.382 181.301 293.295 Q181.884 295.327 183.657 296.797 Q185.451 298.267 187.807 298.267 Q190.768 298.267 192.541 295.392 Q193.6 293.533 193.6 289.318 Q193.6 285.6 192.8 283.741 Q191.568 280.91 189.039 280.91 Q185.451 280.91 183.333 284.001 Q183.073 284.39 182.771 284.412 Q182.338 284.412 182.23 284.174 Q182.144 283.914 182.144 283.244 L182.144 270.145 Q182.144 269.086 182.576 269.086 Q182.749 269.086 183.116 269.216 Q185.905 270.448 188.996 270.47 Q192.173 270.47 195.026 269.173 Q195.243 269.043 195.372 269.043 Q195.805 269.043 195.826 269.54 Q195.826 269.713 195.459 270.232 Q195.113 270.729 194.356 271.399 Q193.6 272.047 192.627 272.674 Q191.654 273.301 190.228 273.733 Q188.823 274.144 187.267 274.144 Q185.408 274.144 183.505 273.561 L183.505 282.185 Q185.797 279.937 189.125 279.937 Q192.67 279.937 195.113 282.79 Q197.555 285.644 197.555 289.621 Q197.555 293.793 194.659 296.646 Q191.784 299.499 187.893 299.499 Q184.348 299.499 182.1 296.97 Q179.874 294.441 179.874 291.393 Z" fill="#000000" fill-rule="evenodd" fill-opacity="1" /><path clip-path="url(#clip420)" d="M124.56 129.252 L124.56 127.869 Q129.878 127.869 132.623 125.037 Q133.379 125.037 133.509 125.21 Q133.639 125.383 133.639 126.183 L133.639 151.019 Q133.639 152.338 134.287 152.748 Q134.936 153.159 137.767 153.159 L139.172 153.159 L139.172 154.521 Q137.616 154.391 131.996 154.391 Q126.376 154.391 124.841 154.521 L124.841 153.159 L126.246 153.159 Q129.035 153.159 129.705 152.77 Q130.375 152.359 130.375 151.019 L130.375 128.085 Q128.062 129.252 124.56 129.252 Z" fill="#000000" fill-rule="evenodd" fill-opacity="1" /><path clip-path="url(#clip420)" d="M144.49 140.363 Q144.49 133.856 146.132 130.312 Q148.424 125.037 153.827 125.037 Q154.973 125.037 156.162 125.362 Q157.372 125.664 158.885 126.853 Q160.42 128.042 161.35 129.987 Q163.122 133.748 163.122 140.363 Q163.122 146.826 161.479 150.349 Q159.08 155.493 153.784 155.493 Q151.796 155.493 149.764 154.478 Q147.754 153.462 146.478 151.019 Q144.49 147.366 144.49 140.363 M148.164 139.822 Q148.164 146.501 148.64 149.16 Q149.18 152.035 150.65 153.289 Q152.141 154.521 153.784 154.521 Q155.557 154.521 157.027 153.202 Q158.518 151.862 158.972 148.987 Q159.469 146.156 159.447 139.822 Q159.447 133.662 159.015 131.198 Q158.432 128.323 156.875 127.177 Q155.341 126.01 153.784 126.01 Q153.201 126.01 152.574 126.183 Q151.969 126.356 151.082 126.853 Q150.196 127.35 149.504 128.582 Q148.834 129.814 148.51 131.673 Q148.164 134.073 148.164 139.822 Z" fill="#000000" fill-rule="evenodd" fill-opacity="1" /><path clip-path="url(#clip420)" d="M169.326 153.807 Q168.656 153.094 168.656 152.165 Q168.656 151.235 169.326 150.565 Q169.996 149.873 171.012 149.873 Q171.984 149.873 172.633 150.522 Q173.303 151.149 173.303 152.186 Q173.303 153.202 172.59 153.872 Q171.898 154.521 171.012 154.521 Q169.996 154.521 169.326 153.807 Z" fill="#000000" fill-rule="evenodd" fill-opacity="1" /><path clip-path="url(#clip420)" d="M178.923 140.363 Q178.923 133.856 180.566 130.312 Q182.857 125.037 188.261 125.037 Q189.406 125.037 190.595 125.362 Q191.806 125.664 193.319 126.853 Q194.854 128.042 195.783 129.987 Q197.555 133.748 197.555 140.363 Q197.555 146.826 195.913 150.349 Q193.513 155.493 188.218 155.493 Q186.229 155.493 184.197 154.478 Q182.187 153.462 180.912 151.019 Q178.923 147.366 178.923 140.363 M182.598 139.822 Q182.598 146.501 183.073 149.16 Q183.614 152.035 185.083 153.289 Q186.575 154.521 188.218 154.521 Q189.99 154.521 191.46 153.202 Q192.951 151.862 193.405 148.987 Q193.902 146.156 193.881 139.822 Q193.881 133.662 193.449 131.198 Q192.865 128.323 191.309 127.177 Q189.774 126.01 188.218 126.01 Q187.634 126.01 187.007 126.183 Q186.402 126.356 185.516 126.853 Q184.629 127.35 183.938 128.582 Q183.268 129.814 182.943 131.673 Q182.598 134.073 182.598 139.822 Z" fill="#000000" fill-rule="evenodd" fill-opacity="1" /><path clip-path="url(#clip420)" d="M79.6614 718.762 L66.8774 717.678 L66.8774 682.911 L79.6614 681.827 L79.6614 683.245 Q77.1046 683.467 75.6317 683.689 Q74.1588 683.884 72.7692 684.384 Q71.3518 684.856 70.6848 685.468 Q69.9901 686.052 69.462 687.191 Q68.9062 688.33 68.7673 689.803 Q68.6283 691.276 68.6283 693.5 Q68.6283 696.112 68.7395 696.751 Q68.9062 697.446 69.4065 697.613 Q69.8789 697.779 70.9072 697.779 L100.894 697.779 Q102.033 697.779 102.506 697.557 Q102.951 697.307 103.312 696.001 Q103.645 694.695 103.645 691.804 L103.645 689.525 L105.396 689.525 Q105.229 691.86 105.229 700.336 Q105.229 708.757 105.396 711.091 L103.645 711.091 L103.645 708.813 Q103.645 705.922 103.312 704.616 Q102.951 703.282 102.506 703.06 Q102.033 702.837 100.894 702.837 L70.9072 702.837 Q70.1012 702.837 69.7677 702.893 Q69.4342 702.949 69.1563 703.199 Q68.8506 703.449 68.7395 704.032 Q68.6283 704.588 68.6283 707.09 Q68.6283 709.313 68.7673 710.814 Q68.9062 712.286 69.462 713.426 Q69.9901 714.565 70.6848 715.177 Q71.3518 715.76 72.7692 716.261 Q74.1588 716.733 75.6317 716.928 Q77.1046 717.122 79.6614 717.344 L79.6614 718.762 Z" fill="#000000" fill-rule="evenodd" fill-opacity="1" /><path clip-path="url(#clip420)" d="M105.396 677.909 L103.645 677.909 Q103.645 674.879 103.284 674.185 Q102.895 673.49 101.061 673.49 L71.463 673.49 Q69.3509 673.49 68.8228 674.24 Q68.2948 674.963 68.2948 677.909 L66.5162 677.909 L65.9047 669.738 L85.6921 669.738 L85.6921 669.682 Q83.6356 668.765 81.9403 666.709 Q80.245 664.652 80.245 661.484 Q80.245 657.204 82.3572 655.509 Q83.7745 654.258 85.3586 654.008 Q86.9427 653.73 91.0559 653.73 L101.922 653.73 Q103.117 653.675 103.395 652.758 Q103.645 651.84 103.645 649.284 L105.396 649.284 Q105.229 655.092 105.229 655.676 Q105.229 656.12 105.396 662.095 L103.645 662.095 Q103.645 659.066 103.284 658.371 Q102.895 657.649 101.061 657.649 L87.8043 657.649 Q84.914 657.649 83.2187 658.538 Q81.4957 659.427 81.4957 661.873 Q81.4957 664.819 83.9691 667.181 Q86.4425 669.543 90.6112 669.543 L101.061 669.543 Q102.895 669.543 103.284 668.849 Q103.645 668.126 103.645 665.125 L105.396 665.125 Q105.229 670.933 105.229 671.489 Q105.229 671.934 105.396 677.909 Z" fill="#000000" fill-rule="evenodd" fill-opacity="1" /><path clip-path="url(#clip420)" d="M102.339 642.836 Q98.6151 646.588 93.2236 646.588 Q87.8043 646.588 83.8579 642.919 Q79.8838 639.223 79.8838 633.943 Q79.8838 628.774 83.8301 625.077 Q87.7487 621.353 93.2236 621.353 Q98.5873 621.353 102.311 625.105 Q106.035 628.829 106.035 633.998 Q106.035 639.056 102.339 642.836 M92.7511 641.863 Q98.2816 641.863 100.783 640.418 Q104.59 638.195 104.59 633.943 Q104.59 631.831 103.451 630.08 Q102.311 628.301 100.394 627.329 Q97.8925 626.078 92.7511 626.078 Q87.2762 626.078 84.8584 627.579 Q81.1622 629.802 81.1622 633.998 Q81.1622 635.833 82.1349 637.639 Q83.0798 639.418 84.9696 640.502 Q87.4708 641.863 92.7511 641.863 Z" fill="#000000" fill-rule="evenodd" fill-opacity="1" /><path clip-path="url(#clip420)" d="M82.6351 617.88 L80.8565 617.88 L80.245 609.514 L99.1431 609.514 Q100.505 609.514 101.311 609.403 Q102.089 609.292 103.006 608.847 Q103.923 608.375 104.34 607.319 Q104.757 606.235 104.757 604.512 Q104.757 601.427 102.228 599.537 Q99.6989 597.62 95.9471 597.62 L85.8033 597.62 Q83.6912 597.62 83.1631 598.37 Q82.6351 599.12 82.6351 602.066 L80.8565 602.066 L80.245 593.701 L100.449 593.701 Q102.561 593.701 103.117 592.979 Q103.645 592.228 103.645 589.254 L105.396 589.254 L106.035 597.453 L100.894 597.453 Q106.008 599.843 106.035 604.79 Q106.035 607.291 105.396 609.014 Q104.757 610.709 103.979 611.571 Q103.173 612.432 101.644 612.905 Q100.116 613.35 99.1709 613.405 Q98.226 613.461 96.3918 613.461 L87.8599 613.461 Q83.9969 613.461 83.3299 614.017 Q82.6351 614.572 82.6351 617.88 Z" fill="#000000" fill-rule="evenodd" fill-opacity="1" /><path clip-path="url(#clip420)" d="M104.646 586.253 L97.1421 586.253 Q96.5029 586.253 96.2806 586.225 Q96.0583 586.197 95.8915 586.031 Q95.7248 585.864 95.7248 585.53 Q95.7248 585.141 95.8915 585.002 Q96.0583 584.836 96.6975 584.725 Q100.616 583.863 102.7 582.029 Q104.757 580.167 104.757 576.804 Q104.757 573.608 103.34 571.996 Q101.922 570.384 99.5878 570.384 Q95.4191 570.384 94.363 576.304 Q93.6682 579.722 93.2236 581.139 Q92.7511 582.557 91.7228 583.807 Q89.7219 586.253 86.8872 586.253 Q84.0525 586.253 81.9681 584.113 Q79.8838 581.945 79.8838 577.165 Q79.8838 573.969 81.4957 571.802 Q80.9954 571.162 80.5785 570.829 Q79.8838 570.079 79.8838 569.689 Q79.8838 569.245 80.1895 569.161 Q80.4674 569.078 81.2733 569.078 L86.9983 569.078 Q87.6375 569.078 87.8599 569.106 Q88.0822 569.134 88.2489 569.3 Q88.3879 569.467 88.3879 569.828 Q88.3879 570.468 87.8599 570.495 Q80.9676 570.94 80.9676 577.165 Q80.9676 580.528 82.2738 582.029 Q83.5522 583.529 85.3031 583.529 Q86.2758 583.529 87.0261 583.085 Q87.7487 582.612 88.1934 582.029 Q88.6102 581.417 89.0271 580.306 Q89.4162 579.194 89.5551 578.527 Q89.6941 577.832 89.972 576.526 Q90.8335 571.968 92.6955 570.051 Q95.0856 567.661 98.1148 567.661 Q101.478 567.661 103.756 569.94 Q106.035 572.218 106.035 576.804 Q106.035 580.5 103.562 583.085 Q103.895 583.418 104.201 583.668 Q104.479 583.919 104.59 584.03 Q104.701 584.113 104.785 584.141 Q104.84 584.169 104.896 584.224 Q106.035 585.364 106.035 585.642 Q106.035 586.086 105.73 586.17 Q105.452 586.253 104.646 586.253 Z" fill="#000000" fill-rule="evenodd" fill-opacity="1" /><path clip-path="url(#clip420)" d="M99.9769 563.353 Q95.1412 563.353 92.5844 557.656 Q90.9447 554.237 90.5278 547.178 L88.4435 547.178 Q84.914 547.178 83.052 549.041 Q81.1622 550.875 81.1622 553.209 Q81.1622 557.378 83.7745 559.379 Q83.8301 557.684 84.6917 557.072 Q85.5254 556.461 86.3869 556.461 Q87.5264 556.461 88.2767 557.183 Q88.9993 557.878 88.9993 559.073 Q88.9993 560.213 88.3045 560.963 Q87.5819 561.713 86.3313 561.713 Q83.5522 561.713 81.718 559.212 Q79.8838 556.683 79.8838 553.098 Q79.8838 548.429 83.0242 545.316 Q83.9969 544.344 85.2475 543.871 Q86.4981 543.371 87.3318 543.315 Q88.1378 543.26 89.7497 543.26 L101.116 543.26 Q101.45 543.26 102.006 543.149 Q102.561 543.038 103.284 542.537 Q103.979 542.009 103.979 541.148 Q103.979 539.091 100.338 539.119 L97.1421 539.119 L97.1421 537.674 L100.338 537.674 Q103.367 537.674 104.562 539.286 Q105.73 540.87 105.73 542.343 Q105.73 544.233 104.34 545.428 Q102.951 546.623 101.061 546.789 Q103.228 547.651 104.646 549.624 Q106.035 551.57 106.035 554.237 Q106.035 556.294 105.507 558.239 Q105.007 560.157 103.59 561.769 Q102.145 563.353 99.9769 563.353 M99.9213 558.962 Q102.033 558.962 103.395 557.461 Q104.757 555.961 104.757 553.848 Q104.757 551.458 102.923 549.318 Q101.061 547.178 97.4201 547.178 L91.7228 547.178 Q91.9452 553.487 94.4742 556.238 Q96.9754 558.962 99.9213 558.962 Z" fill="#000000" fill-rule="evenodd" fill-opacity="1" /><path clip-path="url(#clip420)" d="M105.396 535.451 L103.645 535.451 Q103.645 532.421 103.284 531.727 Q102.895 531.032 101.061 531.032 L85.8033 531.032 Q83.6912 531.032 83.1631 531.782 Q82.6351 532.505 82.6351 535.451 L80.8565 535.451 L80.245 527.447 L86.2202 527.447 Q80.245 524.779 80.245 519.026 Q80.245 514.746 82.3572 513.051 Q83.7745 511.8 85.3586 511.55 Q86.9427 511.272 91.0559 511.272 L101.922 511.272 Q103.117 511.217 103.395 510.299 Q103.645 509.382 103.645 506.826 L105.396 506.826 Q105.229 512.634 105.229 513.218 Q105.229 513.662 105.396 519.637 L103.645 519.637 Q103.645 516.608 103.284 515.913 Q102.895 515.191 101.061 515.191 L87.8043 515.191 Q84.914 515.191 83.2187 516.08 Q81.4957 516.969 81.4957 519.415 Q81.4957 522.361 83.9691 524.723 Q86.4425 527.085 90.6112 527.085 L101.061 527.085 Q102.895 527.085 103.284 526.391 Q103.645 525.668 103.645 522.667 L105.396 522.667 Q105.229 528.475 105.229 529.031 Q105.229 529.475 105.396 535.451 Z" fill="#000000" fill-rule="evenodd" fill-opacity="1" /><path clip-path="url(#clip420)" d="M93.168 503.769 Q87.7487 503.769 83.9969 499.989 Q80.245 496.209 80.245 491.096 Q80.245 486.76 83.7745 483.926 L71.463 483.926 Q69.3509 483.926 68.8228 484.676 Q68.2948 485.398 68.2948 488.344 L66.5162 488.344 L65.9047 480.146 L100.449 480.146 Q102.561 480.146 103.117 479.423 Q103.645 478.673 103.645 475.727 L105.396 475.727 L106.035 484.092 L102.256 484.092 Q106.008 487.038 106.035 491.707 Q106.035 496.598 102.284 500.183 Q98.5317 503.769 93.168 503.769 M93.2236 499.044 Q98.5039 499.044 101.116 497.404 Q104.757 495.125 104.757 491.429 Q104.757 487.205 100.783 484.704 Q99.8101 484.064 98.6707 484.092 L86.9983 484.092 Q85.8589 484.092 84.914 484.704 Q81.4957 487.038 81.4957 490.846 Q81.4957 494.82 85.1363 497.293 Q87.8599 499.044 93.2236 499.044 Z" fill="#000000" fill-rule="evenodd" fill-opacity="1" /><path clip-path="url(#clip420)" d="M104.646 472.253 L97.1421 472.253 Q96.5029 472.253 96.2806 472.225 Q96.0583 472.198 95.8915 472.031 Q95.7248 471.864 95.7248 471.531 Q95.7248 471.142 95.8915 471.003 Q96.0583 470.836 96.6975 470.725 Q100.616 469.863 102.7 468.029 Q104.757 466.167 104.757 462.804 Q104.757 459.608 103.34 457.996 Q101.922 456.384 99.5878 456.384 Q95.4191 456.384 94.363 462.304 Q93.6682 465.722 93.2236 467.14 Q92.7511 468.557 91.7228 469.808 Q89.7219 472.253 86.8872 472.253 Q84.0525 472.253 81.9681 470.113 Q79.8838 467.946 79.8838 463.165 Q79.8838 459.969 81.4957 457.802 Q80.9954 457.163 80.5785 456.829 Q79.8838 456.079 79.8838 455.69 Q79.8838 455.245 80.1895 455.162 Q80.4674 455.078 81.2733 455.078 L86.9983 455.078 Q87.6375 455.078 87.8599 455.106 Q88.0822 455.134 88.2489 455.301 Q88.3879 455.467 88.3879 455.829 Q88.3879 456.468 87.8599 456.496 Q80.9676 456.94 80.9676 463.165 Q80.9676 466.528 82.2738 468.029 Q83.5522 469.53 85.3031 469.53 Q86.2758 469.53 87.0261 469.085 Q87.7487 468.613 88.1934 468.029 Q88.6102 467.418 89.0271 466.306 Q89.4162 465.194 89.5551 464.527 Q89.6941 463.832 89.972 462.526 Q90.8335 457.968 92.6955 456.051 Q95.0856 453.661 98.1148 453.661 Q101.478 453.661 103.756 455.94 Q106.035 458.219 106.035 462.804 Q106.035 466.5 103.562 469.085 Q103.895 469.418 104.201 469.669 Q104.479 469.919 104.59 470.03 Q104.701 470.113 104.785 470.141 Q104.84 470.169 104.896 470.224 Q106.035 471.364 106.035 471.642 Q106.035 472.086 105.73 472.17 Q105.452 472.253 104.646 472.253 Z" fill="#000000" fill-rule="evenodd" fill-opacity="1" /><path clip-path="url(#clip420)" d="M102.339 427.481 Q98.6151 431.233 93.2236 431.233 Q87.8043 431.233 83.8579 427.565 Q79.8838 423.869 79.8838 418.588 Q79.8838 413.419 83.8301 409.723 Q87.7487 405.999 93.2236 405.999 Q98.5873 405.999 102.311 409.751 Q106.035 413.475 106.035 418.644 Q106.035 423.702 102.339 427.481 M92.7511 426.509 Q98.2816 426.509 100.783 425.064 Q104.59 422.84 104.59 418.588 Q104.59 416.476 103.451 414.725 Q102.311 412.947 100.394 411.974 Q97.8925 410.723 92.7511 410.723 Q87.2762 410.723 84.8584 412.224 Q81.1622 414.447 81.1622 418.644 Q81.1622 420.478 82.1349 422.284 Q83.0798 424.063 84.9696 425.147 Q87.4708 426.509 92.7511 426.509 Z" fill="#000000" fill-rule="evenodd" fill-opacity="1" /><path clip-path="url(#clip420)" d="M82.6351 402.469 L80.8565 402.469 L80.8565 397.995 L74.3255 397.995 Q70.1012 397.995 67.6834 395.271 Q65.2655 392.52 65.2655 389.157 Q65.2655 386.934 66.4606 385.489 Q67.6556 384.044 69.2675 384.044 Q70.3514 384.044 71.0739 384.711 Q71.7687 385.35 71.7687 386.545 Q71.7687 387.684 71.0461 388.351 Q70.3236 388.991 69.3231 388.991 Q67.4889 388.991 66.933 387.295 Q66.5439 388.157 66.5162 389.157 Q66.5162 391.214 68.6283 392.826 Q70.7404 394.41 74.2699 394.41 L80.8565 394.41 L80.8565 387.74 L82.6351 387.74 L82.6351 394.215 L100.95 394.215 Q102.589 394.215 103.117 393.548 Q103.645 392.854 103.645 389.908 L103.645 388.713 L105.396 388.713 Q105.229 390.991 105.229 395.938 Q105.229 396.633 105.257 397.717 Q105.285 398.773 105.341 400.218 Q105.396 401.636 105.396 402.414 L103.645 402.414 Q103.645 399.384 103.284 398.69 Q102.895 397.995 101.061 397.995 L82.6351 397.995 L82.6351 402.469 Z" fill="#000000" fill-rule="evenodd" fill-opacity="1" /><path clip-path="url(#clip420)" d="M92.8623 366.507 Q87.4986 366.507 83.6912 363.061 Q79.8838 359.615 79.8838 354.668 Q79.8838 349.666 83.1353 347.081 Q86.3869 344.469 91.0559 344.469 Q91.9174 344.469 92.0841 344.691 Q92.2509 344.914 92.2509 345.886 L92.2509 361.783 Q98.0593 361.783 100.783 360.06 Q104.59 357.67 104.59 353.64 Q104.59 353.084 104.479 352.417 Q104.368 351.75 103.895 350.388 Q103.395 349.027 102.089 347.832 Q100.783 346.637 98.7263 345.942 Q97.9203 345.775 97.9481 345.219 Q97.9481 344.469 98.6151 344.469 Q99.1153 344.469 100.255 345.025 Q101.366 345.553 102.7 346.581 Q104.034 347.609 105.035 349.61 Q106.035 351.583 106.035 353.974 Q106.035 358.976 102.256 362.756 Q98.4483 366.507 92.8623 366.507 M91.0559 361.727 L91.0559 348.221 Q89.8608 348.221 88.5269 348.443 Q87.1929 348.638 85.3586 349.249 Q83.4966 349.833 82.3294 351.222 Q81.1622 352.612 81.1622 354.668 Q81.1622 355.585 81.5512 356.586 Q81.9403 357.559 82.8852 358.754 Q83.8301 359.949 85.9701 360.782 Q88.11 361.616 91.0559 361.727 Z" fill="#000000" fill-rule="evenodd" fill-opacity="1" /><path clip-path="url(#clip420)" d="M105.396 340.995 L103.645 340.995 Q103.645 337.966 103.284 337.271 Q102.895 336.576 101.061 336.576 L85.8033 336.576 Q83.6912 336.576 83.1631 337.327 Q82.6351 338.049 82.6351 340.995 L80.8565 340.995 L80.245 332.991 L86.2202 332.991 Q80.245 330.323 80.245 324.57 Q80.245 320.29 82.3572 318.595 Q83.7745 317.345 85.3586 317.094 Q86.9427 316.817 91.0559 316.817 L101.922 316.817 Q103.117 316.761 103.395 315.844 Q103.645 314.927 103.645 312.37 L105.396 312.37 Q105.229 318.178 105.229 318.762 Q105.229 319.207 105.396 325.182 L103.645 325.182 Q103.645 322.152 103.284 321.458 Q102.895 320.735 101.061 320.735 L87.8043 320.735 Q84.914 320.735 83.2187 321.624 Q81.4957 322.514 81.4957 324.959 Q81.4957 327.905 83.9691 330.268 Q86.4425 332.63 90.6112 332.63 L101.061 332.63 Q102.895 332.63 103.284 331.935 Q103.645 331.212 103.645 328.211 L105.396 328.211 Q105.229 334.019 105.229 334.575 Q105.229 335.02 105.396 340.995 Z" fill="#000000" fill-rule="evenodd" fill-opacity="1" /><path clip-path="url(#clip420)" d="M82.6351 311.759 L80.8565 311.759 Q81.0232 309.202 81.0232 306.228 Q81.0232 305.144 80.8565 300.031 L82.6351 300.031 Q82.6351 303.282 84.108 303.282 Q84.3304 303.282 85.0807 302.949 L100.95 296.557 L86.4425 290.748 Q85.4698 290.415 85.0807 290.415 Q84.108 290.415 83.4133 291.082 Q82.6907 291.721 82.6351 293.138 L80.8565 293.138 Q81.0232 290.248 81.0232 288.192 Q81.0232 285.857 80.8565 283.939 L82.6351 283.939 Q82.6351 285.635 83.4133 286.83 Q84.1636 288.025 84.8306 288.414 Q85.4698 288.775 86.4425 289.164 L104.951 296.612 Q106.035 297.057 106.035 297.807 Q106.035 298.308 105.813 298.53 Q105.618 298.724 104.951 299.002 L84.7472 307.201 Q83.3299 307.757 82.9964 308.479 Q82.6351 309.202 82.6351 311.759 Z" fill="#000000" fill-rule="evenodd" fill-opacity="1" /><path clip-path="url(#clip420)" d="M92.8623 282.856 Q87.4986 282.856 83.6912 279.41 Q79.8838 275.963 79.8838 271.017 Q79.8838 266.014 83.1353 263.43 Q86.3869 260.817 91.0559 260.817 Q91.9174 260.817 92.0841 261.039 Q92.2509 261.262 92.2509 262.234 L92.2509 278.131 Q98.0593 278.131 100.783 276.408 Q104.59 274.018 104.59 269.988 Q104.59 269.432 104.479 268.765 Q104.368 268.098 103.895 266.737 Q103.395 265.375 102.089 264.18 Q100.783 262.985 98.7263 262.29 Q97.9203 262.123 97.9481 261.568 Q97.9481 260.817 98.6151 260.817 Q99.1153 260.817 100.255 261.373 Q101.366 261.901 102.7 262.929 Q104.034 263.958 105.035 265.959 Q106.035 267.932 106.035 270.322 Q106.035 275.324 102.256 279.104 Q98.4483 282.856 92.8623 282.856 M91.0559 278.076 L91.0559 264.569 Q89.8608 264.569 88.5269 264.791 Q87.1929 264.986 85.3586 265.597 Q83.4966 266.181 82.3294 267.57 Q81.1622 268.96 81.1622 271.017 Q81.1622 271.934 81.5512 272.934 Q81.9403 273.907 82.8852 275.102 Q83.8301 276.297 85.9701 277.131 Q88.11 277.964 91.0559 278.076 Z" fill="#000000" fill-rule="evenodd" fill-opacity="1" /><path clip-path="url(#clip420)" d="M105.396 257.288 L103.645 257.288 Q103.645 254.258 103.284 253.564 Q102.895 252.869 101.061 252.869 L71.463 252.869 Q69.3509 252.869 68.8228 253.619 Q68.2948 254.342 68.2948 257.288 L66.5162 257.288 L65.9047 249.117 L101.061 249.117 Q102.895 249.117 103.284 248.394 Q103.645 247.672 103.645 244.67 L105.396 244.67 Q105.396 245.365 105.341 246.81 Q105.285 248.255 105.257 249.312 Q105.229 250.368 105.229 250.979 Q105.229 251.646 105.396 257.288 Z" fill="#000000" fill-rule="evenodd" fill-opacity="1" /><path clip-path="url(#clip420)" d="M102.339 238.084 Q98.6151 241.836 93.2236 241.836 Q87.8043 241.836 83.8579 238.167 Q79.8838 234.471 79.8838 229.191 Q79.8838 224.021 83.8301 220.325 Q87.7487 216.601 93.2236 216.601 Q98.5873 216.601 102.311 220.353 Q106.035 224.077 106.035 229.246 Q106.035 234.304 102.339 238.084 M92.7511 237.111 Q98.2816 237.111 100.783 235.666 Q104.59 233.443 104.59 229.191 Q104.59 227.079 103.451 225.328 Q102.311 223.549 100.394 222.576 Q97.8925 221.326 92.7511 221.326 Q87.2762 221.326 84.8584 222.826 Q81.1622 225.05 81.1622 229.246 Q81.1622 231.08 82.1349 232.887 Q83.0798 234.666 84.9696 235.749 Q87.4708 237.111 92.7511 237.111 Z" fill="#000000" fill-rule="evenodd" fill-opacity="1" /><path clip-path="url(#clip420)" d="M114.678 213.377 Q114.678 210.348 114.289 209.653 Q113.928 208.931 112.122 208.931 L85.4698 208.931 Q83.58 208.931 83.1076 209.653 Q82.6351 210.348 82.6351 213.377 L80.8565 213.377 L80.245 205.179 L83.9969 205.179 Q80.245 201.761 80.245 197.203 Q80.245 192.367 83.9969 188.838 Q87.7487 185.308 93.1124 185.308 Q98.5317 185.308 102.284 189.06 Q106.035 192.812 106.035 198.009 Q106.035 200.844 104.59 202.761 Q103.117 204.651 102.033 205.012 L102.561 205.012 L112.122 205.012 Q113.956 205.012 114.317 204.29 Q114.678 203.567 114.678 200.566 L116.429 200.566 Q116.263 206.541 116.263 206.985 Q116.263 207.541 116.429 213.377 L114.678 213.377 M98.9208 205.012 Q99.7823 205.012 100.088 204.901 Q100.394 204.762 101.311 204.206 Q104.757 201.955 104.757 198.287 Q104.757 198.259 104.757 198.231 Q104.757 194.98 101.45 192.506 Q98.1148 190.033 93.1124 190.033 Q88.3323 190.033 84.9974 192.284 Q81.6624 194.535 81.6624 197.648 Q81.6624 199.871 82.8574 201.816 Q84.0525 203.762 86.2202 205.012 L98.9208 205.012 Z" fill="#000000" fill-rule="evenodd" fill-opacity="1" /><path clip-path="url(#clip420)" d="M92.8623 180.222 Q87.4986 180.222 83.6912 176.776 Q79.8838 173.33 79.8838 168.383 Q79.8838 163.381 83.1353 160.796 Q86.3869 158.184 91.0559 158.184 Q91.9174 158.184 92.0841 158.406 Q92.2509 158.629 92.2509 159.601 L92.2509 175.498 Q98.0593 175.498 100.783 173.775 Q104.59 171.385 104.59 167.355 Q104.59 166.799 104.479 166.132 Q104.368 165.465 103.895 164.103 Q103.395 162.742 102.089 161.547 Q100.783 160.352 98.7263 159.657 Q97.9203 159.49 97.9481 158.934 Q97.9481 158.184 98.6151 158.184 Q99.1153 158.184 100.255 158.74 Q101.366 159.268 102.7 160.296 Q104.034 161.324 105.035 163.325 Q106.035 165.299 106.035 167.689 Q106.035 172.691 102.256 176.471 Q98.4483 180.222 92.8623 180.222 M91.0559 175.442 L91.0559 161.936 Q89.8608 161.936 88.5269 162.158 Q87.1929 162.353 85.3586 162.964 Q83.4966 163.548 82.3294 164.937 Q81.1622 166.327 81.1622 168.383 Q81.1622 169.3 81.5512 170.301 Q81.9403 171.274 82.8852 172.469 Q83.8301 173.664 85.9701 174.497 Q88.11 175.331 91.0559 175.442 Z" fill="#000000" fill-rule="evenodd" fill-opacity="1" /><path clip-path="url(#clip420)" d="M104.646 154.654 L97.1421 154.654 Q96.5029 154.654 96.2806 154.627 Q96.0583 154.599 95.8915 154.432 Q95.7248 154.265 95.7248 153.932 Q95.7248 153.543 95.8915 153.404 Q96.0583 153.237 96.6975 153.126 Q100.616 152.264 102.7 150.43 Q104.757 148.568 104.757 145.205 Q104.757 142.009 103.34 140.398 Q101.922 138.786 99.5878 138.786 Q95.4191 138.786 94.363 144.705 Q93.6682 148.124 93.2236 149.541 Q92.7511 150.958 91.7228 152.209 Q89.7219 154.654 86.8872 154.654 Q84.0525 154.654 81.9681 152.515 Q79.8838 150.347 79.8838 145.567 Q79.8838 142.371 81.4957 140.203 Q80.9954 139.564 80.5785 139.23 Q79.8838 138.48 79.8838 138.091 Q79.8838 137.646 80.1895 137.563 Q80.4674 137.479 81.2733 137.479 L86.9983 137.479 Q87.6375 137.479 87.8599 137.507 Q88.0822 137.535 88.2489 137.702 Q88.3879 137.869 88.3879 138.23 Q88.3879 138.869 87.8599 138.897 Q80.9676 139.341 80.9676 145.567 Q80.9676 148.929 82.2738 150.43 Q83.5522 151.931 85.3031 151.931 Q86.2758 151.931 87.0261 151.486 Q87.7487 151.014 88.1934 150.43 Q88.6102 149.819 89.0271 148.707 Q89.4162 147.595 89.5551 146.928 Q89.6941 146.234 89.972 144.928 Q90.8335 140.37 92.6955 138.452 Q95.0856 136.062 98.1148 136.062 Q101.478 136.062 103.756 138.341 Q106.035 140.62 106.035 145.205 Q106.035 148.902 103.562 151.486 Q103.895 151.82 104.201 152.07 Q104.479 152.32 104.59 152.431 Q104.701 152.515 104.785 152.542 Q104.84 152.57 104.896 152.626 Q106.035 153.765 106.035 154.043 Q106.035 154.488 105.73 154.571 Q105.452 154.654 104.646 154.654 Z" fill="#000000" fill-rule="evenodd" fill-opacity="1" /><path clip-path="url(#clip422)" d="
M298.395 715.423 L298.395 139.401 L471.201 139.401 L874.417 542.616 L874.417 715.423 L298.395 715.423 L298.395 715.423  Z
  " fill="#5e81ac" fill-rule="evenodd" fill-opacity="0.6"/>
<polyline clip-path="url(#clip422)" style="stroke:#ffffff; stroke-linecap:butt; stroke-linejoin:round; stroke-width:4; stroke-opacity:0.6; fill:none" points="
  298.395,715.423 298.395,139.401 471.201,139.401 874.417,542.616 874.417,715.423 298.395,715.423 
  "/>
</svg>
