<?xml version="1.0" encoding="utf-8"?>
<svg xmlns="http://www.w3.org/2000/svg" xmlns:xlink="http://www.w3.org/1999/xlink" width="250" height="100" viewBox="0 0 1000 400">
<defs>
  <clipPath id="clip340">
    <rect x="0" y="0" width="1000" height="400"/>
  </clipPath>
</defs>
<path clip-path="url(#clip340)" d="
M0 400 L1000 400 L1000 0 L0 0  Z
  " fill="#000000" fill-rule="evenodd" fill-opacity="0"/>
<defs>
  <clipPath id="clip341">
    <rect x="200" y="0" width="701" height="400"/>
  </clipPath>
</defs>
<path clip-path="url(#clip340)" d="
M47.2441 275.788 L952.756 275.788 L952.756 47.2441 L47.2441 47.2441  Z
  " fill="#e5e9f0" fill-rule="evenodd" fill-opacity="1"/>
<defs>
  <clipPath id="clip342">
    <rect x="47" y="47" width="907" height="230"/>
  </clipPath>
</defs>
<polyline clip-path="url(#clip342)" style="stroke:#ffffff; stroke-linecap:butt; stroke-linejoin:round; stroke-width:4; stroke-opacity:1; fill:none" points="
  201.051,275.788 201.051,47.2441 
  "/>
<polyline clip-path="url(#clip342)" style="stroke:#ffffff; stroke-linecap:butt; stroke-linejoin:round; stroke-width:4; stroke-opacity:1; fill:none" points="
  443.077,275.788 443.077,47.2441 
  "/>
<polyline clip-path="url(#clip342)" style="stroke:#ffffff; stroke-linecap:butt; stroke-linejoin:round; stroke-width:4; stroke-opacity:1; fill:none" points="
  685.102,275.788 685.102,47.2441 
  "/>
<polyline clip-path="url(#clip342)" style="stroke:#ffffff; stroke-linecap:butt; stroke-linejoin:round; stroke-width:4; stroke-opacity:1; fill:none" points="
  927.128,275.788 927.128,47.2441 
  "/>
<polyline clip-path="url(#clip342)" style="stroke:#ffffff; stroke-linecap:butt; stroke-linejoin:round; stroke-width:2; stroke-opacity:1; fill:none" points="
  80.038,275.788 80.038,47.2441 
  "/>
<polyline clip-path="url(#clip342)" style="stroke:#ffffff; stroke-linecap:butt; stroke-linejoin:round; stroke-width:2; stroke-opacity:1; fill:none" points="
  322.064,275.788 322.064,47.2441 
  "/>
<polyline clip-path="url(#clip342)" style="stroke:#ffffff; stroke-linecap:butt; stroke-linejoin:round; stroke-width:2; stroke-opacity:1; fill:none" points="
  564.09,275.788 564.09,47.2441 
  "/>
<polyline clip-path="url(#clip342)" style="stroke:#ffffff; stroke-linecap:butt; stroke-linejoin:round; stroke-width:2; stroke-opacity:1; fill:none" points="
  806.115,275.788 806.115,47.2441 
  "/>
<polyline clip-path="url(#clip340)" style="stroke:#ffffff; stroke-linecap:butt; stroke-linejoin:round; stroke-width:4; stroke-opacity:1; fill:none" points="
  47.2441,275.788 952.756,275.788 
  "/>
<polyline clip-path="url(#clip340)" style="stroke:#333333; stroke-linecap:butt; stroke-linejoin:round; stroke-width:4; stroke-opacity:1; fill:none" points="
  201.051,275.788 201.051,294.685 
  "/>
<polyline clip-path="url(#clip340)" style="stroke:#333333; stroke-linecap:butt; stroke-linejoin:round; stroke-width:4; stroke-opacity:1; fill:none" points="
  443.077,275.788 443.077,294.685 
  "/>
<polyline clip-path="url(#clip340)" style="stroke:#333333; stroke-linecap:butt; stroke-linejoin:round; stroke-width:4; stroke-opacity:1; fill:none" points="
  685.102,275.788 685.102,294.685 
  "/>
<polyline clip-path="url(#clip340)" style="stroke:#333333; stroke-linecap:butt; stroke-linejoin:round; stroke-width:4; stroke-opacity:1; fill:none" points="
  927.128,275.788 927.128,294.685 
  "/>
<polyline clip-path="url(#clip340)" style="stroke:#333333; stroke-linecap:butt; stroke-linejoin:round; stroke-width:4; stroke-opacity:1; fill:none" points="
  80.038,275.788 80.038,285.237 
  "/>
<polyline clip-path="url(#clip340)" style="stroke:#333333; stroke-linecap:butt; stroke-linejoin:round; stroke-width:4; stroke-opacity:1; fill:none" points="
  322.064,275.788 322.064,285.237 
  "/>
<polyline clip-path="url(#clip340)" style="stroke:#333333; stroke-linecap:butt; stroke-linejoin:round; stroke-width:4; stroke-opacity:1; fill:none" points="
  564.09,275.788 564.09,285.237 
  "/>
<polyline clip-path="url(#clip340)" style="stroke:#333333; stroke-linecap:butt; stroke-linejoin:round; stroke-width:4; stroke-opacity:1; fill:none" points="
  806.115,275.788 806.115,285.237 
  "/>
<path clip-path="url(#clip340)" d="M191.237 318.282 L191.237 316.92 L204.834 296.148 Q205.179 295.607 205.72 295.629 Q206.217 295.629 206.325 295.823 Q206.433 296.018 206.433 296.774 L206.433 316.92 L210.864 316.92 L210.864 318.282 L206.433 318.282 L206.433 322.129 Q206.433 323.405 206.952 323.815 Q207.492 324.226 209.784 324.226 L210.713 324.226 L210.713 325.588 Q208.897 325.458 204.704 325.458 Q200.532 325.458 198.716 325.588 L198.716 324.226 L199.646 324.226 Q201.937 324.226 202.477 323.837 Q203.018 323.426 203.018 322.129 L203.018 318.282 L191.237 318.282 M192.491 316.92 L203.277 316.92 L203.277 300.406 L192.491 316.92 Z" fill="#000000" fill-rule="evenodd" fill-opacity="1" /><path clip-path="url(#clip340)" d="M433.89 311.603 Q433.89 304.642 437.435 300.384 Q440.98 296.104 445.541 296.104 Q448.2 296.104 449.669 297.466 Q451.161 298.806 451.161 300.881 Q451.161 302.027 450.491 302.524 Q449.821 303.021 449.129 303.021 Q448.329 303.021 447.702 302.481 Q447.076 301.941 447.076 300.968 Q447.076 298.979 449.518 298.979 Q448.372 297.207 445.627 297.207 Q444.784 297.207 443.92 297.466 Q443.055 297.704 441.931 298.525 Q440.807 299.347 439.942 300.644 Q439.078 301.941 438.473 304.383 Q437.867 306.826 437.867 310.003 L437.867 311.062 Q439.683 306.674 443.401 306.696 Q447.119 306.696 449.691 309.528 Q452.263 312.359 452.263 316.553 Q452.263 320.854 449.583 323.707 Q446.903 326.561 443.141 326.561 Q441.455 326.561 439.921 325.847 Q438.408 325.156 436.981 323.556 Q435.576 321.956 434.733 318.887 Q433.89 315.818 433.89 311.603 M437.954 315.58 Q437.954 319.925 438.754 322 Q438.883 322.346 439.164 322.821 Q439.467 323.297 439.964 323.923 Q440.483 324.529 441.326 324.939 Q442.169 325.328 443.141 325.328 Q446.103 325.328 447.529 322.454 Q448.286 320.854 448.286 316.509 Q448.286 312.078 447.486 310.457 Q446.124 307.712 443.358 307.712 Q441.499 307.712 440.202 308.987 Q438.926 310.262 438.429 311.97 Q437.954 313.678 437.954 315.58 Z" fill="#000000" fill-rule="evenodd" fill-opacity="1" /><path clip-path="url(#clip340)" d="M675.916 318.909 Q675.916 313.959 682.292 310.76 Q679.547 308.901 679.05 308.36 Q677.105 306.199 677.105 303.497 Q677.105 300.406 679.439 298.266 Q681.795 296.104 685.124 296.104 Q688.302 296.104 690.701 297.942 Q693.1 299.779 693.1 302.697 Q693.1 306.804 687.74 309.571 Q691.284 311.776 692.127 312.705 Q694.289 315.104 694.289 318.152 Q694.289 321.697 691.565 324.14 Q688.842 326.561 685.081 326.561 Q681.406 326.561 678.661 324.421 Q675.916 322.281 675.916 318.909 M678.121 318.909 Q678.121 321.654 680.174 323.491 Q682.249 325.328 685.124 325.328 Q687.912 325.328 689.988 323.729 Q692.084 322.129 692.084 319.752 Q692.084 318.822 691.76 318.022 Q691.457 317.223 690.831 316.596 Q690.225 315.947 689.836 315.666 Q689.469 315.364 688.755 314.867 L683.308 311.43 Q678.121 314.305 678.121 318.909 M679.05 301.768 Q679.05 303.886 681.276 305.356 L686.767 308.901 Q691.155 306.328 691.155 302.697 Q691.155 300.341 689.361 298.785 Q687.567 297.207 685.081 297.207 Q682.638 297.207 680.844 298.504 Q679.05 299.779 679.05 301.768 Z" fill="#000000" fill-rule="evenodd" fill-opacity="1" /><path clip-path="url(#clip340)" d="M907.847 300.319 L907.847 298.936 Q913.165 298.936 915.91 296.104 Q916.666 296.104 916.796 296.277 Q916.926 296.45 916.926 297.25 L916.926 322.086 Q916.926 323.405 917.574 323.815 Q918.223 324.226 921.054 324.226 L922.459 324.226 L922.459 325.588 Q920.903 325.458 915.283 325.458 Q909.663 325.458 908.128 325.588 L908.128 324.226 L909.533 324.226 Q912.322 324.226 912.992 323.837 Q913.662 323.426 913.662 322.086 L913.662 299.152 Q911.349 300.319 907.847 300.319 Z" fill="#000000" fill-rule="evenodd" fill-opacity="1" /><path clip-path="url(#clip340)" d="M927.777 311.43 Q927.777 304.923 929.419 301.379 Q931.711 296.104 937.115 296.104 Q938.26 296.104 939.449 296.429 Q940.659 296.731 942.173 297.92 Q943.707 299.109 944.637 301.054 Q946.409 304.815 946.409 311.43 Q946.409 317.893 944.766 321.416 Q942.367 326.561 937.071 326.561 Q935.083 326.561 933.051 325.545 Q931.041 324.529 929.765 322.086 Q927.777 318.433 927.777 311.43 M931.451 310.889 Q931.451 317.569 931.927 320.227 Q932.467 323.102 933.937 324.356 Q935.429 325.588 937.071 325.588 Q938.844 325.588 940.314 324.269 Q941.805 322.929 942.259 320.054 Q942.756 317.223 942.735 310.889 Q942.735 304.729 942.302 302.265 Q941.719 299.39 940.162 298.244 Q938.628 297.077 937.071 297.077 Q936.488 297.077 935.861 297.25 Q935.256 297.423 934.369 297.92 Q933.483 298.417 932.791 299.649 Q932.121 300.881 931.797 302.74 Q931.451 305.14 931.451 310.889 Z" fill="#000000" fill-rule="evenodd" fill-opacity="1" /><path clip-path="url(#clip340)" d="M306.517 363.35 Q306.517 354.762 312.381 348.732 Q318.245 342.673 326.305 342.673 Q328.806 342.673 331.029 343.59 Q333.252 344.507 334.281 345.313 Q335.309 346.092 336.782 347.565 L339.644 343.368 Q340.089 342.673 340.534 342.673 Q341.006 342.673 341.089 342.951 Q341.173 343.201 341.173 344.035 L341.173 357.542 Q341.173 358.459 341.062 358.681 Q340.951 358.903 340.256 358.903 Q339.7 358.903 339.561 358.737 Q339.45 358.57 339.339 357.931 Q338.477 351.789 335.059 348.12 Q331.668 344.452 326.944 344.452 Q325.582 344.452 324.053 344.758 Q322.553 345.063 320.357 346.231 Q318.189 347.398 316.494 349.343 Q314.827 351.261 313.604 354.929 Q312.381 358.57 312.381 363.406 Q312.381 368.186 313.604 371.854 Q314.827 375.523 316.494 377.44 Q318.189 379.33 320.357 380.497 Q322.553 381.664 324.081 381.998 Q325.638 382.304 326.999 382.304 Q331.891 382.304 335.642 378.83 Q339.394 375.356 339.755 369.492 Q339.811 369.214 339.811 369.103 Q339.811 368.964 339.867 368.825 Q339.922 368.686 340.061 368.63 Q340.2 368.575 340.422 368.575 Q341.173 368.575 341.173 369.547 Q341.173 374.967 337.004 379.524 Q332.863 384.054 326.305 384.054 Q318.217 384.054 312.353 378.052 Q306.517 372.049 306.517 363.35 Z" fill="#000000" fill-rule="evenodd" fill-opacity="1" /><path clip-path="url(#clip340)" d="M346.787 377.385 Q346.787 372.549 352.484 369.992 Q355.902 368.352 362.961 367.936 L362.961 365.851 Q362.961 362.322 361.099 360.46 Q359.265 358.57 356.93 358.57 Q352.762 358.57 350.761 361.182 Q352.456 361.238 353.068 362.099 Q353.679 362.933 353.679 363.795 Q353.679 364.934 352.956 365.684 Q352.262 366.407 351.067 366.407 Q349.927 366.407 349.177 365.712 Q348.426 364.99 348.426 363.739 Q348.426 360.96 350.928 359.126 Q353.457 357.291 357.042 357.291 Q361.711 357.291 364.823 360.432 Q365.796 361.405 366.268 362.655 Q366.769 363.906 366.824 364.74 Q366.88 365.545 366.88 367.157 L366.88 378.524 Q366.88 378.857 366.991 379.413 Q367.102 379.969 367.602 380.692 Q368.13 381.386 368.992 381.386 Q371.048 381.386 371.021 377.746 L371.021 374.55 L372.466 374.55 L372.466 377.746 Q372.466 380.775 370.854 381.97 Q369.27 383.137 367.797 383.137 Q365.907 383.137 364.712 381.748 Q363.517 380.358 363.35 378.468 Q362.489 380.636 360.516 382.053 Q358.57 383.443 355.902 383.443 Q353.846 383.443 351.9 382.915 Q349.983 382.415 348.371 380.997 Q346.787 379.552 346.787 377.385 M351.178 377.329 Q351.178 379.441 352.678 380.803 Q354.179 382.165 356.291 382.165 Q358.681 382.165 360.821 380.33 Q362.961 378.468 362.961 374.828 L362.961 369.131 Q356.653 369.353 353.901 371.882 Q351.178 374.383 351.178 377.329 Z" fill="#000000" fill-rule="evenodd" fill-opacity="1" /><path clip-path="url(#clip340)" d="M374.439 382.804 L374.439 381.053 Q377.468 381.053 378.163 380.692 Q378.886 380.303 378.886 378.468 L378.886 363.211 Q378.886 361.099 378.135 360.571 Q377.413 360.043 374.439 360.043 L374.439 358.264 L382.36 357.653 L382.36 363.906 Q383.165 361.46 384.861 359.57 Q386.584 357.653 389.363 357.653 Q391.197 357.653 392.364 358.681 Q393.559 359.709 393.559 361.127 Q393.559 362.377 392.781 363.016 Q392.031 363.628 391.114 363.628 Q390.085 363.628 389.363 362.989 Q388.668 362.322 388.668 361.182 Q388.668 360.487 388.974 359.959 Q389.307 359.404 389.557 359.209 Q389.808 359.015 389.974 358.959 Q389.863 358.903 389.363 358.903 Q386.223 358.903 384.416 362.044 Q382.637 365.156 382.637 369.603 L382.637 378.357 Q382.637 379.997 383.304 380.525 Q383.999 381.053 386.973 381.053 L388.168 381.053 L388.168 382.804 Q385.889 382.637 380.942 382.637 Q380.247 382.637 379.164 382.665 Q378.08 382.693 376.662 382.748 Q375.245 382.804 374.439 382.804 Z" fill="#000000" fill-rule="evenodd" fill-opacity="1" /><path clip-path="url(#clip340)" d="M397.033 370.576 Q397.033 365.156 400.813 361.405 Q404.593 357.653 409.706 357.653 Q414.042 357.653 416.876 361.182 L416.876 348.871 Q416.876 346.759 416.126 346.231 Q415.403 345.702 412.457 345.702 L412.457 343.924 L420.656 343.312 L420.656 377.857 Q420.656 379.969 421.378 380.525 Q422.129 381.053 425.075 381.053 L425.075 382.804 L416.71 383.443 L416.71 379.663 Q413.764 383.415 409.095 383.443 Q404.203 383.443 400.618 379.691 Q397.033 375.939 397.033 370.576 M401.758 370.631 Q401.758 375.912 403.398 378.524 Q405.676 382.165 409.373 382.165 Q413.597 382.165 416.098 378.19 Q416.737 377.218 416.71 376.078 L416.71 364.406 Q416.71 363.267 416.098 362.322 Q413.764 358.903 409.956 358.903 Q405.982 358.903 403.509 362.544 Q401.758 365.268 401.758 370.631 Z" fill="#000000" fill-rule="evenodd" fill-opacity="1" /><path clip-path="url(#clip340)" d="M428.243 345.702 L428.243 343.924 L436.441 343.312 L436.441 361.349 Q439.749 357.653 444.251 357.653 Q449.142 357.653 452.727 361.405 Q456.312 365.156 456.312 370.52 Q456.312 375.939 452.56 379.691 Q448.808 383.443 443.611 383.443 Q438.887 383.443 436.163 379.274 Q434.162 382.748 434.107 382.804 L432.69 382.804 L432.69 348.871 Q432.69 346.759 431.939 346.231 Q431.189 345.702 428.243 345.702 M436.608 376.328 Q436.608 377.523 437.414 378.719 Q439.665 382.165 443.334 382.165 Q443.361 382.165 443.389 382.165 Q447.363 382.165 449.837 378.524 Q451.588 375.8 451.588 370.465 Q451.588 365.184 449.948 362.544 Q447.669 358.903 443.973 358.903 Q439.804 358.903 437.247 362.544 Q436.608 363.461 436.608 364.601 L436.608 376.328 Z" fill="#000000" fill-rule="evenodd" fill-opacity="1" /><path clip-path="url(#clip340)" d="M465.15 379.747 Q461.398 376.023 461.398 370.631 Q461.398 365.212 465.066 361.266 Q468.763 357.291 474.043 357.291 Q479.212 357.291 482.908 361.238 Q486.632 365.156 486.632 370.631 Q486.632 375.995 482.881 379.719 Q479.157 383.443 473.987 383.443 Q468.929 383.443 465.15 379.747 M466.122 370.159 Q466.122 375.689 467.568 378.19 Q469.791 381.998 474.043 381.998 Q476.155 381.998 477.906 380.858 Q479.685 379.719 480.657 377.801 Q481.908 375.3 481.908 370.159 Q481.908 364.684 480.407 362.266 Q478.184 358.57 473.987 358.57 Q472.153 358.57 470.347 359.543 Q468.568 360.487 467.484 362.377 Q466.122 364.878 466.122 370.159 Z" fill="#000000" fill-rule="evenodd" fill-opacity="1" /><path clip-path="url(#clip340)" d="M490.662 377.385 Q490.662 372.549 496.359 369.992 Q499.778 368.352 506.837 367.936 L506.837 365.851 Q506.837 362.322 504.975 360.46 Q503.14 358.57 500.806 358.57 Q496.637 358.57 494.636 361.182 Q496.332 361.238 496.943 362.099 Q497.554 362.933 497.554 363.795 Q497.554 364.934 496.832 365.684 Q496.137 366.407 494.942 366.407 Q493.803 366.407 493.052 365.712 Q492.302 364.99 492.302 363.739 Q492.302 360.96 494.803 359.126 Q497.332 357.291 500.917 357.291 Q505.586 357.291 508.699 360.432 Q509.671 361.405 510.144 362.655 Q510.644 363.906 510.7 364.74 Q510.755 365.545 510.755 367.157 L510.755 378.524 Q510.755 378.857 510.866 379.413 Q510.978 379.969 511.478 380.692 Q512.006 381.386 512.867 381.386 Q514.924 381.386 514.896 377.746 L514.896 374.55 L516.341 374.55 L516.341 377.746 Q516.341 380.775 514.729 381.97 Q513.145 383.137 511.672 383.137 Q509.783 383.137 508.588 381.748 Q507.392 380.358 507.226 378.468 Q506.364 380.636 504.391 382.053 Q502.446 383.443 499.778 383.443 Q497.721 383.443 495.776 382.915 Q493.858 382.415 492.246 380.997 Q490.662 379.552 490.662 377.385 M495.053 377.329 Q495.053 379.441 496.554 380.803 Q498.055 382.165 500.167 382.165 Q502.557 382.165 504.697 380.33 Q506.837 378.468 506.837 374.828 L506.837 369.131 Q500.528 369.353 497.777 371.882 Q495.053 374.383 495.053 377.329 Z" fill="#000000" fill-rule="evenodd" fill-opacity="1" /><path clip-path="url(#clip340)" d="M518.314 382.804 L518.314 381.053 Q521.344 381.053 522.038 380.692 Q522.761 380.303 522.761 378.468 L522.761 363.211 Q522.761 361.099 522.011 360.571 Q521.288 360.043 518.314 360.043 L518.314 358.264 L526.235 357.653 L526.235 363.906 Q527.041 361.46 528.736 359.57 Q530.459 357.653 533.238 357.653 Q535.073 357.653 536.24 358.681 Q537.435 359.709 537.435 361.127 Q537.435 362.377 536.657 363.016 Q535.906 363.628 534.989 363.628 Q533.961 363.628 533.238 362.989 Q532.544 362.322 532.544 361.182 Q532.544 360.487 532.849 359.959 Q533.183 359.404 533.433 359.209 Q533.683 359.015 533.85 358.959 Q533.739 358.903 533.238 358.903 Q530.098 358.903 528.292 362.044 Q526.513 365.156 526.513 369.603 L526.513 378.357 Q526.513 379.997 527.18 380.525 Q527.875 381.053 530.848 381.053 L532.043 381.053 L532.043 382.804 Q529.764 382.637 524.818 382.637 Q524.123 382.637 523.039 382.665 Q521.955 382.693 520.538 382.748 Q519.12 382.804 518.314 382.804 Z" fill="#000000" fill-rule="evenodd" fill-opacity="1" /><path clip-path="url(#clip340)" d="M540.909 370.576 Q540.909 365.156 544.688 361.405 Q548.468 357.653 553.582 357.653 Q557.917 357.653 560.752 361.182 L560.752 348.871 Q560.752 346.759 560.001 346.231 Q559.279 345.702 556.333 345.702 L556.333 343.924 L564.531 343.312 L564.531 377.857 Q564.531 379.969 565.254 380.525 Q566.004 381.053 568.95 381.053 L568.95 382.804 L560.585 383.443 L560.585 379.663 Q557.639 383.415 552.97 383.443 Q548.079 383.443 544.494 379.691 Q540.909 375.939 540.909 370.576 M545.633 370.631 Q545.633 375.912 547.273 378.524 Q549.552 382.165 553.248 382.165 Q557.472 382.165 559.974 378.19 Q560.613 377.218 560.585 376.078 L560.585 364.406 Q560.585 363.267 559.974 362.322 Q557.639 358.903 553.832 358.903 Q549.858 358.903 547.384 362.544 Q545.633 365.268 545.633 370.631 Z" fill="#000000" fill-rule="evenodd" fill-opacity="1" /><path clip-path="url(#clip340)" d="M591.85 377.385 Q591.85 372.549 597.547 369.992 Q600.966 368.352 608.025 367.936 L608.025 365.851 Q608.025 362.322 606.163 360.46 Q604.328 358.57 601.994 358.57 Q597.825 358.57 595.824 361.182 Q597.52 361.238 598.131 362.099 Q598.742 362.933 598.742 363.795 Q598.742 364.934 598.02 365.684 Q597.325 366.407 596.13 366.407 Q594.991 366.407 594.24 365.712 Q593.49 364.99 593.49 363.739 Q593.49 360.96 595.991 359.126 Q598.52 357.291 602.105 357.291 Q606.774 357.291 609.887 360.432 Q610.859 361.405 611.332 362.655 Q611.832 363.906 611.888 364.74 Q611.943 365.545 611.943 367.157 L611.943 378.524 Q611.943 378.857 612.054 379.413 Q612.166 379.969 612.666 380.692 Q613.194 381.386 614.055 381.386 Q616.112 381.386 616.084 377.746 L616.084 374.55 L617.529 374.55 L617.529 377.746 Q617.529 380.775 615.917 381.97 Q614.333 383.137 612.86 383.137 Q610.971 383.137 609.776 381.748 Q608.581 380.358 608.414 378.468 Q607.552 380.636 605.579 382.053 Q603.634 383.443 600.966 383.443 Q598.909 383.443 596.964 382.915 Q595.046 382.415 593.434 380.997 Q591.85 379.552 591.85 377.385 M596.241 377.329 Q596.241 379.441 597.742 380.803 Q599.243 382.165 601.355 382.165 Q603.745 382.165 605.885 380.33 Q608.025 378.468 608.025 374.828 L608.025 369.131 Q601.716 369.353 598.965 371.882 Q596.241 374.383 596.241 377.329 Z" fill="#000000" fill-rule="evenodd" fill-opacity="1" /><path clip-path="url(#clip340)" d="M619.503 382.804 L619.503 381.053 Q622.532 381.053 623.227 380.692 Q623.949 380.303 623.949 378.468 L623.949 363.211 Q623.949 361.099 623.199 360.571 Q622.476 360.043 619.503 360.043 L619.503 358.264 L627.423 357.653 L627.423 363.906 Q628.229 361.46 629.924 359.57 Q631.647 357.653 634.426 357.653 Q636.261 357.653 637.428 358.681 Q638.623 359.709 638.623 361.127 Q638.623 362.377 637.845 363.016 Q637.094 363.628 636.177 363.628 Q635.149 363.628 634.426 362.989 Q633.732 362.322 633.732 361.182 Q633.732 360.487 634.037 359.959 Q634.371 359.404 634.621 359.209 Q634.871 359.015 635.038 358.959 Q634.927 358.903 634.426 358.903 Q631.286 358.903 629.48 362.044 Q627.701 365.156 627.701 369.603 L627.701 378.357 Q627.701 379.997 628.368 380.525 Q629.063 381.053 632.036 381.053 L633.231 381.053 L633.231 382.804 Q630.953 382.637 626.006 382.637 Q625.311 382.637 624.227 382.665 Q623.143 382.693 621.726 382.748 Q620.308 382.804 619.503 382.804 Z" fill="#000000" fill-rule="evenodd" fill-opacity="1" /><path clip-path="url(#clip340)" d="M641.736 370.27 Q641.736 364.906 645.182 361.099 Q648.628 357.291 653.575 357.291 Q658.577 357.291 661.162 360.543 Q663.774 363.795 663.774 368.464 Q663.774 369.325 663.552 369.492 Q663.329 369.659 662.357 369.659 L646.46 369.659 Q646.46 375.467 648.183 378.19 Q650.573 381.998 654.603 381.998 Q655.159 381.998 655.826 381.887 Q656.493 381.776 657.854 381.303 Q659.216 380.803 660.411 379.497 Q661.606 378.19 662.301 376.134 Q662.468 375.328 663.024 375.356 Q663.774 375.356 663.774 376.023 Q663.774 376.523 663.218 377.662 Q662.69 378.774 661.662 380.108 Q660.634 381.442 658.633 382.443 Q656.659 383.443 654.269 383.443 Q649.267 383.443 645.487 379.663 Q641.736 375.856 641.736 370.27 M646.516 368.464 L660.022 368.464 Q660.022 367.269 659.8 365.935 Q659.605 364.601 658.994 362.766 Q658.41 360.904 657.021 359.737 Q655.631 358.57 653.575 358.57 Q652.657 358.57 651.657 358.959 Q650.684 359.348 649.489 360.293 Q648.294 361.238 647.461 363.378 Q646.627 365.518 646.516 368.464 Z" fill="#000000" fill-rule="evenodd" fill-opacity="1" /><path clip-path="url(#clip340)" d="M667.804 377.385 Q667.804 372.549 673.501 369.992 Q676.919 368.352 683.978 367.936 L683.978 365.851 Q683.978 362.322 682.116 360.46 Q680.282 358.57 677.948 358.57 Q673.779 358.57 671.778 361.182 Q673.473 361.238 674.085 362.099 Q674.696 362.933 674.696 363.795 Q674.696 364.934 673.973 365.684 Q673.279 366.407 672.084 366.407 Q670.944 366.407 670.194 365.712 Q669.443 364.99 669.443 363.739 Q669.443 360.96 671.945 359.126 Q674.474 357.291 678.059 357.291 Q682.728 357.291 685.84 360.432 Q686.813 361.405 687.285 362.655 Q687.786 363.906 687.841 364.74 Q687.897 365.545 687.897 367.157 L687.897 378.524 Q687.897 378.857 688.008 379.413 Q688.119 379.969 688.619 380.692 Q689.147 381.386 690.009 381.386 Q692.066 381.386 692.038 377.746 L692.038 374.55 L693.483 374.55 L693.483 377.746 Q693.483 380.775 691.871 381.97 Q690.287 383.137 688.814 383.137 Q686.924 383.137 685.729 381.748 Q684.534 380.358 684.367 378.468 Q683.506 380.636 681.533 382.053 Q679.587 383.443 676.919 383.443 Q674.863 383.443 672.917 382.915 Q671 382.415 669.388 380.997 Q667.804 379.552 667.804 377.385 M672.195 377.329 Q672.195 379.441 673.695 380.803 Q675.196 382.165 677.308 382.165 Q679.698 382.165 681.838 380.33 Q683.978 378.468 683.978 374.828 L683.978 369.131 Q677.67 369.353 674.918 371.882 Q672.195 374.383 672.195 377.329 Z" fill="#000000" fill-rule="evenodd" fill-opacity="1" /><polyline clip-path="url(#clip340)" style="stroke:#ffffff; stroke-linecap:butt; stroke-linejoin:round; stroke-width:4; stroke-opacity:1; fill:none" points="
  47.2441,275.788 47.2441,47.2441 
  "/>
<path clip-path="url(#clip342)" d="M901.528 161.516 L939.928 183.916 L939.928 139.116 L901.528 161.516 Z" fill="#2e3440" fill-rule="evenodd" fill-opacity="1" stroke="#ffffff" stroke-opacity="1" stroke-width="0"/>
<path clip-path="url(#clip342)" d="M897.725 161.516 L936.125 183.916 L936.125 139.116 L897.725 161.516 Z" fill="#2e3440" fill-rule="evenodd" fill-opacity="1" stroke="#ffffff" stroke-opacity="1" stroke-width="0"/>
<path clip-path="url(#clip342)" d="M893.83 161.516 L932.23 183.916 L932.23 139.116 L893.83 161.516 Z" fill="#2e3440" fill-rule="evenodd" fill-opacity="1" stroke="#ffffff" stroke-opacity="1" stroke-width="0"/>
<path clip-path="url(#clip342)" d="M889.841 161.516 L928.241 183.916 L928.241 139.116 L889.841 161.516 Z" fill="#2e3440" fill-rule="evenodd" fill-opacity="1" stroke="#ffffff" stroke-opacity="1" stroke-width="0"/>
<path clip-path="url(#clip342)" d="M885.752 161.516 L924.152 183.916 L924.152 139.116 L885.752 161.516 Z" fill="#2e3440" fill-rule="evenodd" fill-opacity="1" stroke="#ffffff" stroke-opacity="1" stroke-width="0"/>
<path clip-path="url(#clip342)" d="M881.558 161.516 L919.958 183.916 L919.958 139.116 L881.558 161.516 Z" fill="#2e3441" fill-rule="evenodd" fill-opacity="1" stroke="#ffffff" stroke-opacity="1" stroke-width="0"/>
<path clip-path="url(#clip342)" d="M877.255 161.516 L915.655 183.916 L915.655 139.116 L877.255 161.516 Z" fill="#2e3441" fill-rule="evenodd" fill-opacity="1" stroke="#ffffff" stroke-opacity="1" stroke-width="0"/>
<path clip-path="url(#clip342)" d="M872.835 161.516 L911.235 183.916 L911.235 139.116 L872.835 161.516 Z" fill="#2f3541" fill-rule="evenodd" fill-opacity="1" stroke="#ffffff" stroke-opacity="1" stroke-width="0"/>
<path clip-path="url(#clip342)" d="M868.294 161.516 L906.694 183.916 L906.694 139.116 L868.294 161.516 Z" fill="#2f3541" fill-rule="evenodd" fill-opacity="1" stroke="#ffffff" stroke-opacity="1" stroke-width="0"/>
<path clip-path="url(#clip342)" d="M863.625 161.516 L902.025 183.916 L902.025 139.116 L863.625 161.516 Z" fill="#2f3542" fill-rule="evenodd" fill-opacity="1" stroke="#ffffff" stroke-opacity="1" stroke-width="0"/>
<path clip-path="url(#clip342)" d="M858.82 161.516 L897.22 183.916 L897.22 139.116 L858.82 161.516 Z" fill="#2f3542" fill-rule="evenodd" fill-opacity="1" stroke="#ffffff" stroke-opacity="1" stroke-width="0"/>
<path clip-path="url(#clip342)" d="M853.872 161.516 L892.272 183.916 L892.272 139.116 L853.872 161.516 Z" fill="#2f3642" fill-rule="evenodd" fill-opacity="1" stroke="#ffffff" stroke-opacity="1" stroke-width="0"/>
<path clip-path="url(#clip342)" d="M848.772 161.516 L887.172 183.916 L887.172 139.116 L848.772 161.516 Z" fill="#303642" fill-rule="evenodd" fill-opacity="1" stroke="#ffffff" stroke-opacity="1" stroke-width="0"/>
<path clip-path="url(#clip342)" d="M843.511 161.516 L881.911 183.916 L881.911 139.116 L843.511 161.516 Z" fill="#303643" fill-rule="evenodd" fill-opacity="1" stroke="#ffffff" stroke-opacity="1" stroke-width="0"/>
<path clip-path="url(#clip342)" d="M838.079 161.516 L876.479 183.916 L876.479 139.116 L838.079 161.516 Z" fill="#303643" fill-rule="evenodd" fill-opacity="1" stroke="#ffffff" stroke-opacity="1" stroke-width="0"/>
<path clip-path="url(#clip342)" d="M832.465 161.516 L870.865 183.916 L870.865 139.116 L832.465 161.516 Z" fill="#303744" fill-rule="evenodd" fill-opacity="1" stroke="#ffffff" stroke-opacity="1" stroke-width="0"/>
<path clip-path="url(#clip342)" d="M826.657 161.516 L865.057 183.916 L865.057 139.116 L826.657 161.516 Z" fill="#313744" fill-rule="evenodd" fill-opacity="1" stroke="#ffffff" stroke-opacity="1" stroke-width="0"/>
<path clip-path="url(#clip342)" d="M820.641 161.516 L859.041 183.916 L859.041 139.116 L820.641 161.516 Z" fill="#313744" fill-rule="evenodd" fill-opacity="1" stroke="#ffffff" stroke-opacity="1" stroke-width="0"/>
<path clip-path="url(#clip342)" d="M814.404 161.516 L852.804 183.916 L852.804 139.116 L814.404 161.516 Z" fill="#313845" fill-rule="evenodd" fill-opacity="1" stroke="#ffffff" stroke-opacity="1" stroke-width="0"/>
<path clip-path="url(#clip342)" d="M807.928 161.516 L846.328 183.916 L846.328 139.116 L807.928 161.516 Z" fill="#323845" fill-rule="evenodd" fill-opacity="1" stroke="#ffffff" stroke-opacity="1" stroke-width="0"/>
<path clip-path="url(#clip342)" d="M801.196 161.516 L839.596 183.916 L839.596 139.116 L801.196 161.516 Z" fill="#323946" fill-rule="evenodd" fill-opacity="1" stroke="#ffffff" stroke-opacity="1" stroke-width="0"/>
<path clip-path="url(#clip342)" d="M794.187 161.516 L832.587 183.916 L832.587 139.116 L794.187 161.516 Z" fill="#333947" fill-rule="evenodd" fill-opacity="1" stroke="#ffffff" stroke-opacity="1" stroke-width="0"/>
<path clip-path="url(#clip342)" d="M786.88 161.516 L825.28 183.916 L825.28 139.116 L786.88 161.516 Z" fill="#333a47" fill-rule="evenodd" fill-opacity="1" stroke="#ffffff" stroke-opacity="1" stroke-width="0"/>
<path clip-path="url(#clip342)" d="M779.249 161.516 L817.649 183.916 L817.649 139.116 L779.249 161.516 Z" fill="#343a48" fill-rule="evenodd" fill-opacity="1" stroke="#ffffff" stroke-opacity="1" stroke-width="0"/>
<path clip-path="url(#clip342)" d="M771.265 161.516 L809.665 183.916 L809.665 139.116 L771.265 161.516 Z" fill="#343b49" fill-rule="evenodd" fill-opacity="1" stroke="#ffffff" stroke-opacity="1" stroke-width="0"/>
<path clip-path="url(#clip342)" d="M762.897 161.516 L801.297 183.916 L801.297 139.116 L762.897 161.516 Z" fill="#353b4a" fill-rule="evenodd" fill-opacity="1" stroke="#ffffff" stroke-opacity="1" stroke-width="0"/>
<path clip-path="url(#clip342)" d="M754.107 161.516 L792.507 183.916 L792.507 139.116 L754.107 161.516 Z" fill="#353c4b" fill-rule="evenodd" fill-opacity="1" stroke="#ffffff" stroke-opacity="1" stroke-width="0"/>
<path clip-path="url(#clip342)" d="M744.855 161.516 L783.255 183.916 L783.255 139.116 L744.855 161.516 Z" fill="#363d4c" fill-rule="evenodd" fill-opacity="1" stroke="#ffffff" stroke-opacity="1" stroke-width="0"/>
<path clip-path="url(#clip342)" d="M735.09 161.516 L773.49 183.916 L773.49 139.116 L735.09 161.516 Z" fill="#373e4d" fill-rule="evenodd" fill-opacity="1" stroke="#ffffff" stroke-opacity="1" stroke-width="0"/>
<path clip-path="url(#clip342)" d="M724.758 161.516 L763.158 183.916 L763.158 139.116 L724.758 161.516 Z" fill="#383f4e" fill-rule="evenodd" fill-opacity="1" stroke="#ffffff" stroke-opacity="1" stroke-width="0"/>
<path clip-path="url(#clip342)" d="M713.793 161.516 L752.193 183.916 L752.193 139.116 L713.793 161.516 Z" fill="#39404f" fill-rule="evenodd" fill-opacity="1" stroke="#ffffff" stroke-opacity="1" stroke-width="0"/>
<path clip-path="url(#clip342)" d="M702.118 161.516 L740.518 183.916 L740.518 139.116 L702.118 161.516 Z" fill="#3a4151" fill-rule="evenodd" fill-opacity="1" stroke="#ffffff" stroke-opacity="1" stroke-width="0"/>
<path clip-path="url(#clip342)" d="M689.642 161.516 L728.042 183.916 L728.042 139.116 L689.642 161.516 Z" fill="#3b4252" fill-rule="evenodd" fill-opacity="1" stroke="#ffffff" stroke-opacity="1" stroke-width="0"/>
<path clip-path="url(#clip342)" d="M676.256 161.516 L714.656 183.916 L714.656 139.116 L676.256 161.516 Z" fill="#3c4354" fill-rule="evenodd" fill-opacity="1" stroke="#ffffff" stroke-opacity="1" stroke-width="0"/>
<path clip-path="url(#clip342)" d="M661.83 161.516 L700.23 183.916 L700.23 139.116 L661.83 161.516 Z" fill="#3d4555" fill-rule="evenodd" fill-opacity="1" stroke="#ffffff" stroke-opacity="1" stroke-width="0"/>
<path clip-path="url(#clip342)" d="M646.204 161.516 L684.604 183.916 L684.604 139.116 L646.204 161.516 Z" fill="#3e4657" fill-rule="evenodd" fill-opacity="1" stroke="#ffffff" stroke-opacity="1" stroke-width="0"/>
<path clip-path="url(#clip342)" d="M629.18 161.516 L667.58 183.916 L667.58 139.116 L629.18 161.516 Z" fill="#3f4859" fill-rule="evenodd" fill-opacity="1" stroke="#ffffff" stroke-opacity="1" stroke-width="0"/>
<path clip-path="url(#clip342)" d="M610.512 161.516 L648.912 183.916 L648.912 139.116 L610.512 161.516 Z" fill="#414a5b" fill-rule="evenodd" fill-opacity="1" stroke="#ffffff" stroke-opacity="1" stroke-width="0"/>
<path clip-path="url(#clip342)" d="M589.887 161.516 L628.287 183.916 L628.287 139.116 L589.887 161.516 Z" fill="#434c5e" fill-rule="evenodd" fill-opacity="1" stroke="#ffffff" stroke-opacity="1" stroke-width="0"/>
<path clip-path="url(#clip342)" d="M566.905 161.516 L605.305 183.916 L605.305 139.116 L566.905 161.516 Z" fill="#454f61" fill-rule="evenodd" fill-opacity="1" stroke="#ffffff" stroke-opacity="1" stroke-width="0"/>
<path clip-path="url(#clip342)" d="M541.041 161.516 L579.441 183.916 L579.441 139.116 L541.041 161.516 Z" fill="#485265" fill-rule="evenodd" fill-opacity="1" stroke="#ffffff" stroke-opacity="1" stroke-width="0"/>
<path clip-path="url(#clip342)" d="M511.597 161.516 L549.997 183.916 L549.997 139.116 L511.597 161.516 Z" fill="#4d586e" fill-rule="evenodd" fill-opacity="1" stroke="#ffffff" stroke-opacity="1" stroke-width="0"/>
<path clip-path="url(#clip342)" d="M477.634 161.516 L516.034 183.916 L516.034 139.116 L477.634 161.516 Z" fill="#556d8d" fill-rule="evenodd" fill-opacity="1" stroke="#ffffff" stroke-opacity="1" stroke-width="0"/>
<path clip-path="url(#clip342)" d="M437.868 161.516 L476.268 183.916 L476.268 139.116 L437.868 161.516 Z" fill="#6284ae" fill-rule="evenodd" fill-opacity="1" stroke="#ffffff" stroke-opacity="1" stroke-width="0"/>
<path clip-path="url(#clip342)" d="M390.56 161.516 L428.96 183.916 L428.96 139.116 L390.56 161.516 Z" fill="#799abc" fill-rule="evenodd" fill-opacity="1" stroke="#ffffff" stroke-opacity="1" stroke-width="0"/>
<path clip-path="url(#clip342)" d="M333.458 161.516 L371.858 183.916 L371.858 139.116 L333.458 161.516 Z" fill="#84b1c8" fill-rule="evenodd" fill-opacity="1" stroke="#ffffff" stroke-opacity="1" stroke-width="0"/>
<path clip-path="url(#clip342)" d="M264.193 161.516 L302.593 183.916 L302.593 139.116 L264.193 161.516 Z" fill="#89bfcb" fill-rule="evenodd" fill-opacity="1" stroke="#ffffff" stroke-opacity="1" stroke-width="0"/>
<path clip-path="url(#clip342)" d="M182.619 161.516 L221.019 183.916 L221.019 139.116 L182.619 161.516 Z" fill="#8dbdc0" fill-rule="evenodd" fill-opacity="1" stroke="#ffffff" stroke-opacity="1" stroke-width="0"/>
<path clip-path="url(#clip342)" d="M99.3249 161.516 L137.725 183.916 L137.725 139.116 L99.3249 161.516 Z" fill="#8ebcbb" fill-rule="evenodd" fill-opacity="1" stroke="#ffffff" stroke-opacity="1" stroke-width="0"/>
<path clip-path="url(#clip342)" d="M48.6337 161.516 L87.0337 183.916 L87.0337 139.116 L48.6337 161.516 Z" fill="#8ebcbb" fill-rule="evenodd" fill-opacity="1" stroke="#ffffff" stroke-opacity="1" stroke-width="0"/>
<path clip-path="url(#clip342)" d="M47.2718 161.516 L85.6718 183.916 L85.6718 139.116 L47.2718 161.516 Z" fill="#8ebcbb" fill-rule="evenodd" fill-opacity="1" stroke="#ffffff" stroke-opacity="1" stroke-width="0"/>
<path clip-path="url(#clip342)" d="M47.6265 161.516 L86.0265 183.916 L86.0265 139.116 L47.6265 161.516 Z" fill="#8ebcbb" fill-rule="evenodd" fill-opacity="1" stroke="#ffffff" stroke-opacity="1" stroke-width="0"/>
<path clip-path="url(#clip342)" d="M47.532 161.516 L85.932 183.916 L85.932 139.116 L47.532 161.516 Z" fill="#8ebcbb" fill-rule="evenodd" fill-opacity="1" stroke="#ffffff" stroke-opacity="1" stroke-width="0"/>
<path clip-path="url(#clip342)" d="M47.557 161.516 L85.957 183.916 L85.957 139.116 L47.557 161.516 Z" fill="#8ebcbb" fill-rule="evenodd" fill-opacity="1" stroke="#ffffff" stroke-opacity="1" stroke-width="0"/>
<path clip-path="url(#clip342)" d="M47.5504 161.516 L85.9504 183.916 L85.9504 139.116 L47.5504 161.516 Z" fill="#8ebcbb" fill-rule="evenodd" fill-opacity="1" stroke="#ffffff" stroke-opacity="1" stroke-width="0"/>
<circle clip-path="url(#clip342)" cx="73.1521" cy="161.516" r="28.8" fill="#8fbcbb" fill-rule="evenodd" fill-opacity="1" stroke="#ffffff" stroke-opacity="1" stroke-width="0"/>
</svg>
